<svg width="209" height="557" viewBox="0 0 209 557" fill="none" xmlns="http://www.w3.org/2000/svg">
<path d="M153.729 85.2462L156.922 86.1689C173.09 90.7836 176.883 105.811 174.552 124.395C174.63 127.395 175.11 130.299 175.99 133.105C187.884 162.29 181.671 164.046 188.696 188.697C188.794 188.997 188.793 189.197 188.791 189.497C191.36 193.916 190.083 232.908 187.812 257.092C187.908 257.593 187.905 257.993 187.802 258.492C186.84 267.285 186.647 266.284 187.725 269.292C188.804 272.299 192.993 287.93 193.087 288.83C193.277 290.232 193.267 291.632 193.058 292.93C192.227 297.324 191.389 302.719 189.585 303.206C188.566 305.899 186.953 307.687 185.95 308.18C183.528 311.263 182.814 313.158 181.817 312.751C180.82 312.344 180.429 311.141 180.836 310.144C180.836 310.144 180.836 310.144 180.837 310.044C181.246 308.747 180.739 309.743 179.928 311.238C178.915 313.03 178.002 314.924 177.299 315.319C174.411 313.598 176.337 309.912 178.057 307.124C179.068 305.531 177.554 307.521 175.733 310.508C174.114 313.196 172.497 315.585 172.099 315.282C168.318 312.655 173.174 304.79 173.98 303.895C173.898 301.295 173.916 298.795 174.034 296.195C173.247 294.49 172.667 291.586 172.298 287.283C171.886 288.98 171.274 290.576 170.663 292.171C169.756 293.165 172.193 301.982 165.394 301.934C165.418 298.534 165.451 293.835 165.474 290.635C165.492 288.035 166.34 281.341 166.358 278.741C166.376 276.141 172.224 269.382 172.526 269.084C172.756 264.986 172.585 260.784 172.214 256.682C172.215 256.582 172.216 256.382 172.317 256.282C171.087 246.473 168.058 236.452 166.002 230.237C163.946 224.022 160.231 211.895 160.992 203.301C160.894 203 160.797 202.599 160.899 202.3C160.819 199.599 161.138 196.802 161.957 194.207C154.15 180.952 149.857 165.921 149.666 150.519C147.19 161.302 139.891 175.25 139.832 183.55C139.761 193.55 142.704 201.571 142.657 208.171C142.629 212.171 141.489 217.763 139.237 225.147C143.18 233.175 159.406 271.891 161.877 304.309C164.255 335.627 164.706 356.631 161.354 378.008C168.685 387.86 171.568 418.481 166.334 451.445C164.347 463.731 166.758 490.449 168.962 504.065C171.165 517.681 156.065 517.674 150.793 513.636C147.81 511.315 143.059 504.381 145.192 499.696C145.063 489.595 141.882 458.772 134.039 436.616C129.922 424.786 130.258 405.588 130.833 395.092C130.737 394.491 130.541 393.89 130.445 393.289C129.286 387.581 129.999 385.786 130.122 382.486C126.884 373.663 118.392 358.403 115.287 344.98C112.668 333.562 110.26 320.644 107.862 306.227L105.362 306.109C104.436 309.903 103.708 313.798 103.18 317.794C102.415 326.889 103.507 342.097 89.5152 383.299C89.4741 389.099 91.2691 389.811 90.5195 396.806C90.3047 398.905 89.9905 400.903 89.4756 402.999C92.387 415.52 95.2381 436.541 86.0037 455.476C79.9139 468.133 76.3879 485.908 78.4191 495.623C80.9871 500.141 79.7142 510.433 76.9958 513.013C72.0641 517.479 53.1851 514.445 55.5849 500.361C57.9848 486.278 58.1357 464.979 54.2541 448.251C50.7591 433.425 52.0844 415.734 55.319 396.757C55.3239 396.057 55.3289 395.357 55.3346 394.557C55.3594 391.057 55.482 387.858 55.7033 384.859C54.0558 377.447 51.8997 371.232 49.7663 347.716C48.6514 335.708 50.1222 325.718 49.9022 314.416C50.9622 277.723 57.7731 233.87 61.1347 225.194L61.3347 225.195C60.8637 221.092 60.5935 216.89 60.5226 212.789C60.5587 207.689 63.7365 196.711 64.8088 186.519C65.6626 178.925 61.3201 170.794 58.4811 162.173C57.4046 172.966 52.0268 183.928 45.0639 192.779C52.5271 226.233 39.5233 240.841 35.7356 267.315C36.2321 267.818 36.6285 268.321 37.0249 268.824C41.2852 274.454 41.9327 281.859 39.169 290.84C40.5477 293.85 41.5357 295.557 42.1314 296.161C43.8214 297.573 45.2278 296.683 45.6959 301.186C44.1995 300.676 42.5037 300.064 41.008 299.453C44.2917 301.776 45.2753 304.083 44.1605 306.175L39.7783 303.644C40.8712 304.652 41.562 305.957 41.752 307.358C41.6421 308.758 41.2329 310.055 40.5244 311.25L36.4663 305.321L31.1373 295.283L34.1742 304.205C36.2543 307.019 37.3366 309.527 37.5224 311.529C37.7082 313.53 36.9997 314.725 35.1984 314.912C31.6325 310.087 29.4538 307.071 28.6609 306.066C26.5871 302.351 24.8141 298.538 23.3425 294.528C22.6588 292.223 22.4985 286.622 22.863 277.524C22.7757 275.723 22.7892 273.823 23.0019 272.025C24.7138 256.236 16.3827 232.377 18.9576 207.694C19.3916 202.897 20.5256 198.105 22.2574 193.617C22.6865 189.52 25.1247 184.138 24.9495 180.636C23.4067 144.324 31.9583 151.185 31.5809 133.882C31.2035 116.579 30.185 105.071 36.8443 96.7184C41.991 90.1547 53.6176 86.437 60.721 85.9873C62.1287 84.8972 63.7351 84.0086 65.3407 83.2199C70.0562 81.0533 74.9702 79.0881 79.8828 77.3228C85.838 69.5648 84.7515 67.6571 84.8485 53.9574C84.947 40.0578 119.902 46.5056 119.86 52.4055C119.821 57.9053 117.033 70.3859 123.992 76.2353" fill="url(#paint0_linear_1108_405)"/>
<path d="M178.852 294.531L179.891 303.139" stroke="#F29353" stroke-width="1.14" stroke-linecap="round"/>
<path d="M183.852 294.57L184.179 304.872L182.762 307.162" stroke="#F29353" stroke-width="1.14" stroke-linecap="round"/>
<path d="M189.67 291.609L189.399 301.607L187.468 305.993" stroke="#F29353" stroke-width="1.14" stroke-linecap="round"/>
<path d="M173.378 289.99L172.311 285.383L171.184 289.175" stroke="#F29353" stroke-width="1.14" stroke-linecap="round"/>
<path d="M173.553 265.797L172.425 269.689" stroke="#F29353" stroke-width="1.14" stroke-linecap="round"/>
<path d="M151.462 137.235C151.04 140.332 152.111 144.44 154.877 149.359" stroke="#EE8B48" stroke-width="1.14" stroke-linecap="round"/>
<path d="M167.533 184.25C165.513 187.036 163.991 190.125 163.068 193.419" stroke="#F29353" stroke-width="1.14" stroke-linecap="round"/>
<path d="M62.8756 389.614C61.4338 395.504 62.1005 400.209 64.7749 403.828C67.4494 407.447 68.8047 413.757 68.6409 422.756" stroke="#F08944" stroke-width="1.14" stroke-linecap="round"/>
<path d="M83.3781 389.158C84.9292 396.069 84.4937 401.066 81.9733 403.948" stroke="#F08944" stroke-width="1.14" stroke-linecap="round"/>
<path d="M63.2867 147.305C58.2088 144.169 55.9663 136.053 54.367 135.942C52.7677 135.83 50.5331 140.715 47.3105 143.892" stroke="#EE8B48" stroke-width="1.14" stroke-linecap="round"/>
<path d="M55.928 141.053C55.9898 146.454 54.8523 151.746 52.7176 156.631" stroke="#EE8B48" stroke-width="1.14" stroke-linecap="round"/>
<path d="M57.0391 139.664C60.8802 147.991 67.763 150.44 79.6627 150.525C91.5624 150.609 100.571 149.373 101.338 139.978" stroke="#EE8B48" stroke-width="1.14" stroke-linecap="round"/>
<path d="M142.287 147.864C147.409 144.8 149.766 136.716 151.367 136.628C152.968 136.539 155.133 141.455 158.31 144.677" stroke="#EE8B48" stroke-width="1.14" stroke-linecap="round"/>
<path d="M148.643 140.314C144.684 148.586 137.767 150.937 125.867 150.853C113.968 150.768 104.977 149.405 104.344 140" stroke="#EE8B48" stroke-width="1.14" stroke-linecap="round"/>
<path d="M121.312 74.2188C121.693 77.0215 122.374 79.7264 123.354 82.4334" stroke="#F89451" stroke-width="1.14" stroke-linecap="round"/>
<path d="M82.6078 75.0469C82.4915 77.3461 82.0752 79.6432 81.4596 81.8389" stroke="#F89451" stroke-width="1.14" stroke-linecap="round"/>
<path d="M134.192 387.82C133.949 393.819 135.217 398.328 138.097 401.248C140.976 404.169 143.035 409.984 144.473 418.794" stroke="#F08944" stroke-width="1.14" stroke-linecap="round"/>
<path d="M154.581 388.965C155.431 396.071 154.497 400.865 151.678 403.545" stroke="#F08944" stroke-width="1.14" stroke-linecap="round"/>
<path fill-rule="evenodd" clip-rule="evenodd" d="M43.5922 542.979C44.7546 548.287 49.229 551.919 56.0182 553.467C62.8074 555.015 75.0106 554.602 78.8282 552.129C82.6458 549.656 90.1087 540.809 79.7089 526.634C82.6704 517.955 87.3164 511.488 79.4888 501.232C75.9358 508.707 64.9623 504.929 56.8852 501.672C54.9902 500.959 50.8762 517.03 49.5217 524.721C44.8488 534.988 41.9489 534.967 43.5922 542.979Z" fill="#C6C6C6"/>
<path fill-rule="evenodd" clip-rule="evenodd" d="M61.2933 499.709C64.4067 497.831 68.4052 498.06 71.2888 500.38C72.0846 500.986 73.3675 503.395 75.3717 502.809C78.478 501.931 78.2007 498.729 79.3085 497.637C80.4162 496.545 83.4573 504.866 80.6022 512.646C77.747 520.426 83.5625 532.368 83.5625 532.368C83.5625 532.368 86.3583 547.088 75.955 547.514C72.9536 547.693 73.0678 545.694 64.4645 546.133C59.2625 546.396 60.3405 549.504 52.5605 546.649C44.7806 543.793 42.8267 537.279 44.35 533.99C45.9748 530.501 49.0172 524.523 50.7604 518.435C51.0312 508.437 52.8794 501.65 56.1048 498.072C56.1906 500.073 57.5821 501.283 58.2821 501.288C60.4813 501.404 60.4891 500.304 61.2933 499.709Z" fill="black"/>
<path fill-rule="evenodd" clip-rule="evenodd" d="M57.4226 509.68L69.8904 514.268L59.8474 520.297L70.5146 524.973L58.5092 525.688L70.1521 519.67L59.5857 514.895L71.4293 508.779L57.4226 509.68Z" stroke="white" stroke-width="1.07" stroke-linecap="round" stroke-linejoin="round"/>
<path fill-rule="evenodd" clip-rule="evenodd" d="M181.384 543.956C180.346 549.349 175.92 553.018 169.208 554.67C162.496 556.323 150.197 556.236 146.314 553.808C142.43 551.48 134.792 542.726 144.994 528.398C141.855 519.776 137.099 513.442 144.674 502.995C148.421 510.422 159.25 506.399 167.274 502.955C169.18 502.169 173.567 518.2 175.113 525.811C180.04 536.047 182.941 535.967 181.384 543.956Z" fill="#C6C6C6"/>
<path fill-rule="evenodd" clip-rule="evenodd" d="M162.889 501.024C159.701 499.201 155.699 499.573 152.882 501.953C152.077 502.647 150.861 504.938 148.864 504.424C145.77 503.602 146.894 500.21 145.801 499.202C144.708 498.195 140.848 506.668 143.793 514.389C146.839 522.11 141.253 534.171 141.253 534.171C141.253 534.171 138.748 548.954 149.247 549.128C152.247 549.149 152.161 547.249 160.659 547.509C165.858 547.646 164.836 550.839 172.657 547.794C180.479 544.749 182.126 538.161 180.549 534.95C178.873 531.438 175.715 525.515 173.758 519.501C173.229 509.497 171.277 502.683 168.001 499.26C167.887 501.259 166.578 502.55 165.978 502.545C163.776 502.73 163.684 501.629 162.889 501.024Z" fill="black"/>
<path fill-rule="evenodd" clip-rule="evenodd" d="M166.918 510.951L154.584 515.763L164.642 521.635L154.107 526.56L166.204 527.046L154.345 521.162L164.88 516.236L152.922 510.352L166.918 510.951Z" stroke="white" stroke-width="1.07" stroke-linecap="round" stroke-linejoin="round"/>
<g opacity="0.42" filter="url(#filter0_f_1108_405)">
<path fill-rule="evenodd" clip-rule="evenodd" d="M86.4211 57.669C86.6786 63.6709 87.8695 79.0798 94.1445 82.6243C100.42 86.1689 107.82 86.1213 111.644 82.7483C115.468 79.3753 119.25 67.8018 119.432 56.3028C120.487 48.5101 83.8751 50.0507 86.4211 57.669Z" fill="#915D2E" fill-opacity="0.7"/>
</g>
<path fill-rule="evenodd" clip-rule="evenodd" d="M82.9081 59.6438C83.2606 66.3464 91.1974 75.3029 94.4781 78.0262C97.7589 80.7495 106.352 81.8104 110.178 78.1374C114.004 74.4645 117.434 70.1887 118.252 67.6944C119.07 65.2001 121.609 59.718 122.02 58.1208C124.585 63.0391 134.442 40.9084 125.831 42.4475C125.873 36.5476 126.575 22.1522 118.62 15.6957C110.666 9.23917 100.274 8.06551 89.3381 13.0882C78.4022 18.1108 76.3258 28.8964 78.7237 43.3137C80.7201 43.8279 71.2352 41.6606 74.8657 51.4866C77.3295 56.6042 77.2969 61.204 82.9081 59.6438Z" fill="#FFD4AB"/>
<path d="M101.18 77.5703L103.48 77.5866" stroke="#EA833E" stroke-width="1.14" stroke-linecap="round"/>
<path d="M127.003 45.9555C123.485 48.4307 121.672 50.3179 121.662 51.7178" stroke="#EA833E" stroke-width="1.14" stroke-linecap="round"/>
<path d="M124.38 49.3355L124.363 51.7355L121.636 55.5163" stroke="#EA833E" stroke-width="1.14" stroke-linecap="round"/>
<path d="M76.1953 47.1953C78.191 47.8095 79.7796 49.4208 80.3654 51.425" stroke="#EA833E" stroke-width="1.14" stroke-linecap="round"/>
<path d="M78.1797 49.0117L78.652 52.9152L81.1357 55.2328" stroke="#EA833E" stroke-width="1.14" stroke-linecap="round"/>
<path d="M123.242 44.4961C123.543 41.7746 124.242 39.9066 122.742 33.9961C120.888 29.0271 116.798 25.5813 117.134 19.5819C113.948 17.0869 107.074 21.836 100.195 22.8024C93.3149 23.7688 79.7414 20.0856 80.7414 31.0856C82.2414 39.2913 80.0733 39.8445 80.7415 46.4961L78.2417 45.4961C76.2418 42.9961 72.3172 30.5039 74.7951 17.0649C77.2731 3.6258 106.072 -9.58927 119.443 13.8996C132.648 10.0037 126.052 41.4825 125.742 44.4961H123.242Z" fill="black"/>
<path opacity="0.75" fill-rule="evenodd" clip-rule="evenodd" d="M139.082 225.416C125.266 234.486 67.3233 232.949 60.8005 225.321C56.6121 208.666 63.3358 198.643 63.9868 184.907C64.2939 178.426 59.9965 172.601 58.6707 162.933C57.4715 157.694 56.8848 153.256 56.9105 149.62C63.43 142.722 66.7412 132.003 66.8442 117.464C66.9931 96.4437 63.0319 91.2879 60.6784 85.7576C60.1281 84.7511 62.9753 83.0937 66.1233 81.8508C69.7537 80.4174 73.6129 78.349 74.1271 79.1666C74.1137 81.0563 81.4992 108.33 101.792 108.474C122.085 108.618 128.444 104.009 134.065 79.4018C133.839 78.6928 136.523 79.3061 141.015 80.5404C145.508 81.7748 148.937 82.9451 148.037 83.504C146.637 84.0748 146.079 88.174 142.559 114.163C139.04 140.152 146.273 140.356 150.306 145.135C150.394 149.044 149.796 153.576 148.51 158.732C141.936 173.602 139.629 185.526 141.59 194.506C144.532 207.974 144.905 219.902 139.082 225.416Z" fill="#FFFAF9"/>
<path opacity="0.85" fill-rule="evenodd" clip-rule="evenodd" d="M104.142 320.813L105.12 311.318L107.641 311.298L108.56 320.845C128.608 321.059 142.726 319.996 150.916 317.654C157.388 315.803 161.494 310.812 163.233 302.68C158.951 278.464 154.938 260.995 151.194 250.273C147.537 239.801 141.743 225.168 139.243 225.15C102.048 235.269 67.5473 228.845 61.1409 225.197C59.1001 225.042 58.1826 232.037 56.7919 238.116C54.6339 247.55 49.9053 288.633 49.1395 305.167C49.0542 317.209 67.3882 322.425 104.142 320.813Z" fill="black"/>
<g filter="url(#filter1_d_1108_405)">
<path d="M171.146 96C191.321 98.9407 204 103.197 204 107.932C204 116.806 159.452 124 104.5 124C49.5477 124 5 116.806 5 107.932C5 103.383 16.7011 99.2765 35.5071 96.3533" stroke="#E95D5C" stroke-width="2" stroke-linecap="round"/>
</g>
<g filter="url(#filter2_d_1108_405)">
<path d="M141.849 177C153.609 179.941 161 184.197 161 188.932C161 197.806 135.033 205 103 205C70.9675 205 45 197.806 45 188.932C45 184.383 51.8207 180.276 62.783 177.353" stroke="#E95D5C" stroke-width="2" stroke-linecap="round"/>
</g>
<g filter="url(#filter3_d_1108_405)">
<path d="M155.401 262C170.506 264.941 180 269.197 180 273.932C180 282.806 146.645 290 105.5 290C64.3548 290 31 282.806 31 273.932C31 269.383 39.7611 265.276 53.842 262.353" stroke="#E95D5C" stroke-width="2" stroke-linecap="round"/>
</g>
<defs>
<filter id="filter0_f_1108_405" x="82.2969" y="47.1562" width="41.1562" height="42.125" filterUnits="userSpaceOnUse" color-interpolation-filters="sRGB">
<feFlood flood-opacity="0" result="BackgroundImageFix"/>
<feBlend mode="normal" in="SourceGraphic" in2="BackgroundImageFix" result="shape"/>
<feGaussianBlur stdDeviation="2" result="effect1_foregroundBlur_1108_405"/>
</filter>
<filter id="filter1_d_1108_405" x="0" y="95" width="209" height="38" filterUnits="userSpaceOnUse" color-interpolation-filters="sRGB">
<feFlood flood-opacity="0" result="BackgroundImageFix"/>
<feColorMatrix in="SourceAlpha" type="matrix" values="0 0 0 0 0 0 0 0 0 0 0 0 0 0 0 0 0 0 127 0" result="hardAlpha"/>
<feOffset dy="4"/>
<feGaussianBlur stdDeviation="2"/>
<feComposite in2="hardAlpha" operator="out"/>
<feColorMatrix type="matrix" values="0 0 0 0 0.913725 0 0 0 0 0.364706 0 0 0 0 0.360784 0 0 0 0.37 0"/>
<feBlend mode="normal" in2="BackgroundImageFix" result="effect1_dropShadow_1108_405"/>
<feBlend mode="normal" in="SourceGraphic" in2="effect1_dropShadow_1108_405" result="shape"/>
</filter>
<filter id="filter2_d_1108_405" x="40" y="176" width="126" height="38" filterUnits="userSpaceOnUse" color-interpolation-filters="sRGB">
<feFlood flood-opacity="0" result="BackgroundImageFix"/>
<feColorMatrix in="SourceAlpha" type="matrix" values="0 0 0 0 0 0 0 0 0 0 0 0 0 0 0 0 0 0 127 0" result="hardAlpha"/>
<feOffset dy="4"/>
<feGaussianBlur stdDeviation="2"/>
<feComposite in2="hardAlpha" operator="out"/>
<feColorMatrix type="matrix" values="0 0 0 0 0.913725 0 0 0 0 0.364706 0 0 0 0 0.360784 0 0 0 0.37 0"/>
<feBlend mode="normal" in2="BackgroundImageFix" result="effect1_dropShadow_1108_405"/>
<feBlend mode="normal" in="SourceGraphic" in2="effect1_dropShadow_1108_405" result="shape"/>
</filter>
<filter id="filter3_d_1108_405" x="26" y="261" width="159" height="38" filterUnits="userSpaceOnUse" color-interpolation-filters="sRGB">
<feFlood flood-opacity="0" result="BackgroundImageFix"/>
<feColorMatrix in="SourceAlpha" type="matrix" values="0 0 0 0 0 0 0 0 0 0 0 0 0 0 0 0 0 0 127 0" result="hardAlpha"/>
<feOffset dy="4"/>
<feGaussianBlur stdDeviation="2"/>
<feComposite in2="hardAlpha" operator="out"/>
<feColorMatrix type="matrix" values="0 0 0 0 0.913725 0 0 0 0 0.364706 0 0 0 0 0.360784 0 0 0 0.37 0"/>
<feBlend mode="normal" in2="BackgroundImageFix" result="effect1_dropShadow_1108_405"/>
<feBlend mode="normal" in="SourceGraphic" in2="effect1_dropShadow_1108_405" result="shape"/>
</filter>
<linearGradient id="paint0_linear_1108_405" x1="106.288" y1="-25.2581" x2="127.797" y2="641.347" gradientUnits="userSpaceOnUse">
<stop stop-color="#FFD6A7"/>
<stop offset="0.49" stop-color="#FFCFB0"/>
<stop offset="1" stop-color="#FFB783"/>
</linearGradient>
</defs>
</svg>
