<svg width="253" height="557" viewBox="0 0 253 557" fill="none" xmlns="http://www.w3.org/2000/svg">
<path d="M186.521 85.3569L190.415 86.2845C210.129 90.9243 214.776 105.958 211.963 124.538C212.063 127.539 212.652 130.443 213.73 133.251C228.271 162.455 220.702 164.201 229.303 188.863C229.423 189.163 229.422 189.363 229.42 189.663C232.557 194.086 231.062 233.076 228.331 257.257C228.449 257.758 228.447 258.158 228.321 258.657C227.162 267.449 226.925 266.448 228.245 269.457C229.564 272.467 234.695 288.103 234.81 289.004C235.044 290.406 235.034 291.806 234.781 293.104C233.775 297.497 232.762 302.89 230.564 303.374C229.326 306.066 227.363 307.852 226.141 308.343C223.194 311.422 222.327 313.316 221.111 312.908C219.895 312.499 219.416 311.296 219.91 310.299C219.91 310.299 219.91 310.299 219.911 310.199C220.408 308.903 219.791 309.898 218.806 311.391C217.574 313.183 216.464 315.075 215.608 315.469C212.085 313.744 214.427 310.06 216.519 307.275C217.749 305.684 215.907 307.671 213.691 310.655C211.722 313.341 209.755 315.727 209.27 315.424C204.656 312.791 210.563 304.933 211.544 304.04C211.441 301.439 211.459 298.939 211.599 296.34C210.636 294.633 209.925 291.728 209.468 287.425C208.968 289.121 208.226 290.716 207.483 292.311C206.379 293.303 209.364 302.124 201.076 302.065C201.1 298.666 201.133 293.966 201.156 290.766C201.174 288.166 202.197 281.473 202.215 278.873C202.233 276.273 209.351 269.523 209.719 269.226C209.992 265.128 209.778 260.926 209.319 256.823C209.32 256.723 209.321 256.523 209.444 256.424C207.929 246.613 204.221 236.586 201.705 230.368C199.19 224.15 194.644 212.018 195.558 203.424C195.438 203.123 195.319 202.722 195.443 202.423C195.34 199.722 195.726 196.925 196.719 194.332C187.184 181.064 181.927 166.026 181.671 150.624C178.669 161.403 169.794 175.341 169.735 183.64C169.664 193.64 173.264 201.666 173.218 208.266C173.189 212.266 171.809 217.856 169.075 225.237C173.894 233.271 193.731 272.013 196.793 304.435C199.74 335.757 200.322 356.762 196.27 378.133C205.221 387.997 208.782 418.623 202.454 451.579C200.051 463.862 203.031 490.584 205.738 504.204C208.445 517.823 190.04 517.793 183.608 513.747C179.968 511.421 174.166 504.48 176.759 499.798C176.587 489.697 172.661 458.868 163.067 436.7C158.031 424.864 158.411 405.666 159.095 395.17C158.977 394.57 158.738 393.968 158.62 393.367C157.198 387.657 158.064 385.863 158.209 382.564C154.249 373.735 143.875 358.462 140.069 345.034C136.859 333.611 133.903 320.69 130.958 306.269L127.912 306.147C126.788 309.939 125.907 313.833 125.269 317.829C124.352 326.922 125.706 342.132 108.716 383.313C108.674 389.113 110.863 389.829 109.961 396.822C109.702 398.921 109.322 400.918 108.698 403.014C112.266 415.539 115.774 436.564 104.547 455.485C97.1443 468.133 92.8741 485.903 95.365 495.621C98.5021 500.144 96.9665 510.433 93.6572 513.01C87.6529 517.467 64.6371 514.404 67.5403 500.324C70.4436 486.245 70.5945 464.945 65.8374 448.211C61.5544 433.38 63.1424 415.691 67.0555 396.718C67.0605 396.018 67.0654 395.318 67.0711 394.518C67.0959 391.018 67.2405 387.819 67.5055 384.821C65.4859 377.407 62.8483 371.188 60.2115 347.669C58.8338 335.659 60.6111 325.671 60.3255 314.369C61.5606 277.676 69.7942 233.834 73.8781 225.162L74.1218 225.164C73.5415 221.06 73.2056 216.857 73.1127 212.757C73.1489 207.657 77.0052 196.684 78.2964 186.493C79.3253 178.9 74.0197 170.762 70.546 162.137C69.2506 172.928 62.7127 183.882 54.2396 192.722C63.3881 226.188 47.5607 240.776 42.9851 267.244C43.591 267.749 44.075 268.252 44.559 268.756C49.7604 274.393 50.5612 281.799 47.2065 290.775C48.8916 293.787 50.0984 295.496 50.8255 296.101C52.8876 297.515 54.6004 296.628 55.1779 301.132C53.3532 300.619 51.2854 300.004 49.4614 299.391C53.4673 301.72 54.6699 304.028 53.3142 306.119L47.969 303.581C49.3026 304.59 50.1466 305.896 50.3805 307.298C50.2487 308.697 49.7519 309.994 48.8902 311.187L43.9347 305.252L37.4238 295.206L41.1392 304.132C43.6789 306.95 45.0019 309.46 45.2315 311.462C45.4611 313.463 44.5994 314.657 42.4041 314.842C38.0502 310.011 35.39 306.992 34.422 305.985C31.8886 302.267 29.7216 298.451 27.9217 294.438C27.0847 292.132 26.8807 286.531 27.3108 277.434C27.2017 275.633 27.2151 273.733 27.4716 271.935C29.5338 256.149 19.3421 232.276 22.4424 207.597C22.9639 202.801 24.3387 198.011 26.4426 193.525C26.9592 189.429 29.9227 184.05 29.7037 180.548C27.767 144.234 38.201 151.108 37.7141 133.804C37.2273 116.5 35.968 104.991 44.072 96.6479C50.3349 90.0921 64.5005 86.3924 73.1579 85.9537C74.8721 84.8658 76.8287 83.9797 78.7845 83.1935C84.5287 81.0342 90.5153 79.0765 96.5004 77.3189C103.747 69.57 102.42 67.6606 102.517 53.9609C102.615 40.0613 145.231 46.5634 145.189 52.4632C145.15 57.9631 141.771 70.4395 150.262 76.2998" fill="url(#paint0_linear_1286_131)"/>
<path d="M217.477 294.68L218.756 303.289" stroke="#F29353" stroke-width="1.14" stroke-linecap="round"/>
<path d="M223.57 294.72L223.985 305.023L222.262 307.311" stroke="#F29353" stroke-width="1.14" stroke-linecap="round"/>
<path d="M230.653 291.776L230.339 301.774L227.992 306.157" stroke="#F29353" stroke-width="1.14" stroke-linecap="round"/>
<path d="M210.797 290.127L209.489 285.517L208.122 289.308" stroke="#F29353" stroke-width="1.14" stroke-linecap="round"/>
<path d="M210.974 265.931L209.605 269.822" stroke="#F29353" stroke-width="1.14" stroke-linecap="round"/>
<path d="M183.847 137.337C183.337 140.433 184.649 144.542 188.027 149.467" stroke="#EE8B48" stroke-width="1.14" stroke-linecap="round"/>
<path d="M203.504 184.374C201.046 187.157 199.196 190.244 198.075 193.536" stroke="#F29353" stroke-width="1.14" stroke-linecap="round"/>
<path d="M76.2562 389.576C74.508 395.464 75.3279 400.17 78.5933 403.793C81.8587 407.417 83.5205 413.728 83.3348 422.727" stroke="#F08944" stroke-width="1.14" stroke-linecap="round"/>
<path d="M101.249 389.152C103.15 396.065 102.627 401.062 99.5592 403.94" stroke="#F08944" stroke-width="1.14" stroke-linecap="round"/>
<path d="M76.3904 147.268C70.1962 144.124 67.4502 136.004 65.5007 135.89C63.5513 135.776 60.8351 140.657 56.9121 143.829" stroke="#EE8B48" stroke-width="1.14" stroke-linecap="round"/>
<path d="M67.4113 141.011C67.4949 146.412 66.1166 151.702 63.5223 156.584" stroke="#EE8B48" stroke-width="1.14" stroke-linecap="round"/>
<path d="M68.7578 139.617C73.4525 147.951 81.8456 150.41 96.35 150.513C110.854 150.616 121.833 149.393 122.753 140" stroke="#EE8B48" stroke-width="1.14" stroke-linecap="round"/>
<path d="M172.67 147.942C178.908 144.886 181.769 136.806 183.72 136.72C185.671 136.634 188.317 141.553 192.195 144.78" stroke="#EE8B48" stroke-width="1.14" stroke-linecap="round"/>
<path d="M180.409 140.398C175.597 148.664 167.17 151.005 152.666 150.902C138.161 150.799 127.201 149.421 126.414 140.016" stroke="#EE8B48" stroke-width="1.14" stroke-linecap="round"/>
<path d="M147 74.2734C147.468 77.0768 148.302 79.7828 149.501 82.4914" stroke="#F89451" stroke-width="1.14" stroke-linecap="round"/>
<path d="M99.8251 75.0407C99.6869 77.3398 99.1831 79.6363 98.4362 81.8311" stroke="#F89451" stroke-width="1.14" stroke-linecap="round"/>
<path d="M163.188 387.899C162.902 393.897 164.455 398.408 167.969 401.333C171.483 404.258 174.002 410.076 175.767 418.889" stroke="#F08944" stroke-width="1.14" stroke-linecap="round"/>
<path d="M188.038 389.071C189.084 396.179 187.953 400.971 184.522 403.647" stroke="#F08944" stroke-width="1.14" stroke-linecap="round"/>
<path fill-rule="evenodd" clip-rule="evenodd" d="M53.0044 542.925C54.4295 548.235 59.8888 551.874 68.1664 553.433C76.444 554.991 91.3175 554.597 95.9669 552.13C100.616 549.663 109.699 540.827 97.0008 526.636C100.597 517.962 106.25 511.502 96.6932 501.234C92.3741 508.703 78.9929 504.908 69.1428 501.638C66.832 500.922 61.8425 516.987 60.2034 524.676C54.5237 534.936 50.989 534.911 53.0044 542.925Z" fill="#C6C6C6"/>
<path fill-rule="evenodd" clip-rule="evenodd" d="M74.5106 499.681C78.3025 497.808 83.1765 498.043 86.6949 500.367C87.6657 500.974 89.2332 503.386 91.6752 502.803C95.46 501.93 95.117 498.727 96.4656 497.637C97.8141 496.546 101.534 504.873 98.0657 512.648C94.5976 520.424 101.705 532.375 101.705 532.375C101.705 532.375 105.135 547.099 92.4555 547.509C88.7975 547.684 88.9335 545.684 78.4478 546.11C72.1077 546.365 73.4264 549.475 63.9392 546.607C54.452 543.74 52.0603 537.223 53.912 533.936C55.887 530.45 59.586 524.476 61.7013 518.391C62.0159 508.393 64.2581 501.609 68.1839 498.036C68.2916 500.037 69.9895 501.249 70.8427 501.255C73.5235 501.374 73.5313 500.274 74.5106 499.681Z" fill="black"/>
<path fill-rule="evenodd" clip-rule="evenodd" d="M69.8054 509.641L85.0092 514.248L72.7774 520.262L85.7866 524.954L71.1547 525.651L85.3366 519.651L72.4501 514.859L86.8765 508.762L69.8054 509.641Z" stroke="white" stroke-width="1.07" stroke-linecap="round" stroke-linejoin="round"/>
<path fill-rule="evenodd" clip-rule="evenodd" d="M220.951 544.107C219.694 549.498 214.305 553.16 206.127 554.802C197.948 556.444 182.956 556.338 178.22 553.904C173.483 551.57 164.159 542.804 176.571 528.492C172.732 519.864 166.926 513.523 176.142 503.088C180.721 510.521 193.914 506.514 203.69 503.083C206.011 502.3 211.382 518.338 213.279 525.952C219.301 536.195 222.836 536.12 220.951 544.107Z" fill="#C6C6C6"/>
<path fill-rule="evenodd" clip-rule="evenodd" d="M198.335 501.143C194.448 499.315 189.569 499.681 186.14 502.057C185.16 502.75 183.681 505.039 181.246 504.522C177.474 503.695 178.838 500.305 177.505 499.295C176.171 498.286 171.479 506.753 175.081 514.479C178.805 522.205 172.016 534.257 172.016 534.257C172.016 534.257 168.986 549.036 181.783 549.227C185.44 549.253 185.331 547.352 195.69 547.625C202.027 547.77 200.786 550.962 210.315 547.929C219.844 544.897 221.841 538.311 219.913 535.097C217.866 531.582 214.007 525.655 211.612 519.638C210.952 509.633 208.562 502.816 204.564 499.387C204.428 501.386 202.834 502.675 202.103 502.67C199.42 502.851 199.306 501.75 198.335 501.143Z" fill="black"/>
<path fill-rule="evenodd" clip-rule="evenodd" d="M203.264 511.074L188.237 515.868L200.506 521.755L187.673 526.664L202.418 527.168L187.955 521.266L200.788 516.357L186.203 510.453L203.264 511.074Z" stroke="white" stroke-width="1.07" stroke-linecap="round" stroke-linejoin="round"/>
<g opacity="0.42" filter="url(#filter0_f_1286_131)">
<path fill-rule="evenodd" clip-rule="evenodd" d="M104.442 57.6535C104.765 63.656 106.241 79.0668 113.895 82.6211C121.549 86.1755 130.569 86.1394 135.225 82.7723C139.881 79.4052 144.472 67.8374 144.676 56.3386C145.95 48.5474 101.327 50.0313 104.442 57.6535Z" fill="#915D2E" fill-opacity="0.7"/>
</g>
<path fill-rule="evenodd" clip-rule="evenodd" d="M100.167 59.6225C100.607 66.3258 110.295 75.2947 114.298 78.0231C118.301 80.7515 128.776 81.8258 133.434 78.1587C138.092 74.4916 142.266 70.2211 143.259 67.728C144.252 65.235 147.338 59.7567 147.837 58.1602C150.971 63.0826 162.952 40.9669 152.458 42.4926C152.5 36.5927 153.333 22.1983 143.628 15.7293C133.922 9.26041 121.254 8.07062 107.932 13.0764C94.6106 18.0821 92.0964 28.8646 95.0415 43.2858C97.4757 43.803 85.9114 41.6211 90.3518 51.4528C93.3628 56.5742 93.3302 61.1741 100.167 59.6225Z" fill="#FFD4AB"/>
<path d="M122.461 77.5859L125.264 77.6058" stroke="#EA833E" stroke-width="1.14" stroke-linecap="round"/>
<path d="M153.89 46.0067C149.606 48.4764 147.399 50.3608 147.389 51.7608" stroke="#EA833E" stroke-width="1.14" stroke-linecap="round"/>
<path d="M150.697 49.3827L150.68 51.7826L147.362 55.5592" stroke="#EA833E" stroke-width="1.14" stroke-linecap="round"/>
<path d="M91.9609 47.1719C94.3944 47.7891 96.3332 49.4029 97.0504 51.408" stroke="#EA833E" stroke-width="1.14" stroke-linecap="round"/>
<path d="M94.3828 48.9922L94.9646 52.8964L97.9954 55.2179" stroke="#EA833E" stroke-width="1.14" stroke-linecap="round"/>
<path d="M149.306 44.5456C149.668 41.8246 150.517 39.9576 148.68 34.0447C146.412 29.0728 141.422 25.6206 141.823 19.6216C137.935 17.1217 129.564 21.8602 121.18 22.8159C112.797 23.7716 96.2464 20.0674 97.4824 31.0691C99.3234 39.2772 96.6816 39.827 97.5063 46.4797L94.4578 45.4758C92.0163 42.9727 87.2134 30.4743 90.2128 17.0389C93.2123 3.60356 128.294 -9.56699 144.628 13.9429C160.718 10.0674 152.726 41.5363 152.353 44.5495L149.306 44.5456Z" fill="black"/>
<path opacity="0.75" fill-rule="evenodd" clip-rule="evenodd" d="M168.888 225.489C152.063 234.538 81.4348 232.911 73.4724 225.273C68.3415 208.611 76.5213 198.599 77.2934 184.863C77.6577 178.383 72.4107 172.551 70.7797 162.881C69.3099 157.64 68.5879 153.201 68.6137 149.565C76.5493 142.677 80.5686 131.964 80.6717 117.424C80.8206 96.404 75.9844 91.242 73.1072 85.7081C72.4349 84.7006 75.9026 83.0477 79.7377 81.8096C84.1605 80.3819 88.8612 78.3194 89.4892 79.1378C89.4758 81.0276 98.5201 108.313 123.255 108.488C147.99 108.664 155.733 104.065 162.546 79.466C162.269 78.7566 165.542 79.3741 171.02 80.6154C176.497 81.8568 180.679 83.0324 179.583 83.5899C177.878 84.1585 177.203 88.2569 172.954 114.241C168.704 140.225 177.521 140.44 182.444 145.225C182.558 149.134 181.835 153.666 180.276 158.82C172.286 173.679 169.493 185.6 171.897 194.583C175.503 208.056 175.976 219.984 168.888 225.489Z" fill="#FFFAF9"/>
<path opacity="0.85" fill-rule="evenodd" clip-rule="evenodd" d="M126.454 320.836L127.632 311.343L130.705 311.326L131.84 320.875C156.276 321.12 173.483 320.078 183.461 317.749C191.347 315.908 196.344 310.923 198.451 302.795C193.194 278.572 188.276 261.096 183.696 250.368C179.223 239.891 172.138 225.248 169.09 225.226C123.77 235.288 81.708 228.81 73.8936 225.152C71.406 224.994 70.2985 231.988 68.6128 238.065C65.9971 247.496 60.2972 288.571 59.3895 305.104C59.3042 317.147 81.6591 322.391 126.454 320.836Z" fill="black"/>
<g filter="url(#filter1_d_1286_131)">
<path d="M207.761 96.1092C232.356 99.0813 247.817 103.357 247.825 108.092C247.838 116.966 193.551 124.091 126.571 124.006C59.5914 123.921 5.28227 116.658 5.2685 107.783C5.26145 103.235 19.5173 99.1462 42.4348 96.2521" stroke="#E95D5C" stroke-width="2" stroke-linecap="round"/>
</g>
<g filter="url(#filter2_d_1286_131)">
<path d="M172.18 177.064C186.518 180.023 195.533 184.291 195.541 189.026C195.555 197.9 163.915 205.054 124.871 205.004C85.8273 204.955 54.1651 197.72 54.1513 188.846C54.1443 184.297 62.4515 180.201 75.8086 177.295" stroke="#E95D5C" stroke-width="2" stroke-linecap="round"/>
</g>
<g filter="url(#filter3_d_1286_131)">
<path d="M188.824 262.091C207.241 265.056 218.819 269.327 218.826 274.061C218.84 282.936 178.196 290.078 128.045 290.014C77.894 289.95 37.2276 282.705 37.2138 273.83C37.2068 269.282 47.8791 265.189 65.0374 262.287" stroke="#E95D5C" stroke-width="2" stroke-linecap="round"/>
</g>
<defs>
<filter id="filter0_f_1286_131" x="100.289" y="47.1719" width="48.4141" height="42.1172" filterUnits="userSpaceOnUse" color-interpolation-filters="sRGB">
<feFlood flood-opacity="0" result="BackgroundImageFix"/>
<feBlend mode="normal" in="SourceGraphic" in2="BackgroundImageFix" result="shape"/>
<feGaussianBlur stdDeviation="2" result="effect1_foregroundBlur_1286_131"/>
</filter>
<filter id="filter1_d_1286_131" x="0.265625" y="95.1094" width="252.562" height="37.8984" filterUnits="userSpaceOnUse" color-interpolation-filters="sRGB">
<feFlood flood-opacity="0" result="BackgroundImageFix"/>
<feColorMatrix in="SourceAlpha" type="matrix" values="0 0 0 0 0 0 0 0 0 0 0 0 0 0 0 0 0 0 127 0" result="hardAlpha"/>
<feOffset dy="4"/>
<feGaussianBlur stdDeviation="2"/>
<feComposite in2="hardAlpha" operator="out"/>
<feColorMatrix type="matrix" values="0 0 0 0 0.913725 0 0 0 0 0.364706 0 0 0 0 0.360784 0 0 0 0.37 0"/>
<feBlend mode="normal" in2="BackgroundImageFix" result="effect1_dropShadow_1286_131"/>
<feBlend mode="normal" in="SourceGraphic" in2="effect1_dropShadow_1286_131" result="shape"/>
</filter>
<filter id="filter2_d_1286_131" x="49.1484" y="176.062" width="151.391" height="37.9453" filterUnits="userSpaceOnUse" color-interpolation-filters="sRGB">
<feFlood flood-opacity="0" result="BackgroundImageFix"/>
<feColorMatrix in="SourceAlpha" type="matrix" values="0 0 0 0 0 0 0 0 0 0 0 0 0 0 0 0 0 0 127 0" result="hardAlpha"/>
<feOffset dy="4"/>
<feGaussianBlur stdDeviation="2"/>
<feComposite in2="hardAlpha" operator="out"/>
<feColorMatrix type="matrix" values="0 0 0 0 0.913725 0 0 0 0 0.364706 0 0 0 0 0.360784 0 0 0 0.37 0"/>
<feBlend mode="normal" in2="BackgroundImageFix" result="effect1_dropShadow_1286_131"/>
<feBlend mode="normal" in="SourceGraphic" in2="effect1_dropShadow_1286_131" result="shape"/>
</filter>
<filter id="filter3_d_1286_131" x="32.2109" y="261.094" width="191.617" height="37.9219" filterUnits="userSpaceOnUse" color-interpolation-filters="sRGB">
<feFlood flood-opacity="0" result="BackgroundImageFix"/>
<feColorMatrix in="SourceAlpha" type="matrix" values="0 0 0 0 0 0 0 0 0 0 0 0 0 0 0 0 0 0 127 0" result="hardAlpha"/>
<feOffset dy="4"/>
<feGaussianBlur stdDeviation="2"/>
<feComposite in2="hardAlpha" operator="out"/>
<feColorMatrix type="matrix" values="0 0 0 0 0.913725 0 0 0 0 0.364706 0 0 0 0 0.360784 0 0 0 0.37 0"/>
<feBlend mode="normal" in2="BackgroundImageFix" result="effect1_dropShadow_1286_131"/>
<feBlend mode="normal" in="SourceGraphic" in2="effect1_dropShadow_1286_131" result="shape"/>
</filter>
<linearGradient id="paint0_linear_1286_131" x1="128.526" y1="-25.2223" x2="145.333" y2="641.687" gradientUnits="userSpaceOnUse">
<stop stop-color="#FFD6A7"/>
<stop offset="0.49" stop-color="#FFCFB0"/>
<stop offset="1" stop-color="#FFB783"/>
</linearGradient>
</defs>
</svg>
