<svg width="187" height="556" viewBox="0 0 187 556" fill="none" xmlns="http://www.w3.org/2000/svg">
<path d="M137.195 85.0022L140.028 85.9223C154.37 90.524 157.724 105.548 155.64 124.134C155.707 127.134 156.13 130.038 156.909 132.843C167.439 162.018 161.925 163.779 168.139 188.424C168.225 188.725 168.224 188.925 168.222 189.225C170.498 193.641 169.334 232.634 167.299 256.82C167.384 257.32 167.382 257.72 167.289 258.22C166.429 267.014 166.258 266.013 167.213 269.02C168.168 272.026 171.872 287.653 171.955 288.554C172.122 289.955 172.112 291.355 171.926 292.654C171.185 297.048 170.436 302.443 168.836 302.932C167.929 305.626 166.497 307.415 165.606 307.909C163.455 310.994 162.82 312.89 161.936 312.483C161.052 312.077 160.705 310.874 161.067 309.877C161.067 309.877 161.067 309.877 161.068 309.777C161.432 308.48 160.981 309.476 160.261 310.971C159.361 312.765 158.549 314.659 157.925 315.055C155.364 313.337 157.076 309.649 158.604 306.859C159.503 305.266 158.158 307.256 156.539 310.245C155.101 312.935 153.664 315.325 153.311 315.022C149.958 312.398 154.273 304.529 154.989 303.634C154.919 301.033 154.937 298.533 155.044 295.934C154.346 294.229 153.834 291.325 153.51 287.023C153.143 288.72 152.599 290.317 152.055 291.913C151.25 292.907 153.406 301.723 147.372 301.68C147.396 298.28 147.43 293.58 147.452 290.38C147.471 287.78 148.228 281.085 148.246 278.485C148.265 275.885 153.459 269.122 153.727 268.824C153.934 264.725 153.786 260.524 153.46 256.422C153.461 256.322 153.462 256.122 153.552 256.022C152.468 246.214 149.788 236.195 147.969 229.982C146.15 223.769 142.864 211.646 143.546 203.05C143.459 202.75 143.373 202.349 143.464 202.05C143.395 199.349 143.681 196.551 144.409 193.956C137.493 180.707 133.696 165.679 133.539 150.278C131.333 161.063 124.845 175.017 124.786 183.317C124.716 193.317 127.321 201.335 127.274 207.935C127.246 211.935 126.23 217.528 124.226 224.914C127.718 232.939 142.084 271.642 144.25 304.058C146.335 335.373 146.719 356.377 143.728 377.756C150.224 387.602 152.758 418.221 148.088 451.189C146.315 463.476 148.432 490.192 150.377 503.806C152.321 517.42 138.923 517.425 134.249 513.392C131.603 511.073 127.393 504.143 129.29 499.457C129.184 489.356 126.386 458.535 119.444 436.385C115.801 424.559 116.115 405.361 116.633 394.864C116.548 394.264 116.375 393.662 116.291 393.062C115.266 387.354 115.9 385.559 116.012 382.26C113.147 373.439 105.624 358.185 102.88 344.766C100.565 333.349 98.4383 320.434 96.3223 306.018L94.1048 305.902C93.2794 309.697 92.6307 313.592 92.1587 317.589C91.4732 326.684 92.4302 341.892 79.9823 383.104C79.9412 388.904 81.5333 389.616 80.8626 396.611C80.6703 398.71 80.3899 400.708 79.9314 402.804C82.5046 415.323 85.0175 436.341 76.809 455.284C71.3955 467.946 68.2527 485.724 70.0472 495.437C72.3222 499.953 71.1845 510.245 68.7705 512.828C64.3911 517.297 47.6427 514.279 49.7833 500.193C51.9238 486.108 52.0748 464.809 48.6441 448.084C45.5549 433.262 46.745 415.57 49.6301 396.59C49.635 395.89 49.64 395.19 49.6456 394.39C49.6704 390.89 49.7818 387.691 49.9805 384.692C48.5247 377.281 46.6166 371.068 44.7425 347.554C43.7628 335.547 45.0758 325.556 44.8897 314.254C45.8595 277.56 51.9377 233.702 54.9272 225.023L55.1047 225.024C54.6901 220.921 54.4537 216.719 54.394 212.619C54.4301 207.519 57.2585 196.539 58.218 186.345C58.9817 178.75 55.1352 170.623 52.6231 162.005C51.6593 172.798 46.879 183.765 40.6939 192.621C47.2891 226.069 35.7394 240.687 32.3576 267.164C32.7977 267.667 33.149 268.17 33.5004 268.672C37.2759 274.299 37.8445 281.703 35.3852 290.686C36.6061 293.695 37.4813 295.401 38.0094 296.005C39.5078 297.415 40.7563 296.524 41.168 301.027C39.8407 300.518 38.3366 299.907 37.01 299.298C39.9216 301.618 40.7926 303.925 39.8017 306.018L35.9156 303.49C36.8845 304.497 37.4963 305.801 37.6638 307.203C37.5652 308.602 37.2011 309.899 36.5715 311.095L32.9756 305.169L28.2553 295.136L30.9427 304.055C32.7861 306.868 33.7444 309.375 33.9076 311.376C34.0709 313.377 33.4414 314.573 31.8429 314.762C28.6828 309.939 26.7521 306.925 26.0494 305.92C24.2124 302.207 22.6423 298.396 21.3397 294.387C20.735 292.082 20.5972 286.481 20.9278 277.383C20.8519 275.583 20.8653 273.683 21.0555 271.884C22.5871 256.095 15.2141 232.242 17.5185 207.557C17.9074 202.76 18.9174 197.967 20.4576 193.478C20.8415 189.38 23.0092 183.996 22.8565 180.495C21.5167 144.184 29.0988 151.038 28.7778 133.735C28.4567 116.433 27.5623 104.926 33.4776 96.5677C38.0493 89.9999 48.3683 86.2729 54.6713 85.8176C55.9213 84.7264 57.3472 83.8365 58.7725 83.0465C62.9582 80.8761 67.3198 78.907 71.6801 77.1378C76.9701 69.3751 76.0076 67.4683 76.1047 53.7686C76.2032 39.869 107.213 46.2888 107.171 52.1887C107.132 57.6885 104.648 70.1713 110.818 76.0151" fill="url(#paint0_linear_1286_188)"/>
<path d="M159.328 294.266L160.243 302.872" stroke="#F29353" stroke-width="1.14" stroke-linecap="round"/>
<path d="M163.77 294.295L164.052 304.598L162.794 306.889" stroke="#F29353" stroke-width="1.14" stroke-linecap="round"/>
<path d="M168.934 291.341L168.685 301.34L166.968 305.728" stroke="#F29353" stroke-width="1.14" stroke-linecap="round"/>
<path d="M154.482 289.731L153.538 285.124L152.536 288.917" stroke="#F29353" stroke-width="1.14" stroke-linecap="round"/>
<path d="M154.656 265.538L153.652 269.431" stroke="#F29353" stroke-width="1.14" stroke-linecap="round"/>
<path d="M135.157 136.993C134.78 140.09 135.727 144.197 138.176 149.114" stroke="#EE8B48" stroke-width="1.14" stroke-linecap="round"/>
<path d="M149.373 183.989C147.578 186.776 146.225 189.866 145.404 193.161" stroke="#F29353" stroke-width="1.14" stroke-linecap="round"/>
<path d="M56.351 389.434C55.067 395.325 55.6548 400.029 58.0248 403.646C60.3949 407.263 61.5924 413.572 61.4399 422.571" stroke="#F08944" stroke-width="1.14" stroke-linecap="round"/>
<path d="M74.544 388.961C75.9148 395.871 75.5244 400.869 73.2858 403.753" stroke="#F08944" stroke-width="1.14" stroke-linecap="round"/>
<path d="M56.9206 147.136C52.4176 144.004 50.4343 135.89 49.0154 135.78C47.5965 135.67 45.6099 140.556 42.748 143.736" stroke="#EE8B48" stroke-width="1.14" stroke-linecap="round"/>
<path d="M50.3911 140.902C50.4416 146.303 49.428 151.596 47.5301 156.482" stroke="#EE8B48" stroke-width="1.14" stroke-linecap="round"/>
<path d="M51.3828 139.5C54.7843 147.824 60.8893 150.268 71.4475 150.342C82.0058 150.417 90.0002 149.174 90.6879 139.778" stroke="#EE8B48" stroke-width="1.14" stroke-linecap="round"/>
<path d="M127.006 147.622C131.553 144.554 133.651 136.468 135.071 136.378C136.491 136.288 138.409 141.202 141.225 144.422" stroke="#EE8B48" stroke-width="1.14" stroke-linecap="round"/>
<path d="M132.657 140.06C129.138 148.335 122.999 150.692 112.44 150.617C101.882 150.542 93.906 149.185 93.3516 139.781" stroke="#EE8B48" stroke-width="1.14" stroke-linecap="round"/>
<path d="M108.461 74C108.796 76.8024 109.398 79.5068 110.266 82.213" stroke="#F89451" stroke-width="1.14" stroke-linecap="round"/>
<path d="M74.1166 74.8663C74.0116 77.1656 73.6404 79.463 73.0924 81.6592" stroke="#F89451" stroke-width="1.14" stroke-linecap="round"/>
<path d="M119.643 387.594C119.423 393.592 120.544 398.101 123.097 401.019C125.649 403.937 127.471 409.75 128.74 418.559" stroke="#F08944" stroke-width="1.14" stroke-linecap="round"/>
<path d="M137.719 388.721C138.467 395.826 137.634 400.62 135.131 403.303" stroke="#F08944" stroke-width="1.14" stroke-linecap="round"/>
<path fill-rule="evenodd" clip-rule="evenodd" d="M39.1383 542.838C40.1655 548.145 44.1326 551.774 50.1552 553.316C56.1779 554.859 67.0059 554.436 70.3951 551.96C73.7844 549.484 80.4131 540.63 71.1969 526.465C73.8315 517.783 77.9589 511.312 71.0219 501.063C67.8634 508.541 58.1299 504.772 50.9659 501.521C49.2851 500.809 45.622 516.883 44.414 524.575C40.2597 534.846 37.6867 534.827 39.1383 542.838Z" fill="#C6C6C6"/>
<path fill-rule="evenodd" clip-rule="evenodd" d="M54.8744 499.555C57.6383 497.674 61.1859 497.9 63.7426 500.218C64.4481 500.823 65.5846 503.231 67.3633 502.643C70.1202 501.763 69.8766 498.561 70.8604 497.468C71.8442 496.375 74.5358 504.694 71.9963 512.477C69.4567 520.259 74.6072 532.196 74.6072 532.196C74.6072 532.196 77.076 546.913 67.8451 547.348C65.182 547.529 65.2849 545.53 57.651 545.976C53.0352 546.243 53.9892 549.35 47.0885 546.501C40.1878 543.652 38.4594 537.14 39.8136 533.849C41.258 530.359 43.9623 524.378 45.5138 518.289C45.7621 508.291 47.4073 501.502 50.272 497.922C50.3466 499.923 51.5802 501.132 52.2013 501.136C54.1525 501.25 54.1603 500.15 54.8744 499.555Z" fill="black"/>
<path fill-rule="evenodd" clip-rule="evenodd" d="M51.4226 509.523L62.4813 514.102L53.5656 520.139L63.0266 524.806L52.3739 525.531L62.7092 519.504L53.3377 514.737L63.8512 508.611L51.4226 509.523Z" stroke="white" stroke-width="1.07" stroke-linecap="round" stroke-linejoin="round"/>
<path fill-rule="evenodd" clip-rule="evenodd" d="M161.386 543.689C160.461 549.082 156.531 552.755 150.574 554.412C144.617 556.07 133.704 555.993 130.261 553.568C126.817 551.244 120.047 542.496 129.11 528.16C126.332 519.54 122.118 513.21 128.847 502.757C132.166 510.181 141.777 506.149 148.9 502.699C150.591 501.911 154.47 517.939 155.836 525.549C160.2 535.78 162.774 535.698 161.386 543.689Z" fill="#C6C6C6"/>
<path fill-rule="evenodd" clip-rule="evenodd" d="M145.004 500.772C142.178 498.952 138.626 499.327 136.125 501.709C135.41 502.404 134.329 504.696 132.558 504.184C129.813 503.364 130.813 499.971 129.844 498.964C128.875 497.958 125.444 506.433 128.051 514.152C130.747 521.871 125.781 533.937 125.781 533.937C125.781 533.937 123.547 548.721 132.862 548.887C135.524 548.906 135.449 547.005 142.989 547.259C147.602 547.391 146.692 550.585 153.635 547.534C160.577 544.483 162.043 537.894 160.646 534.684C159.163 531.173 156.366 525.253 154.634 519.241C154.172 509.237 152.446 502.425 149.542 499.004C149.439 501.003 148.276 502.295 147.744 502.291C145.791 502.478 145.71 501.377 145.004 500.772Z" fill="black"/>
<path fill-rule="evenodd" clip-rule="evenodd" d="M148.566 510.69L137.618 515.512L146.539 521.375L137.187 526.309L147.92 526.785L137.403 520.911L146.754 515.977L136.148 510.102L148.566 510.69Z" stroke="white" stroke-width="1.07" stroke-linecap="round" stroke-linejoin="round"/>
<g opacity="0.42" filter="url(#filter0_f_1286_188)">
<path fill-rule="evenodd" clip-rule="evenodd" d="M77.5078 57.4579C77.7315 63.4596 78.7758 78.8674 84.3406 82.4069C89.9055 85.9465 96.4718 85.893 99.8675 82.517C103.263 79.1409 106.628 67.5645 106.798 56.0654C107.741 48.2719 75.2548 49.8418 77.5078 57.4579Z" fill="#915D2E" fill-opacity="0.7"/>
</g>
<path fill-rule="evenodd" clip-rule="evenodd" d="M74.3819 59.4452C74.6894 66.1475 81.7243 75.0976 84.6331 77.8183C87.5419 80.539 95.1651 81.593 98.5629 77.917C101.961 74.241 105.008 69.9625 105.735 67.4675C106.463 64.9726 108.72 59.4885 109.086 57.891C111.358 62.8073 120.122 40.6688 112.48 42.2147C112.522 36.3148 113.156 21.919 106.104 15.4689C99.051 9.01872 89.8314 7.85337 80.1243 12.8847C70.4172 17.9161 68.5662 28.7032 70.6823 43.1186C72.4532 43.6311 64.0392 41.4715 67.2526 51.2945C69.4346 56.4101 69.402 61.01 74.3819 59.4452Z" fill="#FFD4AB"/>
<path d="M90.5859 77.3594L92.6266 77.3738" stroke="#EA833E" stroke-width="1.14" stroke-linecap="round"/>
<path d="M113.523 45.7208C110.4 48.1988 108.789 50.0874 108.779 51.4874" stroke="#EA833E" stroke-width="1.14" stroke-linecap="round"/>
<path d="M111.192 49.1029L111.175 51.5028L108.753 55.2858" stroke="#EA833E" stroke-width="1.14" stroke-linecap="round"/>
<path d="M68.4375 47.0078C70.2077 47.6204 71.616 49.2304 72.1342 51.2341" stroke="#EA833E" stroke-width="1.14" stroke-linecap="round"/>
<path d="M70.2031 48.8203L70.6191 52.7234L72.8209 55.039" stroke="#EA833E" stroke-width="1.14" stroke-linecap="round"/>
<path d="M110.187 44.2729C110.457 41.5512 111.078 39.6826 109.752 33.7734C108.111 28.8059 104.485 25.3634 104.788 19.3637C101.963 16.8713 95.8605 21.6259 89.7556 22.5978C83.6507 23.5696 71.6102 19.8973 72.4887 30.8965C73.8131 39.1009 71.8889 39.6558 72.4765 46.3069L70.2592 45.3089C68.4868 42.8105 65.0146 30.3215 67.2239 16.8805C69.4333 3.43957 94.9964 -9.79842 106.841 13.6797C118.561 9.77322 112.683 41.2571 112.406 44.2709L110.187 44.2729Z" fill="black"/>
<path opacity="0.75" fill-rule="evenodd" clip-rule="evenodd" d="M124.111 225.17C111.845 234.251 60.4346 232.76 54.6531 225.138C50.9501 208.486 56.9239 198.458 57.5125 184.721C57.7902 178.24 53.9818 172.419 52.8132 162.752C51.7534 157.513 51.2363 153.076 51.2621 149.44C57.0521 142.537 59.9986 131.816 60.1017 117.277C60.2506 96.2562 56.74 91.1036 54.6562 85.5753C54.1688 84.5692 56.6963 82.9095 59.4904 81.6641C62.7128 80.2279 66.1386 78.1564 66.5942 78.9736C66.5808 80.8633 73.112 108.131 91.1173 108.259C109.123 108.386 114.768 103.773 119.775 79.1609C119.575 78.4521 121.957 79.0632 125.942 80.294C129.926 81.5248 132.969 82.6923 132.17 83.2519C130.927 83.8238 130.428 87.9235 127.285 113.915C124.141 139.907 130.559 140.105 134.133 144.881C134.209 148.79 133.674 153.323 132.529 158.479C126.684 173.354 124.628 185.28 126.36 194.258C128.959 207.724 129.281 219.651 124.111 225.17Z" fill="#FFFAF9"/>
<path opacity="0.85" fill-rule="evenodd" clip-rule="evenodd" d="M93.0462 320.598L93.9215 311.102L96.159 311.079L96.9663 320.625C114.754 320.824 127.282 319.749 134.55 317.4C140.294 315.544 143.941 310.55 145.491 302.417C141.711 278.205 138.164 260.739 134.851 250.02C131.615 239.551 126.485 224.922 124.267 224.907C91.2567 235.055 60.6504 228.659 54.9691 225.016C53.1585 224.863 52.3388 231.858 51.1 237.939C49.1778 247.374 44.9493 288.461 44.2567 304.995C44.1714 317.037 60.4345 322.238 93.0462 320.598Z" fill="black"/>
<g filter="url(#filter1_d_1286_188)">
<path d="M152.667 95.7267C170.565 98.6513 181.812 102.897 181.808 107.632C181.801 116.506 142.269 123.736 93.5115 123.78C44.7537 123.824 5.23338 116.665 5.24047 107.791C5.2441 103.243 15.6295 99.1265 32.3179 96.1883" stroke="#E95D5C" stroke-width="2" stroke-linecap="round"/>
</g>
<g filter="url(#filter2_d_1286_188)">
<path d="M126.611 176.743C137.043 179.674 143.598 183.925 143.594 188.659C143.587 197.533 120.541 204.748 92.1193 204.774C63.6976 204.799 40.6631 197.626 40.6702 188.752C40.6738 184.204 46.729 180.091 56.4578 177.159" stroke="#E95D5C" stroke-width="2" stroke-linecap="round"/>
</g>
<g filter="url(#filter3_d_1286_188)">
<path d="M138.565 261.744C151.966 264.673 160.386 268.922 160.382 273.656C160.375 282.531 130.774 289.751 94.2672 289.784C57.76 289.817 28.1709 282.65 28.178 273.775C28.1816 269.227 35.9584 265.113 48.4543 262.179" stroke="#E95D5C" stroke-width="2" stroke-linecap="round"/>
</g>
<defs>
<filter id="filter0_f_1286_188" x="73.3984" y="46.9297" width="37.4219" height="42.125" filterUnits="userSpaceOnUse" color-interpolation-filters="sRGB">
<feFlood flood-opacity="0" result="BackgroundImageFix"/>
<feBlend mode="normal" in="SourceGraphic" in2="BackgroundImageFix" result="shape"/>
<feGaussianBlur stdDeviation="2" result="effect1_foregroundBlur_1286_188"/>
</filter>
<filter id="filter1_d_1286_188" x="0.242188" y="94.7266" width="186.562" height="38.0547" filterUnits="userSpaceOnUse" color-interpolation-filters="sRGB">
<feFlood flood-opacity="0" result="BackgroundImageFix"/>
<feColorMatrix in="SourceAlpha" type="matrix" values="0 0 0 0 0 0 0 0 0 0 0 0 0 0 0 0 0 0 127 0" result="hardAlpha"/>
<feOffset dy="4"/>
<feGaussianBlur stdDeviation="2"/>
<feComposite in2="hardAlpha" operator="out"/>
<feColorMatrix type="matrix" values="0 0 0 0 0.913725 0 0 0 0 0.364706 0 0 0 0 0.360784 0 0 0 0.37 0"/>
<feBlend mode="normal" in2="BackgroundImageFix" result="effect1_dropShadow_1286_188"/>
<feBlend mode="normal" in="SourceGraphic" in2="effect1_dropShadow_1286_188" result="shape"/>
</filter>
<filter id="filter2_d_1286_188" x="35.6719" y="175.742" width="112.922" height="38.0312" filterUnits="userSpaceOnUse" color-interpolation-filters="sRGB">
<feFlood flood-opacity="0" result="BackgroundImageFix"/>
<feColorMatrix in="SourceAlpha" type="matrix" values="0 0 0 0 0 0 0 0 0 0 0 0 0 0 0 0 0 0 127 0" result="hardAlpha"/>
<feOffset dy="4"/>
<feGaussianBlur stdDeviation="2"/>
<feComposite in2="hardAlpha" operator="out"/>
<feColorMatrix type="matrix" values="0 0 0 0 0.913725 0 0 0 0 0.364706 0 0 0 0 0.360784 0 0 0 0.37 0"/>
<feBlend mode="normal" in2="BackgroundImageFix" result="effect1_dropShadow_1286_188"/>
<feBlend mode="normal" in="SourceGraphic" in2="effect1_dropShadow_1286_188" result="shape"/>
</filter>
<filter id="filter3_d_1286_188" x="23.1797" y="260.742" width="142.203" height="38.0391" filterUnits="userSpaceOnUse" color-interpolation-filters="sRGB">
<feFlood flood-opacity="0" result="BackgroundImageFix"/>
<feColorMatrix in="SourceAlpha" type="matrix" values="0 0 0 0 0 0 0 0 0 0 0 0 0 0 0 0 0 0 127 0" result="hardAlpha"/>
<feOffset dy="4"/>
<feGaussianBlur stdDeviation="2"/>
<feComposite in2="hardAlpha" operator="out"/>
<feColorMatrix type="matrix" values="0 0 0 0 0.913725 0 0 0 0 0.364706 0 0 0 0 0.360784 0 0 0 0.37 0"/>
<feBlend mode="normal" in2="BackgroundImageFix" result="effect1_dropShadow_1286_188"/>
<feBlend mode="normal" in="SourceGraphic" in2="effect1_dropShadow_1286_188" result="shape"/>
</filter>
<linearGradient id="paint0_linear_1286_188" x1="95.1904" y1="-25.4636" x2="120.022" y2="640.887" gradientUnits="userSpaceOnUse">
<stop stop-color="#FFD6A7"/>
<stop offset="0.49" stop-color="#FFCFB0"/>
<stop offset="1" stop-color="#FFB783"/>
</linearGradient>
</defs>
</svg>
