<svg width="210" height="556" viewBox="0 0 210 556" fill="none" xmlns="http://www.w3.org/2000/svg">
<path d="M153.979 85.1173L157.172 86.04C173.34 90.6546 177.133 105.682 174.802 124.266C174.88 127.266 175.36 130.17 176.24 132.976C188.134 162.161 181.921 163.917 188.946 188.568C189.044 188.868 189.043 189.068 189.041 189.368C191.61 193.787 190.333 232.779 188.062 256.963C188.158 257.464 188.155 257.864 188.052 258.363C187.09 267.156 186.897 266.155 187.975 269.163C189.054 272.171 193.244 287.801 193.337 288.701C193.527 290.103 193.517 291.503 193.308 292.801C192.477 297.195 191.639 302.59 189.835 303.077C188.816 305.77 187.203 307.558 186.2 308.051C183.778 311.134 183.064 313.029 182.067 312.622C181.07 312.215 180.679 311.012 181.086 310.015C181.086 310.015 181.086 310.015 181.087 309.915C181.496 308.618 180.989 309.614 180.178 311.109C179.165 312.902 178.252 314.795 177.549 315.19C174.661 313.47 176.587 309.783 178.307 306.995C179.318 305.402 177.804 307.392 175.983 310.379C174.364 313.067 172.747 315.456 172.349 315.153C168.568 312.526 173.424 304.661 174.23 303.766C174.148 301.166 174.166 298.666 174.284 296.066C173.497 294.361 172.917 291.457 172.548 287.154C172.136 288.851 171.524 290.447 170.913 292.042C170.006 293.036 172.443 301.854 165.644 301.805C165.668 298.405 165.701 293.706 165.724 290.506C165.742 287.906 166.59 281.212 166.608 278.612C166.626 276.012 172.474 269.253 172.776 268.955C173.006 264.857 172.835 260.655 172.464 256.553C172.465 256.453 172.467 256.253 172.567 256.153C171.337 246.344 168.308 236.323 166.252 230.108C164.196 223.893 160.481 211.767 161.242 203.172C161.144 202.871 161.047 202.47 161.149 202.171C161.069 199.47 161.388 196.673 162.207 194.078C154.4 180.823 150.107 165.792 149.916 150.39C147.44 161.173 140.141 175.122 140.082 183.421C140.011 193.421 142.954 201.442 142.907 208.042C142.879 212.042 141.739 217.634 139.487 225.018C143.43 233.046 159.656 271.762 162.127 304.181C164.505 335.498 164.956 356.502 161.604 377.879C168.935 387.731 171.818 418.352 166.584 451.316C164.597 463.602 167.008 490.32 169.212 503.936C171.415 517.552 156.315 517.545 151.043 513.507C148.06 511.186 143.309 504.252 145.442 499.567C145.313 489.466 142.132 458.643 134.289 436.487C130.172 424.657 130.508 405.459 131.083 394.963C130.987 394.362 130.791 393.761 130.695 393.16C129.536 387.452 130.249 385.657 130.372 382.358C127.134 373.534 118.642 358.274 115.537 344.851C112.918 333.433 110.51 320.515 108.112 306.098L105.612 305.98C104.686 309.774 103.958 313.669 103.43 317.665C102.665 326.76 103.757 341.968 89.7652 383.17C89.7241 388.97 91.5191 389.682 90.7695 396.677C90.5546 398.776 90.2405 400.774 89.7256 402.87C92.637 415.391 95.4881 436.412 86.2537 455.347C80.1639 468.004 76.6379 485.779 78.6691 495.494C81.2371 500.012 79.9642 510.304 77.2458 512.884C72.3141 517.35 53.4351 514.316 55.8349 500.232C58.2348 486.149 58.3857 464.85 54.5041 448.122C51.0091 433.297 52.3344 415.605 55.569 396.628C55.5739 395.928 55.5789 395.228 55.5846 394.428C55.6094 390.928 55.732 387.729 55.9533 384.73C54.3058 377.318 52.1497 371.103 50.0163 347.587C48.9014 335.579 50.3722 325.589 50.1522 314.287C51.2122 277.594 58.0231 233.741 61.3847 225.065L61.5847 225.066C61.1137 220.963 60.8435 216.761 60.7726 212.66C60.8087 207.56 63.9865 196.583 65.0588 186.39C65.9126 178.796 61.5701 170.665 58.7311 162.044C57.6546 172.837 52.2768 183.799 45.3139 192.65C52.7771 226.104 39.7733 240.712 35.9856 267.186C36.4821 267.689 36.8785 268.192 37.2749 268.695C41.5352 274.325 42.1827 281.73 39.419 290.711C40.7977 293.721 41.7857 295.428 42.3814 296.032C44.0714 297.444 45.4778 296.554 45.9459 301.057C44.4495 300.547 42.7537 299.935 41.258 299.324C44.5417 301.647 45.5253 303.954 44.4105 306.047L40.0283 303.515C41.1212 304.523 41.812 305.828 42.002 307.23C41.8921 308.629 41.4829 309.926 40.7744 311.121L36.7163 305.192L31.3873 295.154L34.4242 304.076C36.5043 306.891 37.5866 309.398 37.7724 311.4C37.9582 313.401 37.2497 314.596 35.4484 314.783C31.8825 309.958 29.7038 306.942 28.9109 305.937C26.8371 302.222 25.0641 298.409 23.5925 294.399C22.9088 292.094 22.7485 286.493 23.113 277.395C23.0257 275.594 23.0392 273.694 23.2519 271.896C24.9638 256.108 16.6327 232.248 19.2076 207.566C19.6416 202.768 20.7756 197.976 22.5074 193.489C22.9365 189.391 25.3747 184.009 25.1995 180.507C23.6567 144.195 32.2083 151.056 31.8309 133.753C31.4535 116.45 30.435 104.943 37.0943 96.5895C42.241 90.0258 53.8676 86.3081 60.971 85.8584C62.3787 84.7683 63.9851 83.8797 65.5907 83.091C70.3062 80.9244 75.2202 78.9592 80.1328 77.1939C86.088 69.4359 85.0015 67.5282 85.0985 53.8285C85.197 39.9289 120.152 46.3767 120.11 52.2765C120.071 57.7764 117.283 70.257 124.242 76.1064" fill="url(#paint0_linear_1286_245)"/>
<path d="M179.102 294.398L180.141 303.006" stroke="#F29353" stroke-width="1.14" stroke-linecap="round"/>
<path d="M184.102 294.437L184.429 304.739L183.012 307.029" stroke="#F29353" stroke-width="1.14" stroke-linecap="round"/>
<path d="M189.92 291.476L189.649 301.474L187.718 305.861" stroke="#F29353" stroke-width="1.14" stroke-linecap="round"/>
<path d="M173.628 289.858L172.561 285.25L171.434 289.042" stroke="#F29353" stroke-width="1.14" stroke-linecap="round"/>
<path d="M173.803 265.664L172.675 269.556" stroke="#F29353" stroke-width="1.14" stroke-linecap="round"/>
<path d="M151.712 137.102C151.29 140.199 152.361 144.307 155.127 149.227" stroke="#EE8B48" stroke-width="1.14" stroke-linecap="round"/>
<path d="M167.783 184.117C165.763 186.903 164.241 189.992 163.318 193.286" stroke="#F29353" stroke-width="1.14" stroke-linecap="round"/>
<path d="M63.1256 389.482C61.6838 395.371 62.3505 400.076 65.0249 403.695C67.6994 407.314 69.0547 413.624 68.8909 422.623" stroke="#F08944" stroke-width="1.14" stroke-linecap="round"/>
<path d="M83.6281 389.025C85.1792 395.936 84.7437 400.933 82.2233 403.815" stroke="#F08944" stroke-width="1.14" stroke-linecap="round"/>
<path d="M63.5367 147.172C58.4588 144.036 56.2163 135.92 54.617 135.809C53.0177 135.698 50.7831 140.582 47.5605 143.759" stroke="#EE8B48" stroke-width="1.14" stroke-linecap="round"/>
<path d="M56.178 140.92C56.2398 146.321 55.1023 151.613 52.9676 156.498" stroke="#EE8B48" stroke-width="1.14" stroke-linecap="round"/>
<path d="M57.2891 139.531C61.1302 147.859 68.013 150.308 79.9127 150.392C91.8124 150.476 100.821 149.24 101.588 139.845" stroke="#EE8B48" stroke-width="1.14" stroke-linecap="round"/>
<path d="M142.537 147.731C147.659 144.667 150.016 136.584 151.617 136.495C153.218 136.406 155.383 141.322 158.56 144.544" stroke="#EE8B48" stroke-width="1.14" stroke-linecap="round"/>
<path d="M148.893 140.181C144.934 148.453 138.017 150.804 126.117 150.72C114.218 150.636 105.227 149.272 104.594 139.867" stroke="#EE8B48" stroke-width="1.14" stroke-linecap="round"/>
<path d="M121.562 74.0859C121.943 76.8887 122.624 79.5936 123.604 82.3006" stroke="#F89451" stroke-width="1.14" stroke-linecap="round"/>
<path d="M82.8578 74.914C82.7415 77.2133 82.3252 79.5104 81.7096 81.7061" stroke="#F89451" stroke-width="1.14" stroke-linecap="round"/>
<path d="M134.442 387.688C134.199 393.686 135.467 398.195 138.347 401.116C141.226 404.036 143.285 409.851 144.723 418.661" stroke="#F08944" stroke-width="1.14" stroke-linecap="round"/>
<path d="M154.831 388.832C155.681 395.939 154.747 400.732 151.928 403.412" stroke="#F08944" stroke-width="1.14" stroke-linecap="round"/>
<path fill-rule="evenodd" clip-rule="evenodd" d="M43.8422 542.846C45.0046 548.155 49.479 551.786 56.2682 553.334C63.0574 554.883 75.2606 554.469 79.0782 551.996C82.8958 549.523 90.3587 540.676 79.9589 526.502C82.9204 517.822 87.5664 511.355 79.7388 501.099C76.1858 508.574 65.2123 504.797 57.1352 501.539C55.2402 500.826 51.1262 516.897 49.7717 524.588C45.0988 534.855 42.1989 534.834 43.8422 542.846Z" fill="#C6C6C6"/>
<path fill-rule="evenodd" clip-rule="evenodd" d="M61.5433 499.576C64.6567 497.698 68.6552 497.927 71.5388 500.247C72.3346 500.853 73.6175 503.262 75.6217 502.676C78.728 501.798 78.4507 498.596 79.5585 497.504C80.6662 496.412 83.7073 504.734 80.8522 512.514C77.997 520.294 83.8125 532.235 83.8125 532.235C83.8125 532.235 86.6083 546.955 76.205 547.381C73.2036 547.56 73.3178 545.561 64.7145 546C59.5125 546.263 60.5905 549.371 52.8105 546.516C45.0306 543.661 43.0767 537.147 44.6 533.857C46.2248 530.369 49.2672 524.39 51.0104 518.302C51.2812 508.304 53.1294 501.517 56.3548 497.94C56.4406 499.94 57.8321 501.15 58.5321 501.155C60.7313 501.271 60.7391 500.171 61.5433 499.576Z" fill="black"/>
<path fill-rule="evenodd" clip-rule="evenodd" d="M57.6726 509.547L70.1404 514.135L60.0974 520.164L70.7646 524.84L58.7592 525.555L70.4021 519.537L59.8357 514.762L71.6793 508.646L57.6726 509.547Z" stroke="white" stroke-width="1.07" stroke-linecap="round" stroke-linejoin="round"/>
<path fill-rule="evenodd" clip-rule="evenodd" d="M181.634 543.823C180.596 549.216 176.17 552.885 169.458 554.537C162.746 556.19 150.447 556.103 146.564 553.675C142.68 551.348 135.042 542.593 145.244 528.265C142.105 519.643 137.349 513.309 144.924 502.862C148.671 510.289 159.5 506.266 167.524 502.822C169.43 502.036 173.817 518.067 175.363 525.679C180.29 535.914 183.191 535.834 181.634 543.823Z" fill="#C6C6C6"/>
<path fill-rule="evenodd" clip-rule="evenodd" d="M163.139 500.891C159.951 499.068 155.949 499.44 153.132 501.82C152.327 502.514 151.111 504.806 149.114 504.291C146.02 503.47 147.144 500.077 146.051 499.07C144.958 498.062 141.098 506.535 144.043 514.256C147.089 521.978 141.503 534.038 141.503 534.038C141.503 534.038 138.998 548.821 149.497 548.995C152.497 549.017 152.411 547.116 160.909 547.376C166.108 547.513 165.086 550.706 172.907 547.661C180.729 544.616 182.376 538.028 180.799 534.817C179.123 531.305 175.965 525.382 174.008 519.368C173.479 509.364 171.527 502.55 168.251 499.127C168.137 501.126 166.828 502.417 166.228 502.413C164.026 502.597 163.934 501.496 163.139 500.891Z" fill="black"/>
<path fill-rule="evenodd" clip-rule="evenodd" d="M167.168 510.818L154.834 515.631L164.892 521.502L154.357 526.428L166.454 526.913L154.595 521.029L165.13 516.104L153.172 510.219L167.168 510.818Z" stroke="white" stroke-width="1.07" stroke-linecap="round" stroke-linejoin="round"/>
<g opacity="0.42" filter="url(#filter0_f_1286_245)">
<path fill-rule="evenodd" clip-rule="evenodd" d="M86.6711 57.5361C86.9286 63.5381 88.1195 78.9469 94.3945 82.4915C100.67 86.036 108.07 85.9885 111.894 82.6155C115.718 79.2425 119.5 67.669 119.682 56.17C120.737 48.3773 84.1251 49.9179 86.6711 57.5361Z" fill="#915D2E" fill-opacity="0.7"/>
</g>
<path fill-rule="evenodd" clip-rule="evenodd" d="M83.1581 59.5149C83.5106 66.2175 91.4474 75.174 94.7281 77.8973C98.0089 80.6206 106.602 81.6815 110.428 78.0085C114.254 74.3355 117.684 70.0597 118.502 67.5655C119.32 65.0712 121.859 59.5891 122.27 57.9919C124.835 62.9102 134.692 40.7795 126.081 42.3185C126.123 36.4187 126.825 22.0233 118.87 15.5668C110.916 9.11026 100.524 7.93661 89.5881 12.9592C78.6522 17.9819 76.5758 28.7675 78.9737 43.1848C80.9701 43.699 71.4852 41.5317 75.1157 51.3577C77.5795 56.4753 77.5469 61.0751 83.1581 59.5149Z" fill="#FFD4AB"/>
<path d="M101.43 77.4453L103.73 77.4616" stroke="#EA833E" stroke-width="1.14" stroke-linecap="round"/>
<path d="M127.253 45.8266C123.735 48.3018 121.922 50.189 121.912 51.5889" stroke="#EA833E" stroke-width="1.14" stroke-linecap="round"/>
<path d="M124.63 49.2066L124.613 51.6066L121.886 55.3873" stroke="#EA833E" stroke-width="1.14" stroke-linecap="round"/>
<path d="M76.4453 47.0703C78.441 47.6845 80.0296 49.2958 80.6154 51.3" stroke="#EA833E" stroke-width="1.14" stroke-linecap="round"/>
<path d="M78.4297 48.8828L78.902 52.7863L81.3857 55.1039" stroke="#EA833E" stroke-width="1.14" stroke-linecap="round"/>
<path d="M123.492 44.3672C123.793 41.6457 124.492 39.7777 122.992 33.8672C121.138 28.8982 117.048 25.4524 117.384 19.453C114.198 16.958 107.324 21.7071 100.445 22.6735C93.5649 23.6399 79.9914 19.9567 80.9914 30.9567C82.4914 39.1624 80.3233 39.7156 80.9915 46.3672L78.4917 45.3672C76.4918 42.8672 72.5672 30.375 75.0451 16.936C77.5231 3.49689 106.322 -9.71817 119.693 13.7707C132.898 9.8748 126.302 41.3536 125.992 44.3672H123.492Z" fill="black"/>
<path opacity="0.75" fill-rule="evenodd" clip-rule="evenodd" d="M139.332 225.283C125.516 234.353 67.5733 232.816 61.0505 225.188C56.8621 208.533 63.5858 198.51 64.2368 184.774C64.5439 178.293 60.2465 172.468 58.9207 162.8C57.7215 157.561 57.1348 153.123 57.1605 149.487C63.68 142.589 66.9912 131.87 67.0942 117.331C67.2431 96.3108 63.2819 91.155 60.9284 85.6248C60.3781 84.6182 63.2253 82.9609 66.3733 81.718C70.0037 80.2846 73.8629 78.2162 74.3771 79.0338C74.3637 80.9235 81.7492 108.197 102.042 108.341C122.335 108.485 128.694 103.876 134.315 79.269C134.089 78.56 136.773 79.1732 141.265 80.4076C145.758 81.642 149.187 82.8123 148.287 83.3712C146.887 83.9419 146.329 88.0412 142.809 114.03C139.29 140.02 146.523 140.223 150.556 145.002C150.644 148.911 150.046 153.444 148.76 158.599C142.186 173.469 139.879 185.394 141.84 194.373C144.782 207.842 145.155 219.769 139.332 225.283Z" fill="#FFFAF9"/>
<path opacity="0.85" fill-rule="evenodd" clip-rule="evenodd" d="M104.392 320.681L105.37 311.185L107.891 311.165L108.81 320.712C128.858 320.926 142.976 319.863 151.166 317.521C157.638 315.67 161.744 310.679 163.483 302.547C159.201 278.332 155.188 260.863 151.444 250.14C147.787 239.668 141.993 225.035 139.493 225.017C102.298 235.136 67.7973 228.712 61.3909 225.064C59.3501 224.909 58.4326 231.904 57.0419 237.984C54.8839 247.417 50.1553 288.5 49.3895 305.034C49.3042 317.076 67.6382 322.292 104.392 320.681Z" fill="black"/>
<g filter="url(#filter1_d_1286_245)">
<path d="M171.396 95.8672C191.571 98.8079 204.25 103.064 204.25 107.799C204.25 116.673 159.702 123.867 104.75 123.867C49.7977 123.867 5.25 116.673 5.25 107.799C5.25 103.251 16.9511 99.1437 35.7571 96.2204" stroke="#E95D5C" stroke-width="2" stroke-linecap="round"/>
</g>
<g filter="url(#filter2_d_1286_245)">
<path d="M142.099 176.867C153.859 179.808 161.25 184.064 161.25 188.799C161.25 197.673 135.283 204.867 103.25 204.867C71.2175 204.867 45.25 197.673 45.25 188.799C45.25 184.251 52.0707 180.144 63.033 177.22" stroke="#E95D5C" stroke-width="2" stroke-linecap="round"/>
</g>
<g filter="url(#filter3_d_1286_245)">
<path d="M155.651 261.867C170.756 264.808 180.25 269.064 180.25 273.799C180.25 282.673 146.895 289.867 105.75 289.867C64.6048 289.867 31.25 282.673 31.25 273.799C31.25 269.251 40.0111 265.144 54.092 262.22" stroke="#E95D5C" stroke-width="2" stroke-linecap="round"/>
</g>
<defs>
<filter id="filter0_f_1286_245" x="82.5469" y="47.0234" width="41.1562" height="42.125" filterUnits="userSpaceOnUse" color-interpolation-filters="sRGB">
<feFlood flood-opacity="0" result="BackgroundImageFix"/>
<feBlend mode="normal" in="SourceGraphic" in2="BackgroundImageFix" result="shape"/>
<feGaussianBlur stdDeviation="2" result="effect1_foregroundBlur_1286_245"/>
</filter>
<filter id="filter1_d_1286_245" x="0.25" y="94.8672" width="209" height="38" filterUnits="userSpaceOnUse" color-interpolation-filters="sRGB">
<feFlood flood-opacity="0" result="BackgroundImageFix"/>
<feColorMatrix in="SourceAlpha" type="matrix" values="0 0 0 0 0 0 0 0 0 0 0 0 0 0 0 0 0 0 127 0" result="hardAlpha"/>
<feOffset dy="4"/>
<feGaussianBlur stdDeviation="2"/>
<feComposite in2="hardAlpha" operator="out"/>
<feColorMatrix type="matrix" values="0 0 0 0 0.913725 0 0 0 0 0.364706 0 0 0 0 0.360784 0 0 0 0.37 0"/>
<feBlend mode="normal" in2="BackgroundImageFix" result="effect1_dropShadow_1286_245"/>
<feBlend mode="normal" in="SourceGraphic" in2="effect1_dropShadow_1286_245" result="shape"/>
</filter>
<filter id="filter2_d_1286_245" x="40.25" y="175.867" width="126" height="38" filterUnits="userSpaceOnUse" color-interpolation-filters="sRGB">
<feFlood flood-opacity="0" result="BackgroundImageFix"/>
<feColorMatrix in="SourceAlpha" type="matrix" values="0 0 0 0 0 0 0 0 0 0 0 0 0 0 0 0 0 0 127 0" result="hardAlpha"/>
<feOffset dy="4"/>
<feGaussianBlur stdDeviation="2"/>
<feComposite in2="hardAlpha" operator="out"/>
<feColorMatrix type="matrix" values="0 0 0 0 0.913725 0 0 0 0 0.364706 0 0 0 0 0.360784 0 0 0 0.37 0"/>
<feBlend mode="normal" in2="BackgroundImageFix" result="effect1_dropShadow_1286_245"/>
<feBlend mode="normal" in="SourceGraphic" in2="effect1_dropShadow_1286_245" result="shape"/>
</filter>
<filter id="filter3_d_1286_245" x="26.25" y="260.867" width="159" height="38" filterUnits="userSpaceOnUse" color-interpolation-filters="sRGB">
<feFlood flood-opacity="0" result="BackgroundImageFix"/>
<feColorMatrix in="SourceAlpha" type="matrix" values="0 0 0 0 0 0 0 0 0 0 0 0 0 0 0 0 0 0 127 0" result="hardAlpha"/>
<feOffset dy="4"/>
<feGaussianBlur stdDeviation="2"/>
<feComposite in2="hardAlpha" operator="out"/>
<feColorMatrix type="matrix" values="0 0 0 0 0.913725 0 0 0 0 0.364706 0 0 0 0 0.360784 0 0 0 0.37 0"/>
<feBlend mode="normal" in2="BackgroundImageFix" result="effect1_dropShadow_1286_245"/>
<feBlend mode="normal" in="SourceGraphic" in2="effect1_dropShadow_1286_245" result="shape"/>
</filter>
<linearGradient id="paint0_linear_1286_245" x1="106.538" y1="-25.3871" x2="128.047" y2="641.218" gradientUnits="userSpaceOnUse">
<stop stop-color="#FFD6A7"/>
<stop offset="0.49" stop-color="#FFCFB0"/>
<stop offset="1" stop-color="#FFB783"/>
</linearGradient>
</defs>
</svg>
