<svg width="30" height="30" viewBox="0 0 30 30" fill="none" xmlns="http://www.w3.org/2000/svg">
<g clip-path="url(#clip0_1108_698)">
<path d="M2.5 11.2425C2.49934 10.2578 2.69294 9.28256 3.06971 8.37274C3.44648 7.46292 3.99902 6.63636 4.69569 5.94039C5.39236 5.24442 6.21947 4.69271 7.12967 4.31685C8.03986 3.94099 9.01526 3.74837 10 3.75001H20C24.1413 3.75001 27.5 7.11876 27.5 11.2425V26.25H10C5.85875 26.25 2.5 22.8813 2.5 18.7575V11.2425ZM25 23.75V11.2425C24.9967 9.91814 24.4686 8.64906 23.5314 7.71328C22.5943 6.77751 21.3244 6.25133 20 6.25001H10C9.34356 6.24836 8.69325 6.37632 8.08637 6.62654C7.47949 6.87676 6.92798 7.24433 6.46345 7.70815C5.99893 8.17198 5.63054 8.72294 5.37941 9.32945C5.12827 9.93595 4.99934 10.5861 5 11.2425V18.7575C5.00331 20.0819 5.53139 21.351 6.46857 22.2867C7.40576 23.2225 8.67562 23.7487 10 23.75H25ZM17.5 13.75H20V16.25H17.5V13.75ZM10 13.75H12.5V16.25H10V13.75Z" fill="white"/>
</g>
<defs>
<clipPath id="clip0_1108_698">
<rect width="30" height="30" fill="white"/>
</clipPath>
</defs>
</svg>
