<svg width="32" height="32" viewBox="0 0 32 32" fill="none" xmlns="http://www.w3.org/2000/svg">
<g clip-path="url(#clip0_1108_703)">
<path d="M4.45244 22.6664C3.8888 21.6917 3.45066 20.6497 3.14844 19.5651C3.80618 19.2306 4.35856 18.7206 4.74448 18.0916C5.13039 17.4626 5.33479 16.7392 5.33507 16.0012C5.33534 15.2633 5.13148 14.5397 4.74604 13.9104C4.3606 13.2812 3.8086 12.7708 3.1511 12.4358C3.75382 10.2564 4.90141 8.26637 6.48577 6.6531C7.10456 7.0554 7.8226 7.27865 8.56041 7.29814C9.29822 7.31763 10.027 7.13261 10.6662 6.76354C11.3054 6.39447 11.83 5.85576 12.1819 5.20702C12.5339 4.55827 12.6995 3.8248 12.6604 3.08776C14.8499 2.52193 17.1474 2.52284 19.3364 3.09043C19.2977 3.82745 19.4636 4.56082 19.8159 5.20937C20.1681 5.85793 20.6929 6.3964 21.3322 6.76518C21.9715 7.13396 22.7004 7.31868 23.4381 7.2989C24.1759 7.27912 24.8938 7.05561 25.5124 6.6531C26.2844 7.43976 26.9698 8.33443 27.5458 9.3331C28.1231 10.3318 28.5551 11.3731 28.8498 12.4344C28.192 12.769 27.6396 13.2789 27.2537 13.9079C26.8678 14.5369 26.6634 15.2604 26.6631 15.9983C26.6629 16.7362 26.8667 17.4598 27.2522 18.0891C27.6376 18.7184 28.1896 19.2287 28.8471 19.5638C28.2444 21.7431 27.0968 23.7332 25.5124 25.3464C24.8936 24.9441 24.1756 24.7209 23.4378 24.7014C22.7 24.6819 21.9712 24.8669 21.332 25.236C20.6928 25.6051 20.1682 26.1438 19.8163 26.7925C19.4643 27.4413 19.2987 28.1747 19.3378 28.9118C17.1483 29.4776 14.8508 29.4767 12.6618 28.9091C12.7005 28.1721 12.5346 27.4387 12.1823 26.7902C11.8301 26.1416 11.3053 25.6031 10.666 25.2344C10.0267 24.8656 9.29784 24.6808 8.56007 24.7006C7.8223 24.7204 7.10439 24.9439 6.48577 25.3464C5.69776 24.5424 5.01456 23.6419 4.45244 22.6664ZM11.9991 22.9278C13.4199 23.7473 14.4882 25.0625 14.9991 26.6211C15.6644 26.6838 16.3324 26.6851 16.9978 26.6224C17.509 25.0636 18.5778 23.7484 19.9991 22.9291C21.4194 22.1073 23.0931 21.8391 24.6991 22.1758C25.0858 21.6318 25.4191 21.0518 25.6964 20.4451C24.6023 19.223 23.9979 17.64 23.9991 15.9998C23.9991 14.3198 24.6258 12.7504 25.6964 11.5544C25.4171 10.948 25.0824 10.3686 24.6964 9.82376C23.0915 10.1602 21.4188 9.8924 19.9991 9.07176C18.5783 8.25226 17.51 6.93707 16.9991 5.37843C16.3338 5.31576 15.6658 5.31443 15.0004 5.3771C14.4892 6.93596 13.4204 8.25118 11.9991 9.07043C10.5788 9.89218 8.90507 10.1605 7.2991 9.82376C6.91319 10.3681 6.57928 10.9476 6.30177 11.5544C7.39586 12.7765 8.00028 14.3595 7.9991 15.9998C7.9991 17.6798 7.37244 19.2491 6.30177 20.4451C6.58107 21.0516 6.91582 21.6309 7.30177 22.1758C8.90673 21.8394 10.5794 22.1071 11.9991 22.9278ZM15.9991 19.9998C14.9382 19.9998 13.9208 19.5783 13.1707 18.8282C12.4205 18.078 11.9991 17.0606 11.9991 15.9998C11.9991 14.9389 12.4205 13.9215 13.1707 13.1713C13.9208 12.4212 14.9382 11.9998 15.9991 11.9998C17.06 11.9998 18.0774 12.4212 18.8275 13.1713C19.5777 13.9215 19.9991 14.9389 19.9991 15.9998C19.9991 17.0606 19.5777 18.078 18.8275 18.8282C18.0774 19.5783 17.06 19.9998 15.9991 19.9998ZM15.9991 17.3331C16.3527 17.3331 16.6919 17.1926 16.9419 16.9426C17.192 16.6925 17.3324 16.3534 17.3324 15.9998C17.3324 15.6461 17.192 15.307 16.9419 15.057C16.6919 14.8069 16.3527 14.6664 15.9991 14.6664C15.6455 14.6664 15.3063 14.8069 15.0563 15.057C14.8062 15.307 14.6658 15.6461 14.6658 15.9998C14.6658 16.3534 14.8062 16.6925 15.0563 16.9426C15.3063 17.1926 15.6455 17.3331 15.9991 17.3331Z" fill="white"/>
</g>
<defs>
<clipPath id="clip0_1108_703">
<rect width="32" height="32" fill="white"/>
</clipPath>
</defs>
</svg>
