<svg width="130" height="130" viewBox="0 0 130 130" fill="none" xmlns="http://www.w3.org/2000/svg">
<g clip-path="url(#clip0_1111_621)">
<path d="M24.4688 85.7568L65.0023 91.4697L105.536 85.7568C104.023 81.0178 101.99 75.5727 99.2623 69.3721C96.406 62.8805 94.8382 56.2606 94.5592 49.5752L89.7581 39.8633L97.2348 30.5322C99.2383 24.4152 101.64 20.7299 101.667 20.6891V20.6889C102.93 18.7905 101.57 16.25 99.2891 16.25H30.7154C28.435 16.25 27.074 18.7907 28.3377 20.6891C28.451 20.8595 37.2711 34.4398 35.1126 53.3838L38.3421 59.0967L32.5222 64.8096C32.0079 66.3117 31.4194 67.8328 30.7423 69.3721C28.014 75.5727 25.981 81.0178 24.4688 85.7568Z" fill="#FFDDCE"/>
<path d="M99.2598 69.3721C96.4038 62.8805 94.836 56.2606 94.557 49.5752L89.7559 39.8633L97.2325 30.5322C99.236 24.4152 101.638 20.7299 101.665 20.6891V20.6889C102.928 18.7905 101.567 16.25 99.2869 16.25H65V91.4697L105.534 85.7568C104.021 81.0178 101.988 75.5727 99.2598 69.3721Z" fill="#FFCBBC"/>
<path d="M53.5777 59.0957C53.5777 55.9405 51.0201 53.3828 47.8648 53.3828H35.1139C34.7002 57.0134 33.8823 60.8406 32.5234 64.8086H47.8648C51.0201 64.8086 53.5777 62.2509 53.5777 59.0957Z" fill="#FF5E95"/>
<path d="M65.0049 33.3848C66.5825 33.3848 67.8613 32.1059 67.8613 30.5283C67.8613 28.9507 66.5825 27.6719 65.0049 27.6719C63.4273 27.6719 62.1484 28.9507 62.1484 30.5283C62.1484 32.1059 63.4273 33.3848 65.0049 33.3848Z" fill="#FF5E95"/>
<path d="M65 27.6719V33.3848C66.5775 33.3848 67.8564 32.1058 67.8564 30.5283C67.8564 28.9508 66.5775 27.6719 65 27.6719Z" fill="#FF0059"/>
<path d="M65.0049 61.9551C66.5825 61.9551 67.8613 60.6762 67.8613 59.0986C67.8613 57.5211 66.5825 56.2422 65.0049 56.2422C63.4273 56.2422 62.1484 57.5211 62.1484 59.0986C62.1484 60.6762 63.4273 61.9551 65.0049 61.9551Z" fill="#FF5E95"/>
<path d="M65 56.2422V61.9551C66.5775 61.9551 67.8564 60.6762 67.8564 59.0986C67.8564 57.5211 66.5775 56.2422 65 56.2422Z" fill="#FF0059"/>
<path d="M78.333 71.4785C79.9106 71.4785 81.1895 70.1996 81.1895 68.6221C81.1895 67.0445 79.9106 65.7656 78.333 65.7656C76.7554 65.7656 75.4766 67.0445 75.4766 68.6221C75.4766 70.1996 76.7554 71.4785 78.333 71.4785Z" fill="#FF0059"/>
<path d="M55.4814 77.1816C57.059 77.1816 58.3379 75.9028 58.3379 74.3252C58.3379 72.7476 57.059 71.4688 55.4814 71.4688C53.9039 71.4688 52.625 72.7476 52.625 74.3252C52.625 75.9028 53.9039 77.1816 55.4814 77.1816Z" fill="#FF5E95"/>
<path d="M53.5752 42.9082C55.1528 42.9082 56.4316 41.6293 56.4316 40.0518C56.4316 38.4742 55.1528 37.1953 53.5752 37.1953C51.9976 37.1953 50.7188 38.4742 50.7188 40.0518C50.7188 41.6293 51.9976 42.9082 53.5752 42.9082Z" fill="#FF5E95"/>
<path d="M83.0947 34.3398C81.2965 36.7374 78.4745 38.1484 75.4775 38.1484H74.5254C71.3704 38.1484 68.8125 40.7061 68.8125 43.8613C68.8125 47.0166 71.3702 49.5742 74.5254 49.5742H94.5609C94.3592 44.7404 94.8298 39.8724 95.9809 34.994C96.3587 33.393 96.7878 31.9018 97.2366 30.5312H90.7119C87.7149 30.5312 84.893 31.9423 83.0947 34.3398Z" fill="#FF0059"/>
<path d="M24.4669 85.7578C18.8879 103.24 20.4197 111.081 20.5067 111.489V111.49C20.7874 112.808 21.9521 113.751 23.3003 113.751H106.7C108.049 113.751 109.213 112.808 109.494 111.489C109.581 111.081 111.113 103.24 105.534 85.7578H24.4669Z" fill="#007A9F"/>
<path d="M105.534 85.7578H65V113.751H106.7C108.049 113.751 109.213 112.808 109.494 111.489C109.581 111.081 111.112 103.24 105.534 85.7578Z" fill="#00465F"/>
</g>
<defs>
<clipPath id="clip0_1111_621">
<rect width="97.5" height="97.5" fill="white" transform="translate(16.25 16.25)"/>
</clipPath>
</defs>
</svg>
