<svg width="130" height="130" viewBox="0 0 130 130" fill="none" xmlns="http://www.w3.org/2000/svg">
<g clip-path="url(#clip0_1111_607)">
<path d="M109.99 78.8915C109.99 98.0347 91.0198 113.553 64.9744 113.553C38.9301 113.553 19.9594 98.0358 19.9594 78.8915C19.9594 73.2312 17.2026 63.4962 22.9358 63.1683C30.5291 62.7344 46.6305 62.7344 64.9733 62.7344C83.4898 62.7344 99.9041 62.7344 107.229 63.4865C112.804 64.0587 109.99 73.3576 109.99 78.8915Z" fill="#FF889C"/>
<path d="M40.7437 60.6751C31.8058 58.0726 22.6441 60.5605 22.2583 60.6665C20.9758 61.0233 20.2248 62.3508 20.5805 63.6344C20.9373 64.9169 22.2658 65.6701 23.5483 65.3122C23.6287 65.2897 31.7608 63.0804 39.3969 65.3037C39.6219 65.3701 39.8491 65.4001 40.0719 65.4001C41.1166 65.4001 42.0787 64.7154 42.3851 63.6622C42.7569 62.3851 42.0219 61.0469 40.7437 60.6751Z" fill="#50BE9F"/>
<path d="M108.281 60.6746C99.3402 58.0731 90.1795 60.5599 89.796 60.6671C88.5145 61.0228 87.7645 62.3492 88.1192 63.6317C88.4727 64.9131 89.7992 65.6631 91.0827 65.3139C91.1642 65.2903 99.3424 63.096 106.935 65.3053C107.16 65.3706 107.387 65.4017 107.61 65.4017C108.654 65.4017 109.616 64.7171 109.923 63.6639C110.295 62.3846 109.56 61.0464 108.281 60.6746Z" fill="#50BE9F"/>
<path d="M99.0122 34.5139C98.7861 28.471 96.4226 25.0007 92.8086 22.4978C89.1701 20.0432 84.024 18.8935 78.9218 18.9064C74.1925 18.8925 69.5415 19.89 66.3968 21.3043L65.1368 21.8625L63.8779 21.3043C61.3568 20.1557 57.8383 19.3125 54.1022 19.0093L47.6597 19.095C43.8572 19.5246 40.2315 20.6335 37.464 22.5075C33.8479 24.9996 31.4843 28.4764 31.2636 34.5053C31.2508 34.9907 31.2422 35.4364 31.2422 35.8382C31.3097 44.3635 33.2672 47.4321 35.6329 51.735C38.0747 55.9607 40.8743 61.3682 40.7961 71.3657C40.7961 82.9778 42.7622 89.7975 44.9018 93.3996C47.0833 97.02 47.8118 97.5642 50.1883 97.5642C52.6911 97.5642 53.559 95.0325 53.6683 93.6953C54.1504 88.7807 53.3115 81.0942 55.7372 72.8978C56.4347 70.6264 57.2833 67.7903 58.9847 65.2275C61.2754 61.771 67.4683 59.0657 71.2911 65.2275C72.9111 67.8439 73.8411 70.6264 74.5311 72.8978C76.3911 79.1421 76.9311 85.6682 76.4961 90.6525C75.8854 97.5878 79.9493 97.5642 80.0822 97.5642C82.2465 97.5642 83.185 97.02 85.3547 93.3996C87.5051 89.7975 89.4743 82.9767 89.469 71.3657C89.3993 61.3425 92.2022 55.9607 94.6483 51.7264C97.015 47.431 98.9479 44.3635 99.0251 35.8382C99.0261 35.4246 99.0186 34.9832 99.0122 34.5139Z" fill="#F4F2E8"/>
<path d="M101.422 34.7218L101.416 34.4271C101.184 28.1979 98.8835 23.7793 94.1521 20.5029C90.326 17.9207 84.9463 16.5 79.0074 16.5H78.8221C74.0542 16.5 69.0367 17.4761 65.4142 19.1057L65.1324 19.2311L64.8731 19.1143C62.0392 17.8221 58.2817 16.9329 54.2928 16.6104C54.2178 16.6039 54.1385 16.6039 54.0667 16.6029L47.6242 16.6886C47.5438 16.6896 47.4646 16.695 47.3853 16.7036C42.9496 17.205 39.0506 18.5229 36.0924 20.5264C31.3803 23.7739 29.0788 28.1893 28.8506 34.4475C28.8367 34.9554 28.8281 35.4225 28.8281 35.8618C28.8967 44.5479 30.866 48.1093 33.1481 52.2332L33.5424 52.9468C36.0303 57.2518 38.4528 62.2189 38.3831 71.3711C38.3831 84.4168 40.7992 91.2236 42.8349 94.65C45.0688 98.3571 46.4392 99.9814 50.186 99.9814C53.7196 99.9814 55.8206 96.9225 56.0649 93.9364C56.2171 92.3861 56.2449 90.6032 56.276 88.7153C56.3446 84.4071 56.4313 79.0468 58.0396 73.6114L58.0888 73.4507C58.7617 71.2596 59.5235 68.7782 60.9924 66.5646C61.8474 65.2736 63.6688 63.9686 65.4935 63.9686C66.9356 63.9686 68.1967 64.8214 69.2403 66.5025C70.6642 68.8018 71.516 71.2757 72.2199 73.5921C73.8399 79.0296 74.5406 85.3318 74.0938 90.4468C73.796 93.8282 74.4313 96.4029 75.986 98.1C77.5846 99.8454 79.5228 99.9814 80.0778 99.9814H80.081C83.6253 99.9814 85.2088 98.3357 87.4235 94.6425C89.4592 91.2311 91.8849 84.4264 91.8785 71.3561C91.8142 62.2286 94.2421 57.2529 96.7588 52.8964L97.0942 52.2911C99.3806 48.1618 101.356 44.5939 101.436 35.8446C101.432 35.4889 101.427 35.115 101.422 34.7218ZM92.8738 49.9532L92.5578 50.5254C89.8567 55.1989 86.9831 61.0511 87.0549 71.3721C87.0603 83.9571 84.6935 89.805 83.2835 92.1653C81.5049 95.1343 81.1674 95.1589 80.1056 95.1589C80.0306 95.1503 79.7563 95.1 79.5046 94.8043C79.2442 94.4957 78.6624 93.4961 78.8938 90.8668C79.3985 85.0918 78.6485 78.2936 76.8335 72.2014C76.0696 69.6857 75.056 66.7404 73.3353 63.9611C71.4078 60.8561 68.6231 59.1461 65.4903 59.1461C61.781 59.1461 58.5388 61.5343 56.9713 63.8989C55.1167 66.6932 54.2071 69.6546 53.4763 72.0343L53.4196 72.2186C51.6174 78.3096 51.5253 84.0353 51.4524 88.6371C51.4224 90.5003 51.3967 92.1107 51.2606 93.5025C51.2596 93.5196 51.0699 95.1589 50.1838 95.1589C48.9035 95.1589 48.7696 95.1589 46.9706 92.1739C45.5638 89.805 43.2024 83.9518 43.2024 71.3904C43.2828 61.0457 40.4124 55.2011 37.7403 50.5789L37.3653 49.8996C35.2417 46.0607 33.7063 43.2868 33.6485 35.8436C33.6485 35.4611 33.6571 35.0357 33.6678 34.5986C33.8403 29.8918 35.3831 26.8714 38.8106 24.5089C41.0853 22.9682 44.1935 21.9321 47.8085 21.5089L54.0131 21.4264C57.3688 21.7082 60.5928 22.4636 62.8942 23.5125L64.0749 24.0364L72.6378 28.5793C72.9978 28.77 73.3846 28.8611 73.766 28.8611C74.6296 28.8611 75.4653 28.395 75.8971 27.5796C76.5217 26.4032 76.0738 24.9439 74.8974 24.3204L71.0488 22.2771C73.4724 21.6718 76.211 21.3214 78.8221 21.3214H79.0074C83.9231 21.3214 88.4606 22.4807 91.4317 24.4832C94.8774 26.8693 96.4224 29.8971 96.5971 34.5504L96.6003 34.7904C96.6056 35.16 96.611 35.5114 96.611 35.8221C96.5424 43.3264 95.0038 46.1057 92.8738 49.9532Z" fill="#3B6A75"/>
<path d="M81.7153 50.5138C81.2578 49.1295 78.1175 41.3284 65.2678 40.6031C53.9771 39.9774 49.3271 48.4631 48.425 53.1174C39.1914 90.1267 51.2814 102.381 51.8 102.885C52.7482 103.803 54.2471 103.778 55.1771 102.843C56.1082 101.908 56.1018 100.387 55.1771 99.4449C55.0828 99.3484 46.851 90.5413 50.9439 64.7981C51.0168 64.6492 51.08 64.4927 51.1228 64.3256C51.2225 63.9281 53.6471 54.6099 61.4214 55.1692C62.7457 55.2656 63.9039 54.267 63.9993 52.9384C64.0946 51.6099 63.096 50.4559 61.7685 50.3606C58.4953 50.1195 55.805 51.0249 53.6214 52.4884C54.6157 49.8688 57.485 44.9959 64.9935 45.4181C75.1721 45.9924 77.0578 51.7695 77.1221 51.9806C77.15 52.0845 77.1875 52.1884 77.2293 52.2881C77.2378 52.3074 77.3171 52.5034 77.4425 52.842C75.1378 51.4363 72.2503 50.5588 68.6921 50.7892C67.3635 50.877 66.3575 52.0245 66.4453 53.3542C66.5332 54.6827 67.6614 55.6888 69.0103 55.6009C77.4532 55.0331 79.7953 63.2606 79.8928 63.6152C79.9539 63.8402 80.0493 64.0459 80.166 64.2367C81.4218 73.2088 81.366 86.2813 74.9182 100.139C74.3568 101.347 74.8796 102.78 76.0871 103.342C76.416 103.495 76.7621 103.568 77.1028 103.568C78.0114 103.568 78.8803 103.051 79.2896 102.173C91.5928 75.7352 82.5585 52.5538 81.7153 50.5138Z" fill="#50BE9F"/>
<path d="M88.8914 42.256C88.7039 42.256 88.5143 42.2313 88.3257 42.1799C87.1846 41.867 86.5118 40.6895 86.8246 39.5474C88.8614 32.0935 83.9178 30.076 83.3478 29.8702C82.2432 29.4717 81.6539 28.2535 82.0407 27.1445C82.4264 26.0345 83.6221 25.4399 84.7385 25.816C87.9946 26.9142 93.4857 31.4345 90.9582 40.6777C90.6968 41.6302 89.8332 42.256 88.8914 42.256Z" fill="white"/>
</g>
<defs>
<clipPath id="clip0_1111_607">
<rect width="97.5" height="97.5" fill="white" transform="translate(16.25 16.25)"/>
</clipPath>
</defs>
</svg>
