<svg width="130" height="130" viewBox="0 0 130 130" fill="none" xmlns="http://www.w3.org/2000/svg">
<path d="M103.565 41.9339H102.58C100.69 41.9339 99.1586 40.4021 99.1586 38.5125C99.1586 36.1158 96.7548 34.4571 94.4665 35.1697C94.1306 35.2744 93.7939 35.3768 93.4565 35.477C91.6367 36.0175 90.3448 37.6627 90.3448 39.5611V39.8372C90.3448 40.3933 90.1127 40.9266 89.6995 41.3198C89.2862 41.713 88.7258 41.9339 88.1414 41.9339H48.4794C47.895 41.9339 47.3346 41.713 46.9213 41.3198C46.5081 40.9266 46.276 40.3933 46.276 39.8372C46.276 39.0343 44.5764 38.5679 44.0197 39.1464C42.6297 40.5912 40.5163 41.9339 37.4622 41.9339H33.0553C31.8865 41.9339 30.7656 42.3757 29.9392 43.1622C29.1127 43.9486 28.6484 45.0152 28.6484 46.1274V52.4177C28.6484 53.7198 28.967 55.0039 29.5789 56.1685C30.1909 57.3331 31.0793 58.3461 32.1739 59.1274L33.3925 59.997C35.9971 61.8559 37.6366 64.7206 38.6938 67.7408C40.4724 72.8224 43.6739 77.3835 47.997 80.909C53.6545 85.5228 60.8596 88.0588 68.3104 88.0588C75.7612 88.0588 82.9663 85.5228 88.6238 80.909C92.9469 77.3835 96.1484 72.8224 97.927 67.7408C98.9842 64.7206 100.624 61.8559 103.228 59.997L104.447 59.1274C105.541 58.3461 106.43 57.3331 107.042 56.1685C107.654 55.0039 107.972 53.7198 107.972 52.4177V46.1274C107.972 45.0152 107.508 43.9486 106.682 43.1622C105.855 42.3757 104.734 41.9339 103.565 41.9339Z" fill="#F48A83"/>
<path d="M68.3069 113.228C56.99 113.228 51.469 108.948 48.7843 105.013C47.2105 102.707 48.9201 99.8767 51.6488 99.2845C52.3576 99.1272 53.1761 99.4174 53.5277 100.053C54.8628 102.464 58.6485 106.938 68.3069 106.938C77.9652 106.938 81.7509 102.464 83.086 100.053C83.4377 99.4174 84.2561 99.1272 84.9649 99.2845C87.6937 99.8767 89.4032 102.707 87.8295 105.013C85.1448 108.948 79.6237 113.228 68.3069 113.228Z" fill="#F8FCFF"/>
<path d="M130.002 115.723V118.002C130.002 124.63 124.63 130.002 118.002 130.002H18.6094C11.982 130.002 6.60938 124.63 6.60938 118.002V115.723C6.61281 113.824 7.29206 111.982 8.53645 110.497C9.78084 109.012 11.517 107.972 13.4621 107.546L35.5312 102.774C41.755 101.428 47.8964 105.785 53.1713 109.352C56.4386 111.562 61.2437 113.228 68.3058 113.228C75.3678 113.228 80.1729 111.562 83.4402 109.352C88.7151 105.785 94.8565 101.428 101.08 102.774L123.149 107.546C125.094 107.972 126.831 109.012 128.075 110.497C129.319 111.982 129.999 113.824 130.002 115.723Z" fill="#3AB8C6"/>
<path d="M88.1388 41.9364H48.4769C47.8925 41.9364 47.332 41.7154 46.9188 41.3222C46.5056 40.929 46.2734 40.3957 46.2734 39.8396V23.0655C46.2734 22.5094 46.5056 21.9761 46.9188 21.5829C47.332 21.1897 47.8925 20.9688 48.4769 20.9688C50.9107 20.9688 52.8838 22.9418 52.8838 25.3756V28.3074C52.8838 32.3604 56.1694 35.6461 60.2224 35.6461H76.3933C80.4463 35.6461 83.732 32.3604 83.732 28.3074V25.3756C83.732 22.9418 85.705 20.9688 88.1388 20.9688C88.7232 20.9688 89.2837 21.1897 89.6969 21.5829C90.1101 21.9761 90.3423 22.5094 90.3423 23.0655V39.8396C90.3423 40.3957 90.1101 40.929 89.6969 41.3222C89.2837 41.7154 88.7232 41.9364 88.1388 41.9364Z" fill="#E6EAED"/>
<path d="M52.8828 28.3074C52.8828 24.2544 56.1684 20.9688 60.2215 20.9688H76.3923C80.4454 20.9688 83.731 24.2544 83.731 28.3074C83.731 32.3604 80.4454 35.6461 76.3923 35.6461H60.2215C56.1684 35.6461 52.8828 32.3604 52.8828 28.3074Z" fill="#7AE2FF"/>
<path d="M107.972 29.3546V46.1287C107.969 45.0176 107.503 43.9528 106.678 43.1671C105.852 42.3814 104.733 41.9385 103.565 41.9352H102.579C100.69 41.9352 99.1586 40.3792 99.1586 38.4903C99.1586 36.1226 96.7871 34.4478 94.5272 35.154C92.4244 35.8111 90.3448 34.1969 90.3448 31.994V23.0644C90.3448 22.5083 90.1127 21.975 89.6995 21.5817C89.2862 21.1885 88.7258 20.9676 88.1414 20.9676H48.4794C47.895 20.9676 47.3346 21.1885 46.9213 21.5817C46.5081 21.975 46.276 22.5083 46.276 23.0644V33.604C46.276 34.9549 46.0744 36.3176 45.347 37.456C44.1599 39.3143 41.7291 41.9352 37.4622 41.9352H33.0553C31.8876 41.9385 30.7687 42.3814 29.943 43.1671C29.1173 43.9528 28.6519 45.0176 28.6484 46.1287V29.3546C28.6484 21.5693 31.8985 14.1028 37.6837 8.59778C43.4688 3.09271 51.3152 0 59.4966 0H77.1242C85.3056 0 93.152 3.09271 98.9371 8.59778C104.722 14.1028 107.972 21.5693 107.972 29.3546Z" fill="#52575C"/>
<path d="M81.524 95.1915C81.5217 95.9144 81.7177 96.6254 82.0925 97.2542C82.7485 98.3546 83.3686 99.6713 82.6628 100.74C81.0229 103.225 77.0975 106.933 68.3033 106.933C59.5091 106.933 55.5837 103.225 53.9438 100.74C53.238 99.6713 53.8581 98.3546 54.5141 97.2542C54.8889 96.6254 55.0849 95.9144 55.0826 95.1915C55.0826 90.5222 60.0085 87.3328 64.6482 87.8577C65.8591 87.9947 67.0804 88.0634 68.3058 88.0625C69.524 88.0615 70.7381 87.9917 71.9418 87.8544C76.587 87.3245 81.524 90.5162 81.524 95.1915Z" fill="#F5C8AB"/>
<path d="M17.6269 6.29028V12.2605C17.6269 15.9113 14.6674 18.8708 11.0166 18.8708C7.36579 18.8708 4.40625 15.9113 4.40625 12.2605V6.29028C4.40625 4.62199 5.10269 3.02204 6.34237 1.84238C7.58205 0.662724 9.26341 0 11.0166 0C12.7697 0 14.4511 0.662724 15.6908 1.84238C16.9305 3.02204 17.6269 4.62199 17.6269 6.29028Z" fill="#F8FCFF"/>
<path d="M17.6275 42.0854C17.6275 45.9624 19.9871 49.4462 21.3711 53.0679C21.4287 53.2188 21.4828 53.3711 21.5333 53.5249C22.2227 55.6252 22.2003 57.8786 21.4691 59.9661C20.7378 62.0535 19.3349 63.8691 17.4591 65.1557C15.5832 66.4423 13.3295 67.1346 11.0172 67.1346C8.70489 67.1346 6.45119 66.4423 4.57533 65.1557C2.69948 63.8691 1.29659 62.0535 0.565367 59.9661C-0.165853 57.8786 -0.188325 55.6252 0.501134 53.5249C0.551607 53.3711 0.605708 53.2188 0.663362 53.0679C2.04735 49.4462 4.40688 45.9624 4.40688 42.0854V25.4775C4.40688 21.8267 7.36643 18.8672 11.0172 18.8672C14.668 18.8672 17.6275 21.8267 17.6275 25.4775V42.0854Z" fill="#F48A83"/>
<path d="M8.81328 4.19359C8.81513 3.24675 9.15366 2.32837 9.77378 1.58789C10.1854 1.09634 9.97091 0.042879 9.34788 0.194272C8.40562 0.423237 7.52858 0.848509 6.7801 1.43936C6.03163 2.03022 5.43043 2.7719 5.01992 3.61082C4.60941 4.44974 4.39986 5.36496 4.4064 6.29035V16.6675C4.4064 17.8844 5.39291 18.8709 6.60984 18.8709C7.82677 18.8709 8.81328 17.8844 8.81328 16.6675V4.19359Z" fill="#E6EAED"/>
<path d="M6.60345 54.5121C6.60484 54.0664 6.64386 53.6242 6.71896 53.1893C7.23622 50.194 8.80689 47.3281 8.80689 44.2884V21.0706C8.80689 19.8537 7.82038 18.8672 6.60345 18.8672C5.38652 18.8672 4.40001 19.8537 4.40001 21.0706V43.3967C4.40001 46.4511 2.64782 49.187 1.20599 51.8797C0.444961 53.301 0.0355879 54.869 0.00917717 56.464C-0.0172335 58.0589 0.340018 59.6385 1.05361 61.0819C1.7672 62.5253 2.81823 63.7942 4.12632 64.7918C5.43441 65.7893 6.96491 66.4889 8.60077 66.8372C10.2366 67.1854 11.9345 67.1731 13.5646 66.8011C15.1947 66.429 16.7137 65.7072 18.0056 64.6908C18.9361 63.9587 17.778 62.658 16.6048 62.8171C16.5751 62.8211 16.5453 62.825 16.5155 62.8287C14.8554 63.0372 13.1673 62.7888 11.6509 62.113C10.1345 61.4372 8.85322 60.3622 7.95873 59.0152C7.06424 57.6681 6.59393 56.1055 6.60345 54.5121Z" fill="#D4665F"/>
<path d="M17.626 41.9405C17.626 43.0985 16.6872 44.0373 15.5292 44.0373H13.2191C12.6347 44.0373 12.0742 43.8164 11.661 43.4231C11.2478 43.0299 11.0156 42.4966 11.0156 41.9405C11.0156 41.3844 11.2478 40.8511 11.661 40.4579C12.0742 40.0647 12.6347 39.8438 13.2191 39.8438H15.5292C16.6872 39.8438 17.626 40.7825 17.626 41.9405Z" fill="#F8FCFF"/>
<path d="M17.626 33.5499C17.626 34.7079 16.6872 35.6466 15.5292 35.6466H13.2191C12.6347 35.6466 12.0742 35.4257 11.661 35.0325C11.2478 34.6393 11.0156 34.106 11.0156 33.5499C11.0156 32.9938 11.2478 32.4605 11.661 32.0673C12.0742 31.674 12.6347 31.4531 13.2191 31.4531H15.5292C16.6872 31.4531 17.626 32.3919 17.626 33.5499Z" fill="#F8FCFF"/>
<path d="M17.626 25.1671C17.626 26.3251 16.6872 27.2638 15.5292 27.2638H13.2191C12.6347 27.2638 12.0742 27.0429 11.661 26.6497C11.2478 26.2565 11.0156 25.7232 11.0156 25.1671C11.0156 24.611 11.2478 24.0777 11.661 23.6844C12.0742 23.2912 12.6347 23.0703 13.2191 23.0703H15.5292C16.6872 23.0703 17.626 24.0091 17.626 25.1671Z" fill="#F8FCFF"/>
<path d="M81.524 87.9108C81.524 86.6461 80.2128 85.7978 79.0208 86.2204C75.5994 87.4334 71.9714 88.0595 68.3058 88.0625C67.0804 88.0634 65.8591 87.9947 64.6482 87.8577C60.0085 87.3328 55.0826 90.5222 55.0826 95.1915C55.0849 95.9144 54.8889 96.6254 54.5141 97.2542C54.3759 97.486 54.2152 97.7036 54.0346 97.9046C53.4946 98.5056 53.1362 99.3392 53.5253 100.047C53.8958 100.722 54.7382 100.935 55.4417 100.623L80.4903 89.5007C81.1188 89.2216 81.524 88.5985 81.524 87.9108Z" fill="#E8AE8B"/>
<path d="M60.6571 112.449C62.0873 112.767 63.571 112.684 65.0009 112.364L83.6512 108.189C84.7863 107.935 85.8579 107.408 86.6265 106.535C87.0549 106.048 87.452 105.538 87.8158 105.008C89.3936 102.71 87.6896 99.8758 84.9649 99.2845C84.2561 99.1272 83.4377 99.4174 83.086 100.053C81.7509 102.464 77.9652 106.938 68.3069 106.938C58.6485 106.938 54.8628 102.464 53.5277 100.053C53.1761 99.4174 52.3576 99.1272 51.6488 99.2845C48.9201 99.8767 47.2111 102.707 48.7859 105.012C50.7793 107.931 54.3344 111.039 60.6571 112.449Z" fill="#E6EAED"/>
<path d="M89.416 102.036C88.6866 103.826 90.4066 106.673 92.2921 106.251L94.044 105.858C96.5157 105.305 96.5031 101.777 94.0274 101.242L91.7236 100.743C90.7487 100.532 89.7925 101.113 89.416 102.036Z" fill="#2494A1"/>
<path d="M33.0507 127.905C33.0506 125.519 33.8981 123.202 35.4556 121.331C37.013 119.46 39.1891 118.144 41.6309 117.598L44.8034 116.887C48.5003 116.059 48.6758 105.637 47.2291 102.135C46.5373 100.461 45.2385 100.675 43.4676 101.058L13.4621 107.546C11.517 107.972 9.78084 109.012 8.53645 110.497C7.29206 111.982 6.61281 113.824 6.60938 115.723V118.002C6.60938 124.63 11.982 130.002 18.6094 130.002H35.2541C34.6697 130.002 34.1093 129.781 33.6961 129.388C33.2828 128.995 33.0507 128.462 33.0507 127.905Z" fill="#2494A1"/>
<path d="M30.8519 33.5482C30.8519 24.6506 34.5662 16.1175 41.1779 9.82603C47.7895 3.53453 56.7567 0 66.107 0H59.4966C51.3152 0 43.4688 3.09271 37.6837 8.59778C31.8985 14.1028 28.6484 21.5693 28.6484 29.3546V46.1287C28.6519 45.0176 29.1173 43.9528 29.943 43.1671C30.7687 42.3814 31.8876 41.9385 33.0553 41.9352H37.4622C40.38 41.9352 38.4913 39.1372 35.5962 39.5007C35.0354 39.5711 34.5023 39.6269 34.0096 39.671C32.2692 39.8268 30.8519 38.422 30.8519 36.6746V33.5482Z" fill="#3D4145"/>
<path d="M77.1181 0H70.5078C79.858 0 88.8253 3.53453 95.4369 9.82603C102.049 16.1175 105.763 24.6506 105.763 33.5482V37.7417C99.1526 37.7417 99.1526 33.5482 99.1526 33.5482V41.9352H103.559C104.727 41.9385 105.846 42.3814 106.672 43.1671C107.497 43.9528 107.963 45.0176 107.966 46.1287V29.3546C107.966 21.5693 104.716 14.1028 98.9311 8.59778C93.1459 3.09271 85.2996 0 77.1181 0Z" fill="#3D4145"/>
<path d="M88.1311 20.9645C88.7155 20.9645 89.2759 21.1854 89.6892 21.5787C90.1024 21.9719 90.3345 22.5052 90.3345 23.0613C90.3345 23.9426 91.0154 24.6749 91.895 24.7304C94.9526 24.9233 98.1858 25.0536 101.605 25.1125C103.114 25.1385 104.219 23.7098 103.697 22.2939C103.386 21.4491 102.567 20.9036 101.668 20.867C80.001 19.9844 66.5916 12.2129 59.0049 5.55234C56.4808 3.33641 52.9524 2.26936 49.9394 3.75358C45.5893 5.89643 45.3316 11.5891 49.4708 14.1153C53.1672 16.3712 58.208 18.6608 65.0526 20.5651C66.0345 20.8382 67.0532 20.9645 68.0724 20.9645H88.1311Z" fill="#5D6369"/>
<path d="M77.5477 37.7428C82.1798 37.7428 85.9348 33.9878 85.9348 29.3558V22.0705C85.9348 21.462 85.4415 20.9688 84.833 20.9688C84.2246 20.9688 83.7313 21.462 83.7313 22.0705V28.3074C83.7313 32.3604 80.4457 35.6461 76.3927 35.6461H60.2218C56.1688 35.6461 52.8831 32.3604 52.8831 28.3074V22.0705C52.8831 21.462 52.3899 20.9688 51.7814 20.9688C51.1729 20.9688 50.6797 21.462 50.6797 22.0705V29.3558C50.6797 33.9878 54.4347 37.7428 59.0667 37.7428H77.5477Z" fill="#BEC1C4"/>
<path d="M57.2891 28.3044C57.2891 25.4094 59.6359 23.0625 62.531 23.0625H74.0816C76.9766 23.0625 79.3235 25.4094 79.3235 28.3044C79.3235 31.1994 76.9766 33.5463 74.0816 33.5463H62.531C59.6359 33.5463 57.2891 31.1994 57.2891 28.3044Z" fill="#80F2FF"/>
<path d="M79.316 37.7422H57.2816C56.0646 37.7422 55.0781 38.6809 55.0781 39.8389C55.0781 40.997 56.0646 41.9357 57.2816 41.9357H79.316C80.5329 41.9357 81.5194 40.997 81.5194 39.8389C81.5194 38.6809 80.5329 37.7422 79.316 37.7422Z" fill="#F5F9FC"/>
<path d="M99.1564 35.4182C99.1564 34.5234 98.2458 33.8989 97.4012 34.1944C96.2698 34.5904 94.6217 35.1342 92.546 35.7296C91.2512 36.0985 90.3426 37.2745 90.3426 38.6209V39.8372C90.3426 40.3933 90.1105 40.9266 89.6972 41.3198C89.284 41.713 88.7235 41.9339 88.1392 41.9339H48.4772C47.8928 41.9339 47.3324 41.713 46.9191 41.3198C46.5059 40.9266 46.2738 40.3933 46.2738 39.8372V39.4576C46.2738 38.6472 44.8101 38.2586 44.27 38.8627C44.1449 39.0027 44.0703 39.1848 44.0703 39.3725V41.9339C44.1028 42.5167 44.3756 43.0637 44.8294 43.4563C45.2832 43.8488 45.8814 44.0552 46.4941 44.0307H90.1223C90.735 44.0552 91.3332 43.8488 91.787 43.4563C92.2407 43.0637 92.5135 42.5167 92.546 41.9339C92.546 39.8692 93.8832 38.0145 95.8512 37.3902L98.2759 36.6211C98.8002 36.4548 99.1564 35.9682 99.1564 35.4182Z" fill="#C2534C"/>
<path d="M83.735 50.3264C84.9726 50.3403 86.202 50.1564 87.3722 49.7842C87.7456 49.6654 88.1419 49.9345 88.1419 50.3264C88.1419 53.807 86.1588 56.6166 83.735 56.6166C81.3112 56.6166 79.3281 53.807 79.3281 50.3264C79.3281 49.8939 79.7868 49.6098 80.1915 49.7624C81.3141 50.1856 82.5216 50.3792 83.735 50.3264Z" fill="#3D4145"/>
<path d="M57.2903 50.3264C57.2903 53.807 55.3072 56.6166 52.8834 56.6166C50.4597 56.6166 48.4766 53.807 48.4766 50.3264C48.4766 49.9345 48.8729 49.6654 49.2463 49.7842C50.4165 50.1564 51.6458 50.3403 52.8834 50.3264C54.0968 50.3792 55.3044 50.1856 56.427 49.7624C56.8317 49.6098 57.2903 49.8939 57.2903 50.3264Z" fill="#3D4145"/>
<path d="M102.823 56.3944C101.232 57.4006 99.1562 56.2575 99.1562 54.375V50.5397C99.1562 48.1058 101.129 46.1328 103.563 46.1328C104.148 46.1328 104.708 46.3537 105.121 46.7469C105.534 47.1402 105.767 47.6735 105.767 48.2296V51.1525C105.768 52.1894 105.5 53.2106 104.986 54.1251C104.473 55.0397 103.729 55.8192 102.823 56.3944Z" fill="#C2534C"/>
<path d="M33.7876 56.3944C35.3785 57.4006 37.4541 56.2575 37.4541 54.375V50.5397C37.4541 48.1058 35.4811 46.1328 33.0472 46.1328C32.4628 46.1328 31.9024 46.3537 31.4891 46.7469C31.0759 47.1402 30.8438 47.6735 30.8438 48.2296V51.1525C30.8424 52.1894 31.1104 53.2106 31.624 54.1251C32.1376 55.0397 32.8808 55.8192 33.7876 56.3944Z" fill="#C2534C"/>
<path d="M68.305 67.098C69.5219 67.098 70.5084 65.2205 70.5084 62.9045C70.5084 60.5884 69.5219 58.7109 68.305 58.7109C67.0881 58.7109 66.1016 60.5884 66.1016 62.9045C66.1016 65.2205 67.0881 67.098 68.305 67.098Z" fill="#C2534C"/>
<path d="M67.2034 80.7203C67.2034 80.1413 66.7102 79.6719 66.1017 79.6719C65.4933 79.6719 65 80.1413 65 80.7203V82.817C65 83.396 65.4933 83.8654 66.1017 83.8654C66.7102 83.8654 67.2034 83.396 67.2034 82.817V80.7203Z" fill="#DE766F"/>
<path d="M71.6097 80.7203C71.6097 80.1413 71.1164 79.6719 70.508 79.6719C69.8995 79.6719 69.4062 80.1413 69.4062 80.7203V82.817C69.4062 83.396 69.8995 83.8654 70.508 83.8654C71.1164 83.8654 71.6097 83.396 71.6097 82.817V80.7203Z" fill="#DE766F"/>
<path d="M91.7915 52.4181C89.667 52.4347 87.546 52.2528 85.4588 51.875C83.8223 51.5825 82.2267 51.1111 80.7038 50.4702C79.0544 49.7846 77.5556 48.8094 76.2859 47.5955C76.0826 47.3981 75.9223 47.1644 75.8143 46.9077C75.7063 46.6511 75.6526 46.3767 75.6564 46.1003C75.6603 45.8239 75.7215 45.551 75.8366 45.2972C75.9517 45.0434 76.1184 44.8137 76.3272 44.6215C76.5359 44.4292 76.7825 44.2781 77.0528 44.1769C77.3232 44.0757 77.6118 44.0263 77.9023 44.0316C78.1927 44.037 78.4792 44.0969 78.7452 44.208C79.0112 44.3191 79.2515 44.4791 79.4522 44.6789C80.3368 45.5165 81.3787 46.1887 82.5239 46.6604C83.7358 47.1671 85.0054 47.5386 86.3072 47.7675C88.115 48.091 89.9521 48.2441 91.7915 48.2246C92.3759 48.2246 92.9364 48.4455 93.3496 48.8387C93.7628 49.2319 93.995 49.7652 93.995 50.3213C93.995 50.8774 93.7628 51.4107 93.3496 51.804C92.9364 52.1972 92.3759 52.4181 91.7915 52.4181Z" fill="#26292B"/>
<path d="M44.8284 52.4187C46.9529 52.4353 49.074 52.2534 51.1611 51.8756C52.7977 51.5831 54.3933 51.1117 55.9162 50.4708C57.5623 49.7816 59.0573 48.8035 60.323 47.5877C60.5264 47.3903 60.6866 47.1565 60.7947 46.8999C60.9027 46.6433 60.9563 46.3689 60.9525 46.0925C60.9487 45.8161 60.8874 45.5432 60.7723 45.2893C60.6572 45.0355 60.4905 44.8059 60.2818 44.6136C60.0731 44.4214 59.8264 44.2703 59.5561 44.1691C59.2858 44.0678 58.9971 44.0185 58.7067 44.0238C58.4162 44.0292 58.1298 44.0891 57.8638 44.2002C57.5978 44.3113 57.3575 44.4713 57.1567 44.6711C56.2722 45.5087 55.2303 46.1809 54.0851 46.6526C52.8731 47.1593 51.6036 47.5308 50.3018 47.7597C48.4978 48.0853 46.6645 48.2412 44.8284 48.2251C44.2441 48.2251 43.6836 48.446 43.2704 48.8393C42.8572 49.2325 42.625 49.7658 42.625 50.3219C42.625 50.878 42.8572 51.4113 43.2704 51.8045C43.6836 52.1978 44.2441 52.4187 44.8284 52.4187Z" fill="#26292B"/>
<path d="M105.675 58.0857C105.737 58.3684 105.766 58.6566 105.763 58.9454C105.762 59.7898 105.508 60.6164 105.032 61.3292C104.556 62.0419 103.877 62.6113 103.075 62.9711L98.4571 65.0008C98.4512 65.0033 98.4475 65.0091 98.4475 65.0155C98.4475 65.0218 98.4437 65.0276 98.4379 65.0302L76.773 74.5825C75.677 75.0658 74.4239 74.8878 73.3342 74.3905C72.4607 73.9919 71.5253 73.7201 70.5592 73.5877C70.5298 73.5836 70.5078 73.5586 70.5078 73.5289C70.5078 73.5089 70.5179 73.4903 70.5347 73.4794L98.4475 55.297C98.7092 55.1221 98.9899 54.9745 99.2848 54.8567C99.9235 54.6043 100.613 54.4895 101.304 54.5206C101.995 54.5517 102.67 54.7279 103.28 55.0366C103.891 55.3452 104.423 55.7787 104.837 56.3058C105.251 56.833 105.537 57.4408 105.675 58.0857Z" fill="#D4665F"/>
<path d="M95.7053 59.7886C95.068 58.7263 93.6762 58.4055 92.6381 59.0816L70.5348 73.4785C70.518 73.4895 70.5078 73.5082 70.5078 73.5283C70.5078 73.5579 70.5297 73.583 70.559 73.5872C71.2928 73.6931 72.0102 73.8769 72.6982 74.1342C73.5451 74.4509 74.4986 74.4663 75.2838 74.018L94.9147 62.8112C95.9791 62.2036 96.3359 60.8396 95.7053 59.7886Z" fill="#D4665F"/>
<path d="M74.7887 74.3018C74.4538 74.493 74.456 74.9826 74.7735 75.2016C74.9194 75.3021 75.1062 75.3236 75.2684 75.2521L98.4383 65.0362C98.4459 65.0328 98.4508 65.0253 98.4508 65.017C98.4508 65.0088 98.4557 65.0013 98.4633 64.9979L98.5634 64.9537C98.6674 64.9077 98.7075 64.781 98.6489 64.6836L97.7383 63.1684C97.2488 62.3539 96.1984 62.0795 95.3731 62.5507L74.7887 74.3018Z" fill="#C2534C"/>
<path d="M105.672 58.0809C105.592 57.7047 105.462 57.3432 105.285 57.0043C104.873 56.2101 103.791 56.6572 103.319 57.4175C102.946 58.0165 102.423 58.5177 101.796 58.8756L98.5756 60.7152C97.6297 61.2555 97.3132 62.468 97.8743 63.4018C98.377 64.2381 99.4222 64.5716 100.316 64.1809L103.072 62.9769C103.876 62.6163 104.556 62.0452 105.032 61.3305C105.508 60.6157 105.761 59.7868 105.76 58.9406C105.764 58.6519 105.734 58.3636 105.672 58.0809Z" fill="#E6EAED"/>
<path d="M101.792 58.8793C102.419 58.5214 102.942 58.0202 103.314 57.4212C104.003 56.312 103.309 54.8696 102.029 54.6116C101.915 54.5887 101.8 54.5698 101.684 54.555C100.868 54.4507 100.038 54.5545 99.2775 54.8556C98.9826 54.9734 98.7019 55.1211 98.4402 55.2959L96.402 56.6243C95.3577 57.3049 95.0388 58.6894 95.68 59.7583C96.3286 60.8393 97.7223 61.2037 98.8169 60.5784L101.792 58.8793Z" fill="#F8FCFF"/>
<path d="M77.1225 78.6222C76.9181 78.6222 76.7177 78.568 76.5437 78.4658C76.3698 78.3636 76.2292 78.2174 76.1376 78.0435C75.6772 77.3168 75.0671 76.6863 74.344 76.1899C73.1771 75.3417 71.7993 74.7956 70.3447 74.6048C69.6737 74.4829 68.9918 74.4239 68.3087 74.4286C66.7808 74.3005 65.2451 74.5698 63.8654 75.2075C62.4858 75.8453 61.3141 76.8277 60.4755 78.0498C60.3385 78.2891 60.109 78.4682 59.8356 78.5493C59.5622 78.6303 59.2664 78.6069 59.0109 78.4839C58.7553 78.361 58.5601 78.1482 58.4666 77.8906C58.3731 77.633 58.3887 77.3509 58.51 77.1041C59.5267 75.5304 60.9785 74.2529 62.7066 73.4113C64.4347 72.5697 66.3727 72.1963 68.3087 72.3319C69.122 72.3255 69.9338 72.3957 70.7325 72.5416C72.5365 72.7909 74.2437 73.4744 75.6925 74.5272C76.6881 75.2079 77.5153 76.0874 78.1163 77.1041C78.2008 77.2646 78.2406 77.443 78.2318 77.6223C78.2231 77.8016 78.1662 77.9758 78.0664 78.1281C77.9667 78.2805 77.8275 78.4059 77.6623 78.4924C77.497 78.5789 77.3111 78.6236 77.1225 78.6222Z" fill="#8F312C"/>
</svg>
