<?xml version="1.0" encoding="UTF-8"?>
<svg version="1.1" xmlns="http://www.w3.org/2000/svg" width="1276" height="1000">
<path d="M0 0 C4.49909176 0.00456605 8.99816855 -0.0024797 13.49725723 -0.00795984 C22.28868878 -0.01681201 31.080086 -0.01495043 39.87151884 -0.00913456 C47.02338041 -0.00460097 54.17523243 -0.00401248 61.32709503 -0.00618219 C62.34854078 -0.00648866 63.36998652 -0.00679513 64.42238516 -0.00711088 C66.49804993 -0.00775039 68.57371469 -0.00839882 70.64937945 -0.00905606 C90.0734475 -0.01474727 109.49749661 -0.00822078 128.92156155 0.00254467 C145.55112727 0.01147638 162.18066505 0.00992891 178.81023026 0.00070715 C198.16603162 -0.01002154 217.52181642 -0.01419524 236.87762034 -0.00806832 C238.94587175 -0.00743129 241.01412316 -0.00680255 243.08237457 -0.00618219 C244.09973546 -0.00587364 245.11709635 -0.00556509 246.16528635 -0.00524719 C253.29900724 -0.00352783 260.43271753 -0.00641895 267.56643677 -0.0111413 C276.27388891 -0.01677922 284.98130504 -0.01517307 293.68875311 -0.00457981 C298.12265946 0.00063842 302.556506 0.00280025 306.99041176 -0.00387812 C351.31124038 -0.06509177 351.31124038 -0.06509177 367.83855057 4.38644934 C368.64195877 4.59455236 369.44536697 4.80265539 370.27312088 5.01706457 C412.24740434 16.44647153 449.13762658 44.30036063 471.83855057 81.26144934 C472.36577713 82.0980509 472.89300369 82.93465246 473.43620682 83.79660559 C477.12265702 89.74583852 480.13562465 95.80879961 482.83855057 102.26144934 C483.25088943 103.23646399 483.25088943 103.23646399 483.67155838 104.2311759 C498.28503739 139.09590232 502.43667497 181.10821111 489.83855057 217.26144934 C489.55366776 218.19601965 489.26878494 219.13058996 488.97526932 220.09348059 C486.94460462 226.63275766 484.40218767 232.94357408 481.77605057 239.26144934 C481.4354158 240.08733557 481.09478104 240.9132218 480.74382401 241.76413488 C479.10432942 245.64217016 477.53316205 248.98994272 474.83855057 252.26144934 C473.82137435 253.91768915 472.82201564 255.58497261 471.83855057 257.26144934 C464.76497411 269.02630967 456.15701527 279.21708974 446.83855057 289.26144934 C446.25073807 289.91500402 445.66292557 290.56855871 445.05730057 291.24191809 C435.11334627 301.81827299 422.34978573 310.06085082 409.83855057 317.26144934 C408.81632401 317.86601965 407.79409744 318.47058996 406.74089432 319.09348059 C399.34076679 323.30247505 391.83064932 326.23320443 383.78386307 328.90207434 C380.03492013 330.15356784 376.4503296 331.65830982 372.83855057 333.26144934 C373.26587479 334.20891027 373.26587479 334.20891027 373.70183182 335.17551184 C375.20427545 339.2543107 376.07894348 343.39957715 377.02605057 347.63644934 C378.86563271 355.63785517 381.02712743 363.48418398 383.46355057 371.32394934 C386.7480886 381.90736342 389.91446466 392.17241847 390.83855057 403.26144934 C386.81846089 401.76355803 383.17142817 399.86885743 379.42839432 397.77707434 C378.82024384 397.43899755 378.21209335 397.10092077 377.58551407 396.75259924 C375.64744978 395.67501734 373.71152682 394.59367191 371.77605057 393.51144934 C362.89230604 388.54623841 353.99181307 383.71835706 344.83855057 379.26144934 C344.83855057 378.60144934 344.83855057 377.94144934 344.83855057 377.26144934 C343.78667557 376.99332434 342.73480057 376.72519934 341.65105057 376.44894934 C338.22502326 375.38182608 335.81771702 374.19388163 332.83855057 372.26144934 C331.51246235 371.58048512 330.18168456 370.90814348 328.83855057 370.26144934 C328.83855057 369.60144934 328.83855057 368.94144934 328.83855057 368.26144934 C327.89882401 368.05133215 326.95909744 367.84121496 325.99089432 367.62473059 C320.68567579 366.10079228 316.13744452 363.21946081 311.40105057 360.44894934 C309.36965674 359.27896725 307.33706212 358.11106806 305.30339432 356.94504309 C304.25135818 356.3416007 303.19932205 355.73815832 302.11540604 355.11642981 C295.5663476 351.40910258 288.92683677 347.86726711 282.29387283 344.31296301 C281.33150711 343.79580725 280.36914139 343.27865149 279.37761307 342.74582434 C278.52377029 342.28917395 277.66992752 341.83252356 276.79021072 341.36203527 C274.83855057 340.26144934 274.83855057 340.26144934 273.83855057 339.26144934 C272.20574201 339.16200056 270.56861069 339.13297912 268.9327774 339.13116407 C267.8638844 339.12753973 266.7949914 339.12391538 265.6937077 339.1201812 C263.91027278 339.12178358 263.91027278 339.12178358 262.09080887 339.12341833 C260.83887009 339.12059705 259.58693132 339.11777577 258.29705501 339.114869 C254.80536537 339.10708474 251.31369536 339.10549491 247.82199812 339.10481787 C244.06151826 339.10298335 240.30105002 339.09537876 236.54057693 339.08833838 C230.01503773 339.07679067 223.48950114 339.06855723 216.96395493 339.06221914 C206.63297192 339.05189617 196.30202115 339.03132922 185.97105789 339.00909948 C182.43547832 339.00161847 178.89989861 338.99420476 175.36431885 338.98681211 C174.03859687 338.98403627 174.03859687 338.98403627 172.68609263 338.98120434 C162.61419375 338.96025706 152.54229126 338.94144318 142.47038651 338.92355871 C141.54936995 338.92192053 140.62835339 338.92028235 139.67942724 338.91859452 C124.80127248 338.89238986 109.92311526 338.87370476 95.0449473 338.85696681 C79.75458756 338.83948833 64.46427595 338.81057488 49.17395473 338.77207744 C39.75457204 338.74878271 30.33526793 338.73469239 20.91585621 338.7327498 C14.44051027 338.73062509 7.965242 338.71756912 1.48993102 338.69627048 C-2.23516303 338.68435316 -5.96010305 338.67701396 -9.685215 338.68298292 C-55.08592375 338.74607955 -93.18722227 328.6218584 -129.16144943 300.26144934 C-129.7078508 299.83299719 -130.25425217 299.40454504 -130.81721115 298.96310949 C-132.37558129 297.73696641 -133.92497114 296.49943585 -135.47394943 295.26144934 C-136.82939865 294.17863684 -136.82939865 294.17863684 -138.21223068 293.07394934 C-138.85547287 292.47582434 -139.49871506 291.87769934 -140.16144943 291.26144934 C-140.16144943 290.60144934 -140.16144943 289.94144934 -140.16144943 289.26144934 C-141.48144943 288.60144934 -142.80144943 287.94144934 -144.16144943 287.26144934 C-144.16144943 286.60144934 -144.16144943 285.94144934 -144.16144943 285.26144934 C-145.15144943 284.93144934 -146.14144943 284.60144934 -147.16144943 284.26144934 C-148.98614955 282.14939486 -150.67893149 280.05143404 -152.34894943 277.82394934 C-153.04407639 276.92579504 -153.04407639 276.92579504 -153.75324631 276.00949621 C-157.16144943 271.52713187 -157.16144943 271.52713187 -157.16144943 269.26144934 C-157.82144943 269.26144934 -158.48144943 269.26144934 -159.16144943 269.26144934 C-163.61347194 263.6964212 -166.87519662 257.56458998 -170.16144943 251.26144934 C-170.47517502 250.67186438 -170.7889006 250.08227942 -171.11213303 249.47482824 C-176.13432551 240.01247731 -180.16725572 230.48359512 -183.48884201 220.29855871 C-183.94933271 218.90388198 -184.42660552 217.51466576 -184.91804123 216.13058996 C-196.42456091 183.31905828 -193.87564497 143.34360274 -181.16144943 111.26144934 C-180.85723068 110.41969152 -180.55301193 109.57793371 -180.23957443 108.71066809 C-169.00742404 78.6104756 -147.36498349 48.80056998 -120.16144943 31.26144934 C-117.80207443 30.50754309 -117.80207443 30.50754309 -116.16144943 30.26144934 C-116.16144943 29.60144934 -116.16144943 28.94144934 -116.16144943 28.26144934 C-115.11086349 27.66976965 -114.06027756 27.07808996 -112.97785568 26.46848059 C-111.96477341 25.89770788 -111.96477341 25.89770788 -110.93122482 25.31540442 C-109.44836242 24.48138657 -107.96445795 23.64921903 -106.47956467 22.81882238 C-103.52766326 21.16678141 -100.58388318 19.51811794 -97.69269943 17.76144934 C-90.92482605 13.67924 -83.44552582 11.40641616 -75.99079514 8.90060949 C-74.52718347 8.38923417 -73.08713666 7.81060669 -71.65754318 7.21066809 C-68.17416103 5.88600164 -64.60196078 5.07544662 -60.97394943 4.26144934 C-60.28881271 4.09644934 -59.60367599 3.93144934 -58.89777756 3.76144934 C-39.5221052 -0.60874637 -19.72844628 -0.0296704 0 0 Z " fill="#94a3fd" transform="translate(727.161449432373,501.7385506629944)"/>
<path d="M0 0 C1.48999382 -0.00187207 2.97998714 -0.00417434 4.4699797 -0.00686532 C8.53356124 -0.01294093 12.59712208 -0.01285476 16.66070712 -0.01167095 C21.05558689 -0.01146586 25.4504602 -0.01699601 29.84533691 -0.02172852 C38.44473763 -0.0300126 47.04413149 -0.03278235 55.64353586 -0.03334089 C62.63917847 -0.03381717 69.63481884 -0.03587748 76.63046074 -0.03904152 C96.49550179 -0.04784239 116.36053745 -0.05246185 136.22558046 -0.05171105 C137.82985418 -0.05165111 137.82985418 -0.05165111 139.46653748 -0.05158997 C140.53737011 -0.05154909 141.60820274 -0.0515082 142.71148484 -0.05146609 C160.05405255 -0.05105989 177.39659852 -0.06062413 194.73915995 -0.07472833 C212.57687889 -0.08911991 230.41458724 -0.09599697 248.25231212 -0.09513456 C258.25450652 -0.09480352 268.25667812 -0.09750941 278.25886726 -0.10831261 C286.77691358 -0.11745434 295.29492678 -0.11956291 303.81297589 -0.11280318 C308.15153216 -0.10955628 312.49002504 -0.10941441 316.82857513 -0.11815643 C357.84056027 -0.19556288 394.29161519 4.48890958 429.94187927 26.13371277 C431.21020527 26.86723206 432.48072792 27.59697965 433.75437927 28.32121277 C435.33219177 29.21840027 435.33219177 29.21840027 436.94187927 30.13371277 C436.94187927 30.79371277 436.94187927 31.45371277 436.94187927 32.13371277 C438.26187927 32.46371277 439.58187927 32.79371277 440.94187927 33.13371277 C440.94187927 33.79371277 440.94187927 34.45371277 440.94187927 35.13371277 C441.63926208 35.35027527 442.3366449 35.56683777 443.05516052 35.78996277 C446.68165475 37.47807375 449.27612558 39.89811902 452.12937927 42.63371277 C452.98366516 43.44110901 452.98366516 43.44110901 453.85520935 44.26481628 C455.01272012 45.36330843 456.16665055 46.46558621 457.31687927 47.57170105 C458.75570569 48.95475565 460.20725491 50.3245476 461.66062927 51.69230652 C471.33278538 61.0124696 478.99541922 71.66437331 485.94187927 83.13371277 C486.47684021 83.99996277 487.01180115 84.86621277 487.56297302 85.75871277 C492.13317858 93.23515878 496.01415192 100.71917014 498.87937927 109.00871277 C499.13171326 109.73630798 499.38404724 110.4639032 499.64402771 111.21354675 C504.24497127 124.71186079 507.80720389 137.86968273 508.94187927 152.13371277 C509.00891052 152.89957703 509.07594177 153.66544128 509.14500427 154.45451355 C510.98061273 176.44210241 509.3190489 197.98915746 502.94187927 219.13371277 C502.62219177 220.24617371 502.30250427 221.35863464 501.97312927 222.50480652 C498.4654375 233.88968541 493.0582923 244.93353153 486.94187927 255.13371277 C486.44301208 255.96902527 485.9441449 256.80433777 485.43016052 257.66496277 C480.76756643 265.22945108 475.41796383 272.15457703 469.94187927 279.13371277 C469.39016052 279.91875183 468.83844177 280.70379089 468.27000427 281.51261902 C467.83172302 282.04757996 467.39344177 282.58254089 466.94187927 283.13371277 C466.28187927 283.13371277 465.62187927 283.13371277 464.94187927 283.13371277 C464.28187927 284.45371277 463.62187927 285.77371277 462.94187927 287.13371277 C462.28187927 287.13371277 461.62187927 287.13371277 460.94187927 287.13371277 C460.28187927 288.45371277 459.62187927 289.77371277 458.94187927 291.13371277 C458.28187927 291.13371277 457.62187927 291.13371277 456.94187927 291.13371277 C456.28187927 292.45371277 455.62187927 293.77371277 454.94187927 295.13371277 C454.28187927 295.13371277 453.62187927 295.13371277 452.94187927 295.13371277 C452.94187927 295.79371277 452.94187927 296.45371277 452.94187927 297.13371277 C451.16198243 298.61696014 449.31524401 300.02042259 447.44187927 301.38371277 C446.33498349 302.19343783 445.22821288 303.00333402 444.12156677 303.81340027 C443.0722699 304.57910339 442.02297302 305.34480652 440.94187927 306.13371277 C439.48181649 307.25646732 438.02317445 308.38107565 436.56687927 309.50871277 C429.06687927 315.13371277 429.06687927 315.13371277 424.94187927 315.13371277 C424.94187927 315.79371277 424.94187927 316.45371277 424.94187927 317.13371277 C419.7129936 320.13350432 414.53492939 322.85857374 408.94187927 325.13371277 C408.08078552 325.51398621 407.21969177 325.89425964 406.33250427 326.28605652 C399.34845225 329.32541249 392.36713336 331.72938676 384.98522496 333.60588825 C383.04334623 334.10750245 381.11031096 334.64299202 379.1779995 335.18028355 C362.2628257 339.46572754 344.83013249 338.69846146 327.51585555 338.6419524 C322.72378521 338.63073659 317.9317615 338.64281966 313.13969421 338.65179443 C303.77967485 338.66565549 294.41979131 338.6582247 285.05977853 338.64311885 C274.1438207 338.62617828 263.22789595 338.62947894 252.31192903 338.63321293 C232.83031613 338.63907801 213.34876806 338.62497094 193.86717224 338.6002655 C174.98954338 338.57632891 156.11200106 338.5692707 137.23435974 338.57975769 C116.63779164 338.5911792 96.04126346 338.59308324 75.44469583 338.57865959 C73.24683086 338.57713386 71.04896589 338.57561351 68.85110092 338.57409859 C67.22931634 338.57296187 67.22931634 338.57296187 65.57476843 338.57180218 C57.9758357 338.56707045 50.37692088 338.56890275 42.77798843 338.57316399 C33.51520449 338.57810157 24.25250217 338.57205707 14.98973687 338.55226969 C10.26895315 338.54243161 5.54829345 338.53725489 0.8275032 338.5451622 C-3.50128137 338.5522644 -7.82981666 338.54530937 -12.15856858 338.52755857 C-13.71675124 338.52354347 -15.27495696 338.52446397 -16.83313076 338.53107744 C-25.56470813 338.56493993 -33.58790908 337.91808417 -42.07544768 335.81295449 C-46.84535734 334.72670682 -51.86948545 333.8205316 -56.24562073 336.44621277 C-57.14280823 337.28152527 -57.14280823 337.28152527 -58.05812073 338.13371277 C-60.05216866 339.14552937 -62.05349125 340.14302581 -64.05812073 341.13371277 C-66.63765245 342.54120433 -69.19080847 343.99443349 -71.74562073 345.44621277 C-77.14672244 348.50020995 -82.56459838 351.51562436 -88.01905823 354.47355652 C-92.04400104 356.67227206 -96.05062325 358.90339972 -100.05812073 361.13371277 C-109.88023815 366.59649091 -119.73506774 371.98879068 -129.67018127 377.24357605 C-132.78165416 378.89480151 -135.84941402 380.59054471 -138.88624573 382.37590027 C-142.05812073 384.13371277 -142.05812073 384.13371277 -144.05812073 384.13371277 C-142.18444046 375.77019025 -140.23666548 367.46229613 -137.74562073 359.25871277 C-135.49931267 351.85065681 -133.53889684 344.38295218 -131.62062073 336.88371277 C-129.20291856 327.43251481 -126.6680747 318.02963259 -123.92359924 308.66789246 C-123.47544012 307.13357531 -123.03812752 305.59602078 -122.61500549 304.05461121 C-122.05812073 302.13371277 -122.05812073 302.13371277 -120.99952698 299.46965027 C-121.0721774 296.57331991 -121.71216206 296.10084372 -123.67140198 294.03996277 C-124.89274138 292.89193407 -126.12670974 291.75724527 -127.37062073 290.63371277 C-134.07410593 284.271254 -139.67593642 277.62825974 -145.05812073 270.13371277 C-145.7155426 269.22492371 -146.37296448 268.31613464 -147.05030823 267.37980652 C-148.75361519 264.98567334 -150.41658703 262.57049725 -152.05812073 260.13371277 C-152.47319885 259.52914246 -152.88827698 258.92457214 -153.31593323 258.30168152 C-170.47809149 232.2174741 -177.90773935 201.35796997 -177.62062073 170.44621277 C-177.61735779 169.49069519 -177.61409485 168.53517761 -177.61073303 167.55070496 C-177.50254171 145.76697299 -174.70929843 124.66789064 -165.24562073 104.75871277 C-164.4818512 103.15189636 -164.4818512 103.15189636 -163.70265198 101.51261902 C-163.15995667 100.39757996 -162.61726135 99.28254089 -162.05812073 98.13371277 C-161.76469788 97.5264032 -161.47127502 96.91909363 -161.16896057 96.29338074 C-150.94676434 75.18648921 -134.86314384 51.58446651 -115.05812073 38.13371277 C-114.39812073 38.13371277 -113.73812073 38.13371277 -113.05812073 38.13371277 C-113.05812073 37.47371277 -113.05812073 36.81371277 -113.05812073 36.13371277 C-106.08275473 30.30778632 -97.8333464 25.79095454 -90.05812073 21.13371277 C-89.31046448 20.66965027 -88.56280823 20.20558777 -87.79249573 19.72746277 C-81.28289698 15.85151848 -74.20691676 13.37752401 -67.0927887 10.86125183 C-65.21986181 10.19154675 -63.35898965 9.48837868 -61.49952698 8.78215027 C-41.81204018 1.62705473 -20.79266876 -0.02503287 0 0 Z " fill="#94a3fd" transform="translate(244.05812072753906,129.8662872314453)"/>
<path d="M0 0 C4.09410436 2.08427131 6.29833099 3.76129719 8 8 C8.55051119 12.06091368 8.86946304 15.78275175 6.4375 19.1875 C5.963125 19.785625 5.48875 20.38375 5 21 C4.87511213 26.37017828 7.70155549 29.86709324 10.72265625 34.046875 C12 36 12 36 12 38 C12.82242188 37.54109375 13.64484375 37.0821875 14.4921875 36.609375 C21.1745868 32.9363703 27.77758291 29.49797884 35 27 C35.92941406 26.66226563 36.85882812 26.32453125 37.81640625 25.9765625 C45.79251412 23.37331748 53.74909685 22.22891622 62.0625 21.25 C63.13822266 21.12230225 64.21394531 20.99460449 65.32226562 20.86303711 C88.27624435 18.38100734 111.39559341 20.81963661 133 29 C134.04800781 29.38671875 135.09601563 29.7734375 136.17578125 30.171875 C139.73336028 31.54220174 143.06170741 33.03253663 146.4375 34.8125 C149.03163666 36.37045508 149.03163666 36.37045508 152 35 C153.72526219 32.86410519 153.72526219 32.86410519 155.25 30.25 C156.06210938 28.95835937 156.06210938 28.95835937 156.890625 27.640625 C158.20359718 24.51538136 158.07233213 23.17494415 157 20 C156.01 18.515 156.01 18.515 155 17 C154.45394819 13.60873084 154.45814672 10.39200153 155 7 C157.59863604 3.6287965 160.70531091 0.41522945 165.05078125 -0.37109375 C169.31020603 -0.49615458 172.12290024 -0.39700198 175.5 2.375 C179.45466738 6.52740075 179.51724173 9.62235979 179.48046875 15.2265625 C178.79948804 19.15742673 177.12018145 20.6392532 174.01953125 22.9765625 C171.70001018 24.15202579 169.55997326 24.6020767 167 25 C164.56154416 36.75387728 164.56154416 36.75387728 167.14941406 47.97900391 C170.32862446 51.47490548 174.2266784 54.02854621 178.12841797 56.65380859 C181.03910485 58.74740727 183.41991428 61.21796831 185.8125 63.875 C186.4765686 64.61085327 186.4765686 64.61085327 187.15405273 65.36157227 C207.08015143 88.18130312 212.84068979 114.39311541 211 144 C209.06548255 160.56885862 202.61424709 177.05161137 192.35302734 190.21850586 C190.88796736 192.07694871 190.88796736 192.07694871 189.47265625 194.578125 C178.18588307 213.13992705 158.47095016 228.06659531 139 237 C137.3944907 237.85164035 135.79028692 238.70574713 134.1875 239.5625 C105.65205734 253.64904392 70.32180834 253.55247523 40.4375 243.9375 C21.17619154 237.35680614 4.74864287 226.96466186 -10 213 C-11.10214844 211.95972656 -11.10214844 211.95972656 -12.2265625 210.8984375 C-16.36316102 206.88578201 -19.8893331 202.86041704 -23 198 C-23 197.34 -23 196.68 -23 196 C-23.66 196 -24.32 196 -25 196 C-36.72094702 175.58852176 -43.17525864 158.49695336 -43.1875 134.6875 C-43.19974609 133.44548828 -43.21199219 132.20347656 -43.22460938 130.92382812 C-43.26215372 107.05813944 -35.01653603 85.40736674 -20 67 C-18.68590164 65.25119991 -17.37325892 63.50130445 -16.0625 61.75 C-14.41015625 59.546875 -14.41015625 59.546875 -13 58 C-12.34 58 -11.68 58 -11 58 C-10.67 57.01 -10.34 56.02 -10 55 C-8.61212166 54.11243625 -7.21503702 53.23921386 -5.8125 52.375 C-3.47940856 50.63590072 -3.47940856 50.63590072 -2 48 C-1.89414585 42.84843156 -2.71681609 38.09897824 -3.68359375 33.05859375 C-4.15251912 30.00768427 -4.09730549 27.08134061 -4 24 C-5.051875 23.95875 -6.10375 23.9175 -7.1875 23.875 C-12.06241375 22.75616734 -13.33213807 21.15872596 -16 17 C-17.32880738 13.09662831 -17.10469869 11.33736245 -15.875 7.375 C-12.02663743 0.44794738 -7.65157055 -1.34710749 0 0 Z " fill="#FEFEFE" transform="translate(942,546)"/>
<path d="M0 0 C0.66 0 1.32 0 2 0 C3.72682185 2.04967534 5.34312715 4.10116271 6.9375 6.25 C7.38029297 6.83652344 7.82308594 7.42304688 8.27929688 8.02734375 C9.52562052 9.68044068 10.76387607 11.33926934 12 13 C12.59941406 13.79921875 13.19882812 14.5984375 13.81640625 15.421875 C14.20699219 15.94265625 14.59757813 16.4634375 15 17 C17.475 14.03 17.475 14.03 20 11 C32.06702482 22.03270841 38.24596707 39.98504133 39.10986328 56.04199219 C39.68628559 76.24099246 35.70045835 92.85353811 21.77734375 108.25390625 C14.64225518 115.26354271 6.96414699 120.62159351 -2 125 C-3.01964844 125.51433594 -4.03929687 126.02867187 -5.08984375 126.55859375 C-12.85848801 130.33462569 -20.57944261 133.07652242 -29 135 C-29.65629395 135.15098145 -30.31258789 135.30196289 -30.98876953 135.45751953 C-58.25713951 141.39824314 -91.60146741 141.23043303 -117 129 C-118.41370314 128.38893106 -119.82993888 127.78364447 -121.25 127.1875 C-122.1575 126.795625 -123.065 126.40375 -124 126 C-124.12503906 126.86882812 -124.25007813 127.73765625 -124.37890625 128.6328125 C-124.9765204 131.87270806 -125.84658612 134.77104127 -126.9375 137.875 C-132.90990741 154.90658008 -134.44661003 176.13950949 -127.421875 193.109375 C-126.95265625 194.06328125 -126.4834375 195.0171875 -126 196 C-125.38898438 197.30710937 -125.38898438 197.30710937 -124.765625 198.640625 C-120.50283092 207.00013028 -114.92316418 213.17944563 -106.375 217.25 C-98.74003301 218.94665933 -90.8085786 219.16079803 -84 215 C-81.53419113 212.91286892 -79.16662726 210.743061 -76.8046875 208.5390625 C-66.46983092 199.18299456 -55.02428666 191.11668404 -42 186 C-41.0615625 185.62617188 -40.123125 185.25234375 -39.15625 184.8671875 C-32.48164877 182.40721849 -26.13692194 180.90004429 -19 182 C-18.34 182.66 -17.68 183.32 -17 184 C-14.33050591 184.24315656 -14.33050591 184.24315656 -11.375 184.125 C-10.37210938 184.10695313 -9.36921875 184.08890625 -8.3359375 184.0703125 C-7.56507813 184.04710937 -6.79421875 184.02390625 -6 184 C-6 183.34 -6 182.68 -6 182 C6.50014791 183.08696938 17.66979111 189.70116217 26 199 C26 199.66 26 200.32 26 201 C26.99 201.33 27.98 201.66 29 202 C39.37552456 216.74304517 42.74016949 232.14036577 41 250 C39.48271635 257.68378404 36.10986924 264.3850676 32 271 C31.62488281 271.62261719 31.24976563 272.24523437 30.86328125 272.88671875 C29.97580202 274.30206667 28.99683821 275.65942448 28 277 C27.34 277 26.68 277 26 277 C25.62875 277.86625 25.62875 277.86625 25.25 278.75 C23.81700012 281.32939979 22.21575324 283.06121592 20 285 C19.34 285 18.68 285 18 285 C18 285.66 18 286.32 18 287 C16.02568664 288.42803718 14.07079922 289.72696291 12 291 C10.97003906 291.64839844 9.94007813 292.29679687 8.87890625 292.96484375 C-17.75615577 308.80784295 -50.31309604 309.48904961 -79.9296875 302.05078125 C-83.31786602 301.11291564 -86.65775993 300.08932269 -90 299 C-91.02351563 298.6803125 -92.04703125 298.360625 -93.1015625 298.03125 C-100.24193243 295.74337953 -107.12092735 292.97421551 -114 290 C-114.76957031 289.68289063 -115.53914063 289.36578125 -116.33203125 289.0390625 C-129.64684451 283.42524934 -140.91915705 275.30521783 -151 265 C-151.72960937 264.25621094 -152.45921875 263.51242187 -153.2109375 262.74609375 C-158.91016835 256.66622835 -163.15081653 250.38001343 -167 243 C-167.46277344 242.12730469 -167.92554688 241.25460937 -168.40234375 240.35546875 C-172.21898704 232.61777552 -174.28895119 224.42215234 -176 216 C-176.18022705 215.122229 -176.3604541 214.24445801 -176.54614258 213.34008789 C-178.04931217 205.30821651 -178.34840028 197.47174912 -178.3125 189.3125 C-178.31067719 188.65425232 -178.30885437 187.99600464 -178.30697632 187.31781006 C-178.23076036 170.93708957 -175.3661246 156.4255055 -170 141 C-169.52240234 139.61361328 -169.52240234 139.61361328 -169.03515625 138.19921875 C-164.59283456 126.24498828 -157.06079213 114.06079213 -148 105 C-148.27852579 100.35790355 -149.43182748 96.49259249 -151.28125 92.28515625 C-153.32746266 85.77953448 -153.18235541 78.81734262 -153.1875 72.0625 C-153.19974609 71.22009766 -153.21199219 70.37769531 -153.22460938 69.50976562 C-153.26100189 53.75180816 -146.61757546 39.76467677 -135.875 28.3125 C-123.6558831 16.71680743 -109.95668907 11.23358226 -93.25 11.4375 C-91.3484314 11.45176025 -91.3484314 11.45176025 -89.40844727 11.46630859 C-72.7551955 11.82804035 -57.53278457 16.1110864 -41.74121094 21.03173828 C-33.40405155 23.58799094 -25.32511292 25.61278485 -17 22 C-8.19271828 16.73290015 -3.10662616 9.66505915 0 0 Z " fill="#230801" transform="translate(323,143)"/>
<path d="M0 0 C0.99 0.33 1.98 0.66 3 1 C9.66438093 16.67363663 9.46826414 36.93959191 9.28125 53.6262207 C9.24943226 56.48857406 9.24019164 59.35037591 9.234375 62.21289062 C9.22522573 64.05729839 9.21485669 65.9017006 9.203125 67.74609375 C9.19887512 68.5898204 9.19462524 69.43354706 9.19024658 70.30284119 C9.13767845 74.63990517 8.85937102 78.72940823 8 83 C7.29875 82.54109375 6.5975 82.0821875 5.875 81.609375 C-2.93638619 75.91070676 -10.85514393 71.74410041 -21 69 C-21 69.66 -21 70.32 -21 71 C-23.35346396 72.17673198 -24.8806033 72.16623866 -27.5 72.1875 C-28.2940625 72.20167969 -29.088125 72.21585937 -29.90625 72.23046875 C-32 72 -32 72 -34 70 C-48.56456526 67.39428682 -64.54963199 76.23262384 -76.125 84.1328125 C-81.97261668 88.41410328 -87.4377567 93.02593643 -92.74609375 97.95703125 C-99.92554318 104.4645738 -105.25931114 106.51270607 -114.97265625 106.30859375 C-123.1554898 105.47447265 -129.56198756 100.99103065 -135 95 C-147.57595089 78.15297146 -148.34606869 59.20747929 -147 39 C-146.06663977 32.74597646 -144.21388061 26.9057604 -142 21 C-141.58548584 19.8855249 -141.58548584 19.8855249 -141.16259766 18.74853516 C-140.44775525 16.83010153 -139.72466969 14.91474308 -139 13 C-136.17130775 13.41598415 -133.99421987 14.00296055 -131.4375 15.3125 C-115.93721215 22.92173222 -99.23333407 24.55285838 -82.25 24.375 C-81.46451782 24.37067963 -80.67903564 24.36635925 -79.86975098 24.36190796 C-52.26117551 24.18421096 -24.08131378 19.36999225 -2.1015625 1.37109375 C-1.06128906 0.69240234 -1.06128906 0.69240234 0 0 Z " fill="#FCD4B9" transform="translate(338,256)"/>
<path d="M0 0 C1.10720398 -0.00700928 2.21440796 -0.01401855 3.35516357 -0.02124023 C6.98109715 -0.03871151 10.60623752 -0.02723632 14.23217773 -0.01367188 C16.77082976 -0.0163697 19.30948077 -0.02025454 21.84812927 -0.02526855 C27.1545598 -0.03114877 32.46071109 -0.02303447 37.76708984 -0.00390625 C43.87767914 0.01786837 49.98773456 0.01079545 56.09831101 -0.01121187 C62.00954929 -0.03163843 67.92062356 -0.0293659 73.83189201 -0.01768494 C76.33281467 -0.0150265 78.83375107 -0.01825613 81.33465767 -0.02760315 C84.83544594 -0.03781862 88.33522402 -0.02219678 91.8359375 0 C92.85803818 -0.00809692 93.88013885 -0.01619385 94.93321228 -0.02453613 C104.50489654 0.08728611 112.60346582 2.77537146 119.59155273 9.49414062 C125.80201529 16.62722178 127.19402059 23.524274 126.82592773 32.89648438 C125.65229734 41.88785114 121.31923647 47.1876112 114.53686523 52.92382812 C107.46927372 58.0822849 99.87310629 57.6665844 91.44189453 57.6628418 C89.80903503 57.66787971 89.80903503 57.66787971 88.14318848 57.67301941 C84.55044407 57.68250541 80.95774638 57.68447136 77.36499023 57.68554688 C74.86163819 57.68876114 72.35828634 57.69212534 69.85493469 57.69563293 C64.60869037 57.70161836 59.36245785 57.70351634 54.11621094 57.70288086 C48.73792563 57.70234695 43.35971217 57.70938575 37.98144531 57.72338867 C31.47764977 57.74007909 24.97391872 57.74693581 18.47010231 57.74627113 C15.99626106 57.74744882 13.52241911 57.75185871 11.04858971 57.7596035 C7.58326241 57.76943644 4.11816326 57.76651214 0.65283203 57.76049805 C-0.36201767 57.76611755 -1.37686737 57.77173706 -2.42247009 57.77752686 C-13.1478049 57.73039509 -20.85058968 56.25316443 -28.64672852 48.51757812 C-34.64544932 40.94255113 -36.71234036 33.1080847 -35.64672852 23.51757812 C-33.45201438 15.53062873 -29.64908615 9.13615444 -22.64672852 4.51757812 C-15.04362004 1.03503273 -8.30188397 -0.06589675 0 0 Z " fill="#0F3A45" transform="translate(954.646728515625,670.482421875)"/>
<path d="M0 0 C6.55775179 2.51454334 11.09136964 6.02572674 16 11 C16.81597656 11.76957031 17.63195313 12.53914062 18.47265625 13.33203125 C30.26133596 24.62284817 39.28683096 37.10798349 46 52 C46.44730469 52.88558594 46.89460938 53.77117188 47.35546875 54.68359375 C61.29274944 82.85834272 61.87479261 118.61029606 52.3125 148.1875 C49.3382144 156.85414846 45.40063814 164.97706788 41 173 C40.49597656 173.92296875 39.99195313 174.8459375 39.47265625 175.796875 C35.59821774 182.53689546 31.06785765 189.10101369 26 195 C25.34 195 24.68 195 24 195 C23.7525 195.5775 23.505 196.155 23.25 196.75 C21.81700012 199.32939979 20.21575324 201.06121592 18 203 C17.34 203 16.68 203 16 203 C15.67 203.99 15.34 204.98 15 206 C13.11767296 207.66627378 11.25600117 209.18451075 9.25 210.6875 C8.66871338 211.12739258 8.08742676 211.56728516 7.48852539 212.02050781 C1.5666701 216.43258909 -4.58386965 220.33703039 -11 224 C-11.95261719 224.54527344 -12.90523437 225.09054687 -13.88671875 225.65234375 C-22.21355001 230.11679762 -30.91774816 232.59528999 -40 235 C-41.14597656 235.31066406 -42.29195312 235.62132812 -43.47265625 235.94140625 C-61.36520007 240.62377865 -81.90647594 240.93534148 -100 237 C-101.155 236.75507812 -102.31 236.51015625 -103.5 236.2578125 C-131.74810536 229.49502456 -153.97793292 213.6187512 -174 193 C-173.505 192.01 -173.505 192.01 -173 191 C-171.94425781 191.94359375 -171.94425781 191.94359375 -170.8671875 192.90625 C-143.25814374 216.83889367 -107.97878245 226.06506165 -72 224 C-38.1525881 221.29521237 -6.48677806 202.81114041 15.765625 177.65625 C19.19842298 173.57530136 22.34284833 169.63262569 25 165 C25.61617187 163.95585938 26.23234375 162.91171875 26.8671875 161.8359375 C28.95935618 158.25032366 30.99219012 154.63342506 33 151 C33.48082031 150.13503906 33.96164062 149.27007813 34.45703125 148.37890625 C45.19257498 127.07822424 46.0316076 100.57796133 40.17578125 77.79296875 C34.94080551 61.99329085 26.72831201 49.23305838 15.6875 36.875 C15.23834229 36.36815674 14.78918457 35.86131348 14.32641602 35.33911133 C11.91903169 32.72691526 9.58975869 30.63343826 6.5625 28.76171875 C3.03114875 26.51051379 0.3844421 24.54420704 -2 21 C-2.91398025 13.9928181 -1.44877542 6.85236731 0 0 Z " fill="#6768CA" transform="translate(1109,571)"/>
<path d="M0 0 C8.09751504 4.46462631 16.09980962 7.97736141 24.9453125 10.75 C25.69296875 10.99621094 26.440625 11.24242187 27.2109375 11.49609375 C36.99007518 14.37815669 46.87063156 13.23894217 55.9453125 8.75 C63.6706403 3.46708085 69.28469919 -3.20497386 71.4609375 -12.4375 C71.80927996 -14.52365216 71.80927996 -14.52365216 71.9453125 -17.25 C78.62845613 -7.22528456 77.4696273 10.71497044 75.54248047 22.13769531 C73.52451481 30.57081068 69.52012042 38.43267157 64.9453125 45.75 C64.51863281 46.45511719 64.09195313 47.16023438 63.65234375 47.88671875 C54.55616047 61.46430611 36.92639801 69.79349704 21.34375 73.10546875 C13.31207873 74.49621016 5.05616912 74.04917094 -3.0546875 73.75 C0.17733767 71.59531655 2.70038304 70.91101595 6.4453125 69.9375 C15.97251859 67.27851663 24.12685955 63.65944995 32.16796875 57.88671875 C33.9453125 56.75 33.9453125 56.75 35.9453125 56.75 C35.9453125 56.09 35.9453125 55.43 35.9453125 54.75 C38.3203125 52.125 38.3203125 52.125 40.9453125 49.75 C41.6053125 49.75 42.2653125 49.75 42.9453125 49.75 C42.9453125 49.09 42.9453125 48.43 42.9453125 47.75 C42.42098633 47.926521 41.89666016 48.10304199 41.35644531 48.28491211 C38.96993242 49.08736519 36.58263353 49.88745453 34.1953125 50.6875 C33.3703125 50.96529297 32.5453125 51.24308594 31.6953125 51.52929688 C30.89609375 51.79677734 30.096875 52.06425781 29.2734375 52.33984375 C28.5402832 52.58597412 27.80712891 52.83210449 27.05175781 53.08569336 C23.10017947 54.33189696 19.66711351 54.90865603 15.5078125 54.9375 C14.58097656 54.95167969 13.65414062 54.96585937 12.69921875 54.98046875 C9.76697877 54.73507562 7.60669861 53.97201577 4.9453125 52.75 C4.9453125 52.09 4.9453125 51.43 4.9453125 50.75 C6.2034375 50.523125 7.4615625 50.29625 8.7578125 50.0625 C18.11743711 47.9580561 27.10717084 43.58814166 33.9453125 36.75 C32.27855469 36.51216797 32.27855469 36.51216797 30.578125 36.26953125 C21.93086217 34.95078717 14.44448336 33.49337799 6.9453125 28.75 C5.93597656 28.11449219 4.92664063 27.47898438 3.88671875 26.82421875 C-1.3748375 23.40452919 -6.2883152 19.81885441 -11.0546875 15.75 C-12.71517525 14.73977319 -14.38304173 13.74165427 -16.0546875 12.75 C-17.72684329 11.66519642 -19.39880533 10.58007378 -21.06640625 9.48828125 C-33.42215671 1.42086067 -42.91536766 -2.22002507 -58.0546875 -1.25 C-67.85378148 0.85201385 -74.16615097 7.27724489 -79.7421875 15.125 C-82.90643705 21.45349911 -84.41679153 27.7331443 -85.0546875 34.75 C-87.86056812 31.94411938 -87.35451292 30.10394546 -87.3671875 26.1875 C-87.18303846 15.56101712 -83.83421622 8.53550345 -78.0546875 -0.25 C-77.4771875 -1.136875 -76.8996875 -2.02375 -76.3046875 -2.9375 C-51.94036467 -27.97860958 -25.43327847 -14.12259389 0 0 Z " fill="#331A13" transform="translate(273.0546875,188.25)"/>
<path d="M0 0 C3.27441235 3.89208559 5.91987717 7.95009508 8.5 12.3125 C8.89727295 12.9818457 9.2945459 13.65119141 9.70385742 14.34082031 C14.40947951 22.32435252 18.06997563 30.18721352 21 39 C21.35320312 40.0621875 21.70640625 41.124375 22.0703125 42.21875 C32.55296916 76.07384855 26.99251368 111.34494013 11.3125 142.5 C11.00505859 143.11875 10.69761719 143.7375 10.38085938 144.375 C8.1268544 148.8731456 8.1268544 148.8731456 7 150 C6.76712992 151.68183948 6.58735834 153.3712416 6.4375 155.0625 C6.35371094 155.98160156 6.26992188 156.90070313 6.18359375 157.84765625 C6.09271484 158.91306641 6.09271484 158.91306641 6 160 C5.67 160 5.34 160 5 160 C4.97421875 159.14019531 4.9484375 158.28039062 4.921875 157.39453125 C4.3242065 144.93857629 1.77908746 129.49631996 -7.69212341 120.36938477 C-11.38609393 116.74185095 -13.45205153 114.10158744 -13.74707031 108.83520508 C-13.72583697 106.89594557 -13.66755601 104.95684392 -13.578125 103.01953125 C-13.56110535 101.97085373 -13.54408569 100.92217621 -13.52655029 99.84172058 C-13.4678388 96.49691677 -13.36221252 93.15590106 -13.25 89.8125 C-12.71256112 70.46041221 -13.15097889 51.92730547 -18.44921875 33.1796875 C-19 31 -19 31 -19 28 C-17.87459606 26.84049291 -16.73965713 25.68896026 -15.5625 24.58203125 C-8.58820216 17.52055468 -3.22300376 9.34671091 0 0 Z " fill="#6768CA" transform="translate(359,226)"/>
<path d="M0 0 C0.04898438 1.24394531 0.09796875 2.48789063 0.1484375 3.76953125 C0.49089644 19.18512124 0.49089644 19.18512124 4.625 33.875 C6.02645381 37.06012229 6.36405001 38.59692384 6 42 C4.78515625 43.74609375 4.78515625 43.74609375 3.0625 45.4375 C-16.59036053 66.56532167 -24.41160583 97.34828994 -24.375 125.5 C-24.37338867 126.80428955 -24.37177734 128.1085791 -24.37011719 129.45239258 C-24.13585901 148.14137203 -20.20591992 164.56080978 -12.0625 181.3125 C-11.73862305 181.98321533 -11.41474609 182.65393066 -11.08105469 183.3449707 C-8.85865994 187.76493205 -6.29334458 191.30572652 -3 195 C-3.33 195.66 -3.66 196.32 -4 197 C-18.62581235 186.12439594 -29.69406475 167.41438472 -37 151 C-37.69029297 149.46859375 -37.69029297 149.46859375 -38.39453125 147.90625 C-44.93103196 132.26604287 -46.37055465 117.2958509 -46.375 100.5625 C-46.37690338 99.78518524 -46.37880676 99.00787048 -46.38076782 98.20700073 C-46.3716396 65.23803099 -34.14408757 33.69363277 -11.5625 9.375 C-1.44736842 0 -1.44736842 0 0 0 Z " fill="#6768CA" transform="translate(170,206)"/>
<path d="M0 0 C4.02984638 6.8843209 3.84047912 14.21536816 3 22 C0.6383428 30.51109311 -5.46268571 36.63440445 -12.90234375 41.15625 C-18.9389807 43.58439447 -25.51946266 43.14810103 -31.91137695 43.14526367 C-33.54423645 43.15030159 -33.54423645 43.15030159 -35.21008301 43.15544128 C-38.80282742 43.16492729 -42.3955251 43.16689324 -45.98828125 43.16796875 C-48.49163329 43.17118301 -50.99498514 43.17454721 -53.49833679 43.17805481 C-58.74458112 43.18404023 -63.99081363 43.18593822 -69.23706055 43.18530273 C-74.61534585 43.18476882 -79.99355932 43.19180762 -85.37182617 43.20581055 C-91.87562172 43.22250096 -98.37935276 43.22935769 -104.88316917 43.22869301 C-107.35701042 43.22987069 -109.83085237 43.23428059 -112.30468178 43.24202538 C-115.77000908 43.25185832 -119.23510823 43.24893402 -122.70043945 43.24291992 C-123.71528915 43.24853943 -124.73013885 43.25415894 -125.77574158 43.25994873 C-132.91814427 43.22856192 -139.92178451 43.05214366 -146 39 C-145.76757812 37.15478516 -145.76757812 37.15478516 -145 35 C-138.51701265 30.32641785 -130.01780463 28.07785467 -122.5 25.625 C-121.32800049 25.23997314 -120.15600098 24.85494629 -118.94848633 24.45825195 C-99.55938217 18.18122252 -80.12046191 13.24588614 -60 10 C-59.71125 11.10601563 -59.4225 12.21203125 -59.125 13.3515625 C-57.96325121 17.11917836 -57.00515456 18.55831192 -54 21 C-51.2201184 22.3899408 -49.0813674 22.18488204 -46 22 C-42.65734795 20.79293121 -42.05295434 20.07943151 -40 17 C-39.75812349 14.25481679 -39.75812349 14.25481679 -39.875 11.3125 C-39.89304687 10.31863281 -39.91109375 9.32476563 -39.9296875 8.30078125 C-39.95289063 7.54152344 -39.97609375 6.78226563 -40 6 C-9.77729258 0 -9.77729258 0 0 0 Z " fill="#012D38" transform="translate(1078,685)"/>
<path d="M0 0 C1.9296875 1.8359375 1.9296875 1.8359375 3 4 C2.85315086 8.76301983 1.23882329 11.60594685 -1.5625 15.375 C-2.20316406 16.24898437 -2.84382813 17.12296875 -3.50390625 18.0234375 C-3.99761719 18.67570313 -4.49132813 19.32796875 -5 20 C-9.53885347 18.84303735 -13.01552773 17.39794987 -17 15 C-20.59636204 13.46204355 -24.2923811 12.24209903 -28 11 C-28.96164062 10.65710938 -29.92328125 10.31421875 -30.9140625 9.9609375 C-38.86497304 7.37639834 -46.77701015 6.2250058 -55.0625 5.25 C-56.67620483 5.05845337 -56.67620483 5.05845337 -58.32250977 4.86303711 C-79.91912191 2.52760288 -102.6205518 4.20285713 -123 12 C-124.42119141 12.51240234 -124.42119141 12.51240234 -125.87109375 13.03515625 C-130.92180227 14.93397665 -135.54756735 17.29605779 -140.1875 20.046875 C-142 21 -142 21 -144 21 C-144.99 19.02 -145.98 17.04 -147 15 C-131.36424707 2.82946799 -115.64147426 -5.43688185 -96.75 -11.3125 C-95.9468335 -11.56725098 -95.14366699 -11.82200195 -94.31616211 -12.08447266 C-65.84997812 -20.60081647 -25.17579742 -16.45820787 0 0 Z " fill="#6768CA" transform="translate(1098,563)"/>
<path d="M0 0 C0.85269722 -0.00521549 1.70539444 -0.01043099 2.58393097 -0.01580453 C3.99723316 -0.00911236 3.99723316 -0.00911236 5.43908691 -0.002285 C6.43577141 -0.00540498 7.4324559 -0.00852497 8.45934296 -0.01173949 C11.82048851 -0.01975762 15.18145543 -0.01338102 18.54260254 -0.00710678 C20.94356391 -0.00981495 23.34452445 -0.0133749 25.7454834 -0.0177269 C31.60267719 -0.02592263 37.45982409 -0.02469161 43.3170166 -0.01890162 C48.07572857 -0.01439157 52.83442616 -0.01376937 57.59313965 -0.01594925 C58.26947937 -0.01625572 58.94581908 -0.01656218 59.64265394 -0.01687793 C61.01646742 -0.01751736 62.39028089 -0.01816579 63.76409435 -0.01882312 C76.65745407 -0.02453122 89.55078538 -0.01796101 102.44414043 -0.00722238 C113.51603787 0.00171357 124.58789336 0.00016166 135.65979004 -0.00905991 C148.50585878 -0.01975408 161.35190259 -0.02398185 174.19797516 -0.01783538 C175.56683858 -0.01719826 176.935702 -0.01656951 178.30456543 -0.01594925 C179.31492269 -0.01548642 179.31492269 -0.01548642 180.3456912 -0.01501425 C185.10070613 -0.01328474 189.85570529 -0.0162079 194.61071777 -0.02090836 C201.00625836 -0.02709133 207.40173822 -0.02271245 213.79727173 -0.01111984 C216.15076566 -0.00846521 218.50426624 -0.00925192 220.85775757 -0.01364517 C224.05813618 -0.0190705 227.25825624 -0.01230329 230.45861816 -0.002285 C231.87192036 -0.00897717 231.87192036 -0.00897717 233.31377411 -0.01580453 C234.16647133 -0.01058903 235.01916855 -0.00537354 235.89770508 0 C236.63707558 0.0003247 237.37644608 0.00064941 238.13822174 0.00098395 C239.94885254 0.25168228 239.94885254 0.25168228 241.94885254 2.25168228 C242.19885254 5.25168228 242.19885254 5.25168228 241.94885254 8.25168228 C239.57414762 10.6263872 239.12098332 10.50194902 235.89770508 10.50336456 C235.04500786 10.50858006 234.19231064 10.51379555 233.31377411 10.51916909 C232.37157265 10.51470765 231.42937119 10.51024621 230.45861816 10.50564957 C229.46193367 10.50876955 228.46524918 10.51188953 227.43836212 10.51510406 C224.07721657 10.52312218 220.71624964 10.51674558 217.35510254 10.51047134 C214.95414117 10.51317951 212.55318063 10.51673946 210.15222168 10.52109146 C204.29502789 10.52928719 198.43788099 10.52805617 192.58068848 10.52226618 C187.82197651 10.51775613 183.06327892 10.51713393 178.30456543 10.51931381 C177.29005585 10.51977351 177.29005585 10.51977351 176.25505114 10.5202425 C174.88123766 10.52088192 173.50742419 10.52153035 172.13361073 10.52218768 C159.24025101 10.52789578 146.3469197 10.52132557 133.45356464 10.51058695 C122.38166721 10.501651 111.30981171 10.5032029 100.23791504 10.51242447 C87.3918463 10.52311864 74.54580248 10.52734641 61.69972992 10.52119994 C60.3308665 10.52056282 58.96200308 10.51993408 57.59313965 10.51931381 C56.91956814 10.51900526 56.24599664 10.51869671 55.55201387 10.51837881 C50.79699895 10.5166493 46.04199979 10.51957246 41.2869873 10.52427292 C34.89144671 10.53045589 28.49596686 10.52607702 22.10043335 10.51448441 C19.74693942 10.51182978 17.39343884 10.51261648 15.03994751 10.51700974 C11.8395689 10.52243506 8.63944883 10.51566785 5.43908691 10.50564957 C4.49688545 10.51011101 3.55468399 10.51457245 2.58393097 10.51916909 C1.73123375 10.5139536 0.87853653 10.5087381 0 10.50336456 C-0.7393705 10.50303986 -1.478741 10.50271515 -2.24051666 10.50238061 C-4.05114746 10.25168228 -4.05114746 10.25168228 -6.05114746 8.25168228 C-6.30114746 5.25168228 -6.30114746 5.25168228 -6.05114746 2.25168228 C-3.67644254 -0.12302263 -3.22327824 0.00141555 0 0 Z " fill="#F2FAFE" transform="translate(426.0511474609375,250.74831771850586)"/>
<path d="M0 0 C0.74295033 0.00021737 1.48590067 0.00043474 2.25136465 0.00065869 C3.10816196 -0.0039401 3.96495928 -0.0085389 4.84772015 -0.01327705 C5.79449468 -0.00813349 6.74126921 -0.00298993 7.71673387 0.0023095 C9.21894429 -0.00131212 9.21894429 -0.00131212 10.75150239 -0.00500691 C14.12880749 -0.01067153 17.50592574 -0.00195998 20.88322252 0.00662774 C23.29565794 0.00555555 25.70809311 0.00361781 28.12052721 0.00087517 C34.00546363 -0.0034806 39.89034911 0.00148308 45.77527583 0.01072548 C52.62220655 0.02109351 59.46912505 0.02103972 66.31606214 0.0205529 C78.52840221 0.02005194 90.74071611 0.02922312 102.95304674 0.04373711 C114.8156818 0.05782829 126.67829382 0.06490778 138.54093736 0.06424493 C139.63702196 0.06418499 139.63702196 0.06418499 140.75524969 0.06412385 C141.48468339 0.06408349 142.21411709 0.06404314 142.96565485 0.06400156 C156.45382187 0.06331249 169.94197906 0.06919698 183.4301429 0.07815478 C188.20816421 0.08117657 192.98618372 0.08223498 197.76420587 0.08268708 C204.18845701 0.08343871 210.61268859 0.08976366 217.03693193 0.09985322 C219.40213363 0.10278635 221.76733815 0.10400195 224.1325416 0.10342568 C227.3463417 0.10293876 230.56007231 0.10855324 233.77386278 0.11583489 C234.72286803 0.11428629 235.67187328 0.11273769 236.64963627 0.11114216 C243.06762802 0.13536918 243.06762802 0.13536918 244.1818065 1.24954766 C244.3068065 4.74954766 244.3068065 4.74954766 244.1818065 8.24954766 C242.22982023 10.20153393 239.24865631 9.37814222 236.64963627 9.38795316 C235.22612839 9.38563026 235.22612839 9.38563026 233.77386278 9.38326043 C232.27399235 9.38665876 232.27399235 9.38665876 230.7438215 9.39012575 C227.36579787 9.39649733 223.98781403 9.39563438 220.60978502 9.39481133 C218.19911961 9.39780085 215.78845468 9.40120289 213.37779039 9.40498894 C207.49306824 9.41293174 201.60835554 9.4160445 195.72362912 9.41660132 C190.9424895 9.41707573 186.1613532 9.41912669 181.38021463 9.42230195 C167.83855797 9.43111286 154.29690924 9.43572064 140.75524969 9.43497147 C140.02452662 9.43493152 139.29380355 9.43489156 138.54093736 9.43485039 C137.80932687 9.43480951 137.07771637 9.43476863 136.32393586 9.43472651 C124.46249415 9.43431991 112.60108416 9.4438918 100.73965163 9.45798876 C88.57389454 9.47233385 76.40815294 9.47925998 64.24238718 9.47839499 C57.40681199 9.47806237 50.57127005 9.48083764 43.73570246 9.49157304 C37.30981299 9.50159997 30.88397575 9.50136184 24.45808214 9.4940564 C22.09329877 9.49300539 19.7285111 9.49540376 17.36373514 9.50141686 C14.14798354 9.50906716 10.93247965 9.50453854 7.71673387 9.49678582 C6.76995934 9.50192938 5.82318481 9.50707295 4.84772015 9.51237237 C3.56252417 9.50547418 3.56252417 9.50547418 2.25136465 9.49843663 C1.13693915 9.49876268 1.13693915 9.49876268 0 9.49909532 C-1.8181935 9.24954766 -1.8181935 9.24954766 -3.8181935 7.24954766 C-4.0681935 4.74954766 -4.0681935 4.74954766 -3.8181935 2.24954766 C-1.8181935 0.24954766 -1.8181935 0.24954766 0 0 Z " fill="#F9FDFE" transform="translate(608.8181934952736,626.7504523396492)"/>
<path d="M0 0 C1.20523743 23.43517219 -3.96311664 46.54632483 -18.70751953 65.3112793 C-20.11544831 67.07442101 -20.11544831 67.07442101 -21.4375 69.5 C-23.83689838 73.33903741 -26.75066054 76.84461735 -30 80 C-30.66 80 -31.32 80 -32 80 C-36.38934946 59.59475041 -37.95158582 38.07968739 -26.7421875 19.453125 C-21.3935199 11.92181726 -9.99860964 0 0 0 Z " fill="#E3E7E9" transform="translate(1153,671)"/>
<path d="M0 0 C1.0264563 -0.00281982 2.0529126 -0.00563965 3.11047363 -0.00854492 C4.8139093 -0.00550858 4.8139093 -0.00550858 6.55175781 -0.00241089 C7.74023315 -0.00416321 8.9287085 -0.00591553 10.15319824 -0.00772095 C13.42171057 -0.01137906 16.6901827 -0.01050607 19.95869446 -0.00734186 C23.37220345 -0.00481783 26.78570966 -0.00715592 30.19921875 -0.00872803 C35.93262213 -0.0105496 41.66601264 -0.00814375 47.39941406 -0.00338745 C54.03694057 0.00205515 60.67443637 0.00029248 67.31196213 -0.00521386 C73.00112548 -0.00974535 78.69027955 -0.01039536 84.37944412 -0.00777519 C87.78157302 -0.00621261 91.18368745 -0.00601811 94.58581543 -0.00931168 C98.37656769 -0.01183645 102.16726004 -0.00800007 105.95800781 -0.00241089 C107.66144348 -0.00544724 107.66144348 -0.00544724 109.39929199 -0.00854492 C110.42574829 -0.0057251 111.45220459 -0.00290527 112.50976562 0 C113.40721497 0.00037703 114.30466431 0.00075405 115.22930908 0.0011425 C117.25488281 0.12698364 117.25488281 0.12698364 118.25488281 1.12698364 C118.37988281 4.62698364 118.37988281 4.62698364 118.25488281 8.12698364 C116.61845799 9.76340846 114.76718014 9.25301893 112.50976562 9.25396729 C111.48330933 9.25678711 110.45685303 9.25960693 109.39929199 9.26251221 C108.26366821 9.26048798 107.12804443 9.25846375 105.95800781 9.25637817 C104.76953247 9.25813049 103.58105713 9.25988281 102.35656738 9.26168823 C99.08805505 9.26534635 95.81958293 9.26447336 92.55107117 9.26130915 C89.13756218 9.25878511 85.72405596 9.26112321 82.31054688 9.26269531 C76.5771435 9.26451688 70.84375299 9.26211103 65.11035156 9.25735474 C58.47282506 9.25191214 51.83532926 9.2536748 45.1978035 9.25918114 C39.50864015 9.26371264 33.81948607 9.26436264 28.1303215 9.26174247 C24.72819261 9.2601799 21.32607817 9.2599854 17.9239502 9.26327896 C14.13319793 9.26580374 10.34250558 9.26196735 6.55175781 9.25637817 C5.41613403 9.2584024 4.28051025 9.26042664 3.11047363 9.26251221 C2.08401733 9.25969238 1.05756104 9.25687256 0 9.25396729 C-0.89744934 9.25359026 -1.79489868 9.25321323 -2.71954346 9.25282478 C-4.74511719 9.12698364 -4.74511719 9.12698364 -5.74511719 8.12698364 C-5.87011719 4.62698364 -5.87011719 4.62698364 -5.74511719 1.12698364 C-4.10869237 -0.50944118 -2.25741451 0.00094836 0 0 Z " fill="#F7FCFE" transform="translate(549.7451171875,295.8730163574219)"/>
<path d="M0 0 C1.01941681 -0.00281982 2.03883362 -0.00563965 3.08914185 -0.00854492 C4.21181961 -0.00652069 5.33449738 -0.00449646 6.49119568 -0.00241089 C7.67006348 -0.00416321 8.84893127 -0.00591553 10.06352234 -0.00772095 C13.30098487 -0.01137495 16.53840671 -0.01050881 19.77586865 -0.00734186 C23.15867529 -0.00481514 26.54147915 -0.00715662 29.92428589 -0.00872803 C35.6046345 -0.01054856 41.28497013 -0.0081462 46.96531677 -0.00338745 C53.54094818 0.00205756 60.1165486 0.00029031 66.69217926 -0.00521386 C72.3304078 -0.00974518 77.96862699 -0.01039552 83.60685676 -0.00777519 C86.97767167 -0.00621286 90.34847199 -0.00601751 93.71928596 -0.00931168 C97.47400671 -0.01183633 101.22866697 -0.00800037 104.98338318 -0.00241089 C106.10808517 -0.00443512 107.23278717 -0.00645935 108.39157104 -0.00854492 C109.40816803 -0.0057251 110.42476501 -0.00290527 111.47216797 0 C112.80533224 0.00056554 112.80533224 0.00056554 114.16542912 0.0011425 C116.17259216 0.12698364 116.17259216 0.12698364 117.17259216 1.12698364 C117.29759216 4.62698364 117.29759216 4.62698364 117.17259216 8.12698364 C115.54296413 9.75661167 113.72223555 9.25645377 111.47216797 9.26069641 C109.94727249 9.26709389 109.94727249 9.26709389 108.39157104 9.27362061 C107.26686905 9.27316742 106.14216705 9.27271423 104.98338318 9.27224731 C103.8062677 9.27560593 102.62915222 9.27896454 101.41636658 9.28242493 C98.17878148 9.29032048 94.94123477 9.29360386 91.70364118 9.29424071 C89.00471018 9.29518824 86.30578538 9.29886474 83.60685676 9.30241281 C77.24131421 9.31056483 70.87578582 9.31299637 64.51023865 9.31228638 C57.93519237 9.31168541 51.36022809 9.32223919 44.78520256 9.33803004 C39.14782656 9.35108851 33.51047741 9.35647099 27.87308639 9.35583097 C24.50275955 9.35557547 21.13250552 9.3584547 17.76219368 9.36900902 C14.00512415 9.37875156 10.24826829 9.37595363 6.49119568 9.36990356 C5.36851791 9.37552307 4.24584015 9.38114258 3.08914185 9.38693237 C1.56001663 9.38064064 1.56001663 9.38064064 0 9.3742218 C-0.8891532 9.37476657 -1.77830641 9.37531134 -2.69440365 9.37587261 C-4.82740784 9.12698364 -4.82740784 9.12698364 -6.82740784 7.12698364 C-6.95240784 4.00198364 -6.95240784 4.00198364 -6.82740784 1.12698364 C-4.36412591 -0.10465732 -2.75517049 0.00116827 0 0 Z " fill="#FCFEFE" transform="translate(426.82740783691406,338.8730163574219)"/>
<path d="M0 0 C1.33875687 0.00303635 1.33875687 0.00303635 2.70455933 0.00613403 C4.10688309 0.00350555 4.10688309 0.00350555 5.53753662 0.00082397 C8.6440107 -0.00359617 11.75042837 -0.00065598 14.85690308 0.00271606 C17.00542207 0.00204307 19.15394099 0.00107309 21.30245972 -0.00018311 C25.81182579 -0.0016603 30.3211721 0.00049517 34.83053589 0.00515747 C40.62488885 0.01085477 46.41919549 0.00757588 52.21354675 0.00158501 C56.65203198 -0.00202002 61.09050614 -0.00088229 65.5289917 0.0017128 C67.66613775 0.00238223 69.80328479 0.00155309 71.94042969 -0.00076675 C74.92172934 -0.00329233 77.90295288 0.00054597 80.88424683 0.00613403 C81.7767514 0.0041098 82.66925598 0.00208557 83.58880615 0 C89.68014075 0.02126624 89.68014075 0.02126624 90.79440308 1.13552856 C90.91940308 4.63552856 90.91940308 4.63552856 90.79440308 8.13552856 C88.91010416 10.01982748 86.17145913 9.26875797 83.66337585 9.28216553 C82.78179306 9.28171234 81.90021027 9.28125916 80.99191284 9.28079224 C80.0683902 9.28415085 79.14486755 9.28750946 78.19335938 9.29096985 C75.12416254 9.30051055 72.05502008 9.30242451 68.98580933 9.30349731 C66.86210609 9.30670769 64.73840308 9.31007158 62.61470032 9.31358337 C58.15661099 9.31958243 53.69854108 9.32142248 49.240448 9.3208313 C43.5156607 9.32072962 37.79099727 9.33438406 32.06623936 9.35160351 C27.6783236 9.36269816 23.29043804 9.36475129 18.90250969 9.36422157 C16.79130565 9.36540544 14.68010092 9.3698498 12.5689106 9.37755394 C9.62128032 9.38730301 6.67392209 9.38449602 3.72628784 9.37844849 C2.84672928 9.38406799 1.96717072 9.3896875 1.06095886 9.39547729 C-4.9772817 9.36384379 -4.9772817 9.36384379 -7.20559692 7.13552856 C-7.39309692 4.07302856 -7.39309692 4.07302856 -7.20559692 1.13552856 C-5.30807789 -0.76199047 -2.52501922 0.00881542 0 0 Z " fill="#F7FCFE" transform="translate(427.2055969238281,295.8644714355469)"/>
<path d="M0 0 C0.87955856 0.00561951 1.75911713 0.01123901 2.66532898 0.01702881 C3.59060394 0.01513046 4.51587891 0.01323212 5.4691925 0.01127625 C8.53783043 0.0075614 11.60623345 0.018282 14.67485046 0.02947998 C16.79951957 0.0306714 18.92418921 0.03112502 21.04885864 0.03086853 C25.50519601 0.03243458 29.96145319 0.04073407 34.41777039 0.05413818 C40.14371938 0.07113849 45.86958022 0.07495231 51.59555149 0.074193 C55.98342742 0.07446428 60.37128389 0.07993859 64.75915337 0.08719444 C66.87117808 0.09038716 68.98320501 0.09234992 71.09523201 0.09308815 C74.04051127 0.09524477 76.98569506 0.10397392 79.93095398 0.11468506 C80.81253677 0.11423187 81.69411957 0.11377869 82.60241699 0.11331177 C88.61897016 0.14547468 88.61897016 0.14547468 89.73344421 1.25994873 C89.85844421 4.75994873 89.85844421 4.75994873 89.73344421 8.25994873 C87.84914529 10.14424765 85.11050027 9.39317814 82.60241699 9.40658569 C81.7208342 9.40613251 80.8392514 9.40567932 79.93095398 9.4052124 C79.00743134 9.40857101 78.08390869 9.41192963 77.13240051 9.41539001 C74.06320368 9.42493072 70.99406122 9.42684467 67.92485046 9.42791748 C65.80114723 9.43112785 63.67744422 9.43449175 61.55374146 9.43800354 C57.09565213 9.4440026 52.63758221 9.44584264 48.17948914 9.44525146 C42.45470183 9.44514979 36.73003841 9.45880423 31.00528049 9.47602367 C26.61736474 9.48711833 22.22947918 9.48917146 17.84155083 9.48864174 C15.73034678 9.48982561 13.61914205 9.49426996 11.50795174 9.50197411 C8.56032146 9.51172317 5.61296323 9.50891618 2.66532898 9.50286865 C1.78577042 9.50848816 0.90621185 9.51410767 0 9.51989746 C-6.03824056 9.48826395 -6.03824056 9.48826395 -8.26655579 7.25994873 C-8.51655579 4.75994873 -8.51655579 4.75994873 -8.26655579 2.25994873 C-5.60371736 -0.40288969 -3.62123084 0.01897113 0 0 Z " fill="#FAFCFE" transform="translate(613.2665557861328,670.7400512695313)"/>
<path d="M0 0 C3.0717718 1.71077974 5.40485654 3.80971307 7 7 C7.64941967 11.51641858 8.2890838 16.11902702 5.61328125 20.0234375 C1.99050328 23.24543092 -0.04991129 24.00998226 -5 25 C-5.33 32.26 -5.66 39.52 -6 47 C-7.485 47.495 -7.485 47.495 -9 48 C-9 48.66 -9 49.32 -9 50 C-14.37656087 50.27338445 -17.56699758 50.38994303 -22 47 C-22.66 46.34 -23.32 45.68 -24 45 C-23.65448275 40.97126886 -22.07825069 37.93100062 -20.125 34.4375 C-19.61195312 33.50808594 -19.09890625 32.57867188 -18.5703125 31.62109375 C-17 29 -17 29 -15.29296875 26.8203125 C-13.72486495 25.02201983 -13.72486495 25.02201983 -14.1875 22.4375 C-14.95249269 19.78621711 -14.95249269 19.78621711 -17 17 C-17.54605181 13.60873084 -17.54185328 10.39200153 -17 7 C-12.30252587 0.90597951 -7.51363293 -1.29280567 0 0 Z " fill="#F7FBFC" transform="translate(1114,546)"/>
<path d="M0 0 C3.21954645 2.53453657 4.70432435 4.11297305 6 8 C6.09790503 10.8853187 6.14190375 13.74028831 6.125 16.625 C6.12161621 17.43662598 6.11823242 18.24825195 6.11474609 19.08447266 C5.9863536 33.9511288 5.9863536 33.9511288 3 39 C0.00818583 40.49590709 -1.6416206 40.42743011 -5 40 C-11.00394018 37.51597545 -14.38344275 34.15610349 -17.0625 28.25 C-19.61227055 21.09647706 -20.45772517 14.74222627 -17.4375 7.625 C-13.52092909 0.8362771 -7.50795996 -1.08986516 0 0 Z " fill="#F9D1B7" transform="translate(179,281)"/>
<path d="M0 0 C4.09410436 2.08427131 6.29833099 3.76129719 8 8 C8.55051119 12.06091368 8.86946304 15.78275175 6.4375 19.1875 C5.963125 19.785625 5.48875 20.38375 5 21 C4.8761942 26.3236493 7.64061533 29.79547181 10.625 33.94921875 C12 36 12 36 13 39 C12.24074219 39.48210938 11.48148438 39.96421875 10.69921875 40.4609375 C9.70535156 41.09257813 8.71148438 41.72421875 7.6875 42.375 C6.70136719 43.00148438 5.71523438 43.62796875 4.69921875 44.2734375 C2.78712071 45.49651613 0.8885966 46.7409356 -1 48 C-3.0946225 40.04043449 -3.58994384 32.19033227 -4 24 C-5.09570312 23.89042969 -6.19140625 23.78085937 -7.3203125 23.66796875 C-11 23 -11 23 -13.875 20.3125 C-16.09087924 16.8583353 -17 15.07891625 -17 11 C-14.20205222 1.98439047 -9.25953937 -1.63020059 0 0 Z " fill="#F8FBFD" transform="translate(942,546)"/>
<path d="M0 0 C12.54 0 25.08 0 38 0 C36.97176166 8.22590673 35.47155712 12.84161525 28.90234375 18.0234375 C23.95569983 20.56278243 18.1006691 20.36357734 12.75 19.4375 C6.81917263 16.33729478 2.28160993 12.44219275 0 6 C0 4.02 0 2.04 0 0 Z " fill="#FAFAF9" transform="translate(286,353)"/>
<path d="M0 0 C2.33676076 2.26999616 3.11466182 3.15269499 3.35546875 6.3671875 C3.36191406 7.23601562 3.36835938 8.10484375 3.375 9 C3.38917969 9.86367188 3.40335937 10.72734375 3.41796875 11.6171875 C3.17609252 14.2491288 2.51733541 15.86480544 1.1875 18.125 C0.5275 18.125 -0.1325 18.125 -0.8125 18.125 C-0.8125 18.785 -0.8125 19.445 -0.8125 20.125 C-3.16596396 21.30173198 -4.6931033 21.29123866 -7.3125 21.3125 C-8.1065625 21.32667969 -8.900625 21.34085937 -9.71875 21.35546875 C-11.8125 21.125 -11.8125 21.125 -13.8125 19.125 C-16.38311311 18.47732207 -16.38311311 18.47732207 -18.8125 18.125 C-18.1525 17.465 -17.4925 16.805 -16.8125 16.125 C-17.1425 15.135 -17.4725 14.145 -17.8125 13.125 C-18.18538316 8.09107729 -17.84302983 5.20455939 -14.8125 1.125 C-10.73494978 -2.95255022 -4.72419531 -3.14946354 0 0 Z " fill="#F7C3A6" transform="translate(317.8125,306.875)"/>
<path d="M0 0 C3.1293173 0.74342897 4.94179824 2.18840477 7.12109375 4.50390625 C8.85741011 7.97653898 8.72299777 11.71583638 8.12109375 15.50390625 C5.9395023 18.25960072 4.24931881 19.93979372 1.12109375 21.50390625 C-3.52604962 21.91698566 -6.1859638 21.39837466 -9.87890625 18.50390625 C-11.95991826 15.84882197 -12.79416078 13.93704976 -13.44140625 10.62890625 C-12.10696933 3.2153678 -7.47708892 -0.59261919 0 0 Z " fill="#0BB1EA" transform="translate(1030.87890625,686.49609375)"/>
<path d="M0 0 C3.07933335 2.01099321 4.49196824 3.41519652 5.62109375 6.9375 C6.23447878 10.2763381 6.13403549 12.66491127 4.875 15.8125 C2.27782488 18.84253764 0.19309167 20.80871614 -3.92578125 21.16796875 C-8.0345167 20.95905 -9.76507686 20.19576928 -13 17.5 C-15.34501483 14.18986002 -15.7389481 11.12393193 -15.46875 7.125 C-15 5 -15 5 -13.125 1.9375 C-8.72500004 -0.79049998 -5.04578121 -1.01081331 0 0 Z " fill="#17B6ED" transform="translate(962,687)"/>
<path d="M0 0 C8.58 0 17.16 0 26 0 C22 8 22 8 19.25 10 C15.33447248 11.2047777 12.04575523 11.8784608 8 11 C4.50462437 8.99054396 2.23362207 6.3504331 0 3 C0 2.01 0 1.02 0 0 Z " fill="#F8F8F8" transform="translate(979,708)"/>
<path d="M0 0 C1.46022163 0.95545366 2.91811468 1.91446678 4.375 2.875 C5.18710938 3.40867187 5.99921875 3.94234375 6.8359375 4.4921875 C9 6 9 6 11 8 C11.66 7.67 12.32 7.34 13 7 C13 9.31 13 11.62 13 14 C12.01 14.33 11.02 14.66 10 15 C10 15.66 10 16.32 10 17 C4.62343913 17.27338445 1.43300242 17.38994303 -3 14 C-3.66 13.34 -4.32 12.68 -5 12 C-4.73314868 7.33010192 -2.37159913 3.90166308 0 0 Z " fill="#E2EBED" transform="translate(1095,579)"/>
<path d="M0 0 C2.31332486 3.46998729 2.33957563 4.92509248 2 9 C1.01 10.485 1.01 10.485 0 12 C-2.09375 12.3984375 -2.09375 12.3984375 -4.5 12.375 C-5.2940625 12.38273437 -6.088125 12.39046875 -6.90625 12.3984375 C-7.5971875 12.26695312 -8.288125 12.13546875 -9 12 C-11.46943529 8.29584707 -11.46913089 6.37855495 -11 2 C-7.88980721 -1.98104677 -4.56233816 -1.18282841 0 0 Z " fill="#131211" transform="translate(282,297)"/>
<path d="M0 0 C2.31282587 3.46923881 2.42478586 4.92205575 2 9 C1 10.875 1 10.875 -1 12 C-3.85238734 12.41998341 -6.06566149 12.27946081 -9 12 C-11.46943529 8.29584707 -11.46913089 6.37855495 -11 2 C-7.88980721 -1.98104677 -4.56233816 -1.18282841 0 0 Z " fill="#121111" transform="translate(341,297)"/>
<path d="M0 0 C2 1.5625 2 1.5625 3 4 C2.9375 7.625 2.9375 7.625 2 11 C0.3125 12.5 0.3125 12.5 -2 13 C-7.43478261 12.56521739 -7.43478261 12.56521739 -10 10 C-10.54587156 3.99541284 -10.54587156 3.99541284 -8.9375 1.0625 C-5.84506242 -0.63335287 -3.44485259 -0.43060657 0 0 Z " fill="#0D3E48" transform="translate(961,691)"/>
<path d="M0 0 C0.70125 -0.01675781 1.4025 -0.03351562 2.125 -0.05078125 C2.74375 0.06910156 3.3625 0.18898438 4 0.3125 C6.32749345 3.80374017 6.50299316 5.20472251 6 9.3125 C4.02113939 12.09756308 2.84067767 13.12334752 -0.5 13.875 C-3 13.3125 -3 13.3125 -5.375 11.1875 C-7 8.3125 -7 8.3125 -6.875 5.125 C-5.56900597 0.92716206 -4.22067295 0.02327577 0 0 Z " fill="#00303B" transform="translate(1029,690.6875)"/>
<path d="M0 0 C1.32 1.65 2.64 3.3 4 5 C-0.42442592 8.71080883 -5.17403931 11.84577733 -10 15 C-10.33 13.02 -10.66 11.04 -11 9 C-9.948125 8.1646875 -9.948125 8.1646875 -8.875 7.3125 C-5.88655739 4.90875268 -2.94059762 2.46189568 0 0 Z " fill="#E3EBEE" transform="translate(951,579)"/>
<path d="M0 0 C3.00873047 0.57414306 4.37273423 1.96288023 6.12890625 4.40625 C3.32013254 5.3425079 0.92493431 5.39809112 -1.99609375 5.28125 C-3.91421875 5.343125 -3.91421875 5.343125 -5.87109375 5.40625 C-6.86109375 6.89125 -6.86109375 6.89125 -7.87109375 8.40625 C-9.19109375 8.40625 -10.51109375 8.40625 -11.87109375 8.40625 C-11.50624949 5.85234016 -10.81164408 4.3170755 -9.37109375 2.15625 C-6.13813156 -0.10682353 -3.87696398 -0.15329017 0 0 Z " fill="#17B9F0" transform="translate(1030.87109375,686.59375)"/>
<path d="M0 0 C0.66 1.32 1.32 2.64 2 4 C0.625 5.5 0.625 5.5 -1 7 C-1.66 7 -2.32 7 -3 7 C-3.226875 7.5775 -3.45375 8.155 -3.6875 8.75 C-5.33038023 11.5663661 -7.39533227 13.08077114 -10 15 C-10 10.84469116 -8.2148551 9.51148232 -5.5625 6.375 C-4.73878906 5.39273438 -3.91507813 4.41046875 -3.06640625 3.3984375 C-1 1 -1 1 0 0 Z " fill="#0CA4D0" transform="translate(939,590)"/>
<path d="M0 0 C1.9453125 -0.29296875 1.9453125 -0.29296875 4.125 -0.1875 C5.40375 -0.125625 6.6825 -0.06375 8 0 C4.99382731 3.00617269 2.17618402 2.59585316 -2 3 C-1.34 2.01 -0.68 1.02 0 0 Z " fill="#0D4450" transform="translate(1025,691)"/>
</svg>
