<svg width="20" height="20" viewBox="0 0 20 20" fill="none" xmlns="http://www.w3.org/2000/svg">
<path fill-rule="evenodd" clip-rule="evenodd" d="M10 1.5C5.313 1.5 1.5 5.313 1.5 10C1.5 14.687 5.313 18.5 10 18.5C14.687 18.5 18.5 14.687 18.5 10C18.5 5.313 14.687 1.5 10 1.5ZM10 20C4.486 20 0 15.514 0 10C0 4.486 4.486 0 10 0C15.514 0 20 4.486 20 10C20 15.514 15.514 20 10 20Z" fill="#64748B"/>
<path fill-rule="evenodd" clip-rule="evenodd" d="M9.99219 11.3721C9.57819 11.3721 9.24219 11.0361 9.24219 10.6221V6.20312C9.24219 5.78912 9.57819 5.45312 9.99219 5.45312C10.4062 5.45312 10.7422 5.78912 10.7422 6.20312V10.6221C10.7422 11.0361 10.4062 11.3721 9.99219 11.3721Z" fill="#64748B"/>
<path fill-rule="evenodd" clip-rule="evenodd" d="M10.005 14.7969C9.452 14.7969 9 14.3499 9 13.7969C9 13.2439 9.443 12.7969 9.995 12.7969H10.005C10.558 12.7969 11.005 13.2439 11.005 13.7969C11.005 14.3499 10.558 14.7969 10.005 14.7969Z" fill="#64748B"/>
</svg>
