<svg width="24" height="24" viewBox="0 0 24 24" fill="none" xmlns="http://www.w3.org/2000/svg">
<g clip-path="url(#clip0_1287_308)">
<path d="M12.3302 11.75C13.7442 11.75 15.1003 11.1837 16.1002 10.1757C17.1 9.16769 17.6617 7.80054 17.6617 6.375C17.6617 4.94946 17.1 3.58231 16.1002 2.5743C15.1003 1.56629 13.7442 1 12.3302 1C10.9162 1 9.56008 1.56629 8.56022 2.5743C7.56037 3.58231 6.99865 4.94946 6.99865 6.375C6.99865 7.80054 7.56037 9.16769 8.56022 10.1757C9.56008 11.1837 10.9162 11.75 12.3302 11.75ZM8.33154 14.068C5.24924 14.9792 3 17.8515 3 21.2528C3 21.9415 3.55398 22.5 4.23708 22.5H20.4233C21.1064 22.5 21.6604 21.9415 21.6604 21.2528C21.6604 17.8515 19.4111 14.9792 16.3288 14.068V16.2012C17.4785 16.4993 18.3282 17.5533 18.3282 18.8047V20.4844C18.3282 20.8539 18.0283 21.1562 17.6617 21.1562H16.9953C16.6287 21.1562 16.3288 20.8539 16.3288 20.4844C16.3288 20.1148 16.6287 19.8125 16.9953 19.8125V18.8047C16.9953 18.0614 16.3997 17.4609 15.6624 17.4609C14.9251 17.4609 14.3295 18.0614 14.3295 18.8047V19.8125C14.6961 19.8125 14.996 20.1148 14.996 20.4844C14.996 20.8539 14.6961 21.1562 14.3295 21.1562H13.6631C13.2965 21.1562 12.9966 20.8539 12.9966 20.4844V18.8047C12.9966 17.5533 13.8463 16.4993 14.996 16.2012V13.8034C14.746 13.7782 14.492 13.7656 14.2337 13.7656H10.4267C10.1684 13.7656 9.91434 13.7782 9.66442 13.8034V16.5497C10.6266 16.8395 11.3305 17.7381 11.3305 18.8047C11.3305 20.1022 10.285 21.1562 8.99798 21.1562C7.71091 21.1562 6.66543 20.1022 6.66543 18.8047C6.66543 17.7381 7.36936 16.8395 8.33154 16.5497V14.068ZM8.99798 19.8125C9.26311 19.8125 9.51737 19.7063 9.70485 19.5173C9.89232 19.3283 9.99764 19.072 9.99764 18.8047C9.99764 18.5374 9.89232 18.2811 9.70485 18.0921C9.51737 17.9031 9.26311 17.7969 8.99798 17.7969C8.73285 17.7969 8.47858 17.9031 8.29111 18.0921C8.10364 18.2811 7.99832 18.5374 7.99832 18.8047C7.99832 19.072 8.10364 19.3283 8.29111 19.5173C8.47858 19.7063 8.73285 19.8125 8.99798 19.8125Z" fill="#94A3B8"/>
</g>
<defs>
<clipPath id="clip0_1287_308">
<rect width="18.6604" height="21.5" fill="white" transform="translate(3 1)"/>
</clipPath>
</defs>
</svg>
