<svg width="24" height="24" viewBox="0 0 24 24" fill="none" xmlns="http://www.w3.org/2000/svg">
<path fill-rule="evenodd" clip-rule="evenodd" d="M16.9257 10.1998C16.5117 10.1998 16.1757 9.86377 16.1757 9.44977V7.30277C16.1757 5.20677 14.4707 3.50177 12.3747 3.50177H12.3587C11.3457 3.50177 10.3967 3.89177 9.67969 4.60277C8.95769 5.31677 8.55869 6.26977 8.55469 7.28577V9.44977C8.55469 9.86377 8.21869 10.1998 7.80469 10.1998C7.39069 10.1998 7.05469 9.86377 7.05469 9.44977V7.30277C7.06069 5.86277 7.61769 4.53377 8.62269 3.53777C9.62869 2.54077 10.9567 1.96377 12.3777 2.00177C15.2977 2.00177 17.6757 4.37977 17.6757 7.30277V9.44977C17.6757 9.86377 17.3397 10.1998 16.9257 10.1998Z" fill="#64748B"/>
<path fill-rule="evenodd" clip-rule="evenodd" d="M8.542 10.125C6.864 10.125 5.5 11.489 5.5 13.167V17.456C5.5 19.134 6.864 20.498 8.542 20.498H16.183C17.86 20.498 19.225 19.134 19.225 17.456V13.167C19.225 11.489 17.86 10.125 16.183 10.125H8.542ZM16.183 21.998H8.542C6.037 21.998 4 19.961 4 17.456V13.167C4 10.662 6.037 8.625 8.542 8.625H16.183C18.688 8.625 20.725 10.662 20.725 13.167V17.456C20.725 19.961 18.688 21.998 16.183 21.998Z" fill="#64748B"/>
<path fill-rule="evenodd" clip-rule="evenodd" d="M12.3594 17.1741C11.9454 17.1741 11.6094 16.8381 11.6094 16.4241V14.2031C11.6094 13.7891 11.9454 13.4531 12.3594 13.4531C12.7734 13.4531 13.1094 13.7891 13.1094 14.2031V16.4241C13.1094 16.8381 12.7734 17.1741 12.3594 17.1741Z" fill="#64748B"/>
</svg>
