<svg width="48" height="48" viewBox="0 0 48 48" fill="none" xmlns="http://www.w3.org/2000/svg">
<g clip-path="url(#clip0_1279_88)">
<path d="M10.9561 18.006C11.9372 18.006 12.7326 17.2107 12.7326 16.2296C12.7326 15.2485 11.9372 14.4531 10.9561 14.4531C9.97502 14.4531 9.17969 15.2485 9.17969 16.2296C9.17969 17.2107 9.97502 18.006 10.9561 18.006Z" fill="#F87023"/>
<path d="M24.4796 18.006C25.4607 18.006 26.256 17.2107 26.256 16.2296C26.256 15.2485 25.4607 14.4531 24.4796 14.4531C23.4985 14.4531 22.7031 15.2485 22.7031 16.2296C22.7031 17.2107 23.4985 18.006 24.4796 18.006Z" fill="#F8AF23"/>
<path d="M15.7077 26.0547C11.3541 26.1949 7.86719 29.7658 7.86719 34.1535V40.5799H27.5646V34.1535C27.5646 29.7658 24.0777 26.1947 19.7241 26.0547H15.7077Z" fill="#63BCE7"/>
<path d="M17.8757 26.0547H15.7077C11.3541 26.1949 7.86719 29.7658 7.86719 34.1535V40.5799H10.0352V34.1535C10.0352 29.766 13.5221 26.1949 17.8757 26.0547Z" fill="#6377E7"/>
<path d="M16.0859 22.8125H19.3389V28.0533H16.0859V22.8125Z" fill="#F8AF23"/>
<path d="M16.0859 22.8125H17.5312V28.0533H16.0859V22.8125Z" fill="#F87023"/>
<path d="M17.7136 23.9432C13.9799 23.9432 10.9531 20.9164 10.9531 17.1827V14.6901C10.9531 10.9565 13.9799 7.92969 17.7136 7.92969C21.4472 7.92969 24.474 10.9565 24.474 14.6901V17.1827C24.474 20.9164 21.4474 23.9432 17.7136 23.9432Z" fill="#F8AF23"/>
<path d="M13.1211 17.1827V14.6901C13.1211 11.3256 15.5794 8.53614 18.7976 8.01727C18.4445 7.96033 18.0827 7.92969 17.7136 7.92969C13.9799 7.92969 10.9531 10.9565 10.9531 14.6901V17.1827C10.9531 20.9164 13.9799 23.9432 17.7136 23.9432C18.0827 23.9432 18.4445 23.9125 18.7976 23.8556C15.5794 23.3367 13.1211 20.5473 13.1211 17.1827Z" fill="#F87023"/>
<path d="M15.0608 17.9498C15.4223 17.9498 15.7154 17.6567 15.7154 17.2952C15.7154 16.9337 15.4223 16.6406 15.0608 16.6406C14.6993 16.6406 14.4062 16.9337 14.4062 17.2952C14.4062 17.6567 14.6993 17.9498 15.0608 17.9498Z" fill="#3F3679"/>
<path d="M20.4358 17.9498C20.7973 17.9498 21.0904 17.6567 21.0904 17.2952C21.0904 16.9337 20.7973 16.6406 20.4358 16.6406C20.0743 16.6406 19.7812 16.9337 19.7812 17.2952C19.7812 17.6567 20.0743 17.9498 20.4358 17.9498Z" fill="#3F3679"/>
<path d="M17.7161 32.3151C18.034 32.3151 18.2917 32.0574 18.2917 31.7396C18.2917 31.4217 18.034 31.1641 17.7161 31.1641C17.3983 31.1641 17.1406 31.4217 17.1406 31.7396C17.1406 32.0574 17.3983 32.3151 17.7161 32.3151Z" fill="#3F3679"/>
<path d="M17.7161 35.0026C18.034 35.0026 18.2917 34.7449 18.2917 34.4271C18.2917 34.1092 18.034 33.8516 17.7161 33.8516C17.3983 33.8516 17.1406 34.1092 17.1406 34.4271C17.1406 34.7449 17.3983 35.0026 17.7161 35.0026Z" fill="#3F3679"/>
<path d="M17.7161 37.6901C18.034 37.6901 18.2917 37.4324 18.2917 37.1146C18.2917 36.7967 18.034 36.5391 17.7161 36.5391C17.3983 36.5391 17.1406 36.7967 17.1406 37.1146C17.1406 37.4324 17.3983 37.6901 17.7161 37.6901Z" fill="#3F3679"/>
<path d="M16.0878 25.5589L17.7142 28.05L14.9219 29.1103L15.0167 25.3434L16.0878 24.6797V25.5589Z" fill="#CECECE"/>
<path d="M19.3452 25.5589L17.7188 28.05L20.5111 29.1103L20.4163 25.3434L19.3452 24.6797V25.5589Z" fill="#CECECE"/>
<path d="M10.9531 15.9355H12.0004L13.5158 13.321L24.474 15.5689V12.487C24.474 8.75334 21.4472 5.72656 17.7136 5.72656C13.9799 5.72656 10.9531 8.75334 10.9531 12.487V15.9355Z" fill="#707070"/>
<path d="M18.7976 5.81415C18.4445 5.7572 18.0827 5.72656 17.7136 5.72656C13.9799 5.72656 10.9531 8.75334 10.9531 12.487V15.9354H12.0004L13.1211 14.0018V12.4869C13.1211 9.12232 15.5794 6.33287 18.7976 5.81415Z" fill="#5B5B5B"/>
<path d="M8.99672 42.0547H6.22461C6.10479 42.0547 6.00781 42.1517 6.00781 42.2715C6.00781 42.3913 6.10479 42.4883 6.22461 42.4883H8.99657C9.11639 42.4883 9.21337 42.3913 9.21337 42.2715C9.21337 42.1517 9.11639 42.0547 8.99672 42.0547Z" fill="#3F3679"/>
<path d="M42.77 42.0547H39.998C39.8784 42.0547 39.7812 42.1517 39.7812 42.2715C39.7812 42.3913 39.8784 42.4883 39.998 42.4883H42.77C42.8897 42.4883 42.9868 42.3913 42.9868 42.2715C42.9868 42.1517 42.8897 42.0547 42.77 42.0547Z" fill="#3F3679"/>
<path d="M38.4309 42.0547H10.5684C10.4485 42.0547 10.3516 42.1517 10.3516 42.2715C10.3516 42.3913 10.4485 42.4883 10.5684 42.4883H38.4309C38.5506 42.4883 38.6477 42.3913 38.6477 42.2715C38.6477 42.1517 38.5506 42.0547 38.4309 42.0547Z" fill="#3F3679"/>
<path d="M17.7168 19.553C17.8366 19.553 17.9336 19.456 17.9336 19.3362V18.2402C17.9336 18.1204 17.8366 18.0234 17.7168 18.0234C17.597 18.0234 17.5 18.1204 17.5 18.2402V19.3362C17.5 19.456 17.5971 19.553 17.7168 19.553Z" fill="#3F3679"/>
<path d="M15.8858 15.7188H14.1621C14.0423 15.7188 13.9453 15.8157 13.9453 15.9355C13.9453 16.0554 14.0423 16.1523 14.1621 16.1523H15.8858C16.0056 16.1523 16.1026 16.0554 16.1026 15.9355C16.1026 15.8157 16.0056 15.7188 15.8858 15.7188Z" fill="#3F3679"/>
<path d="M19.5449 16.1523H21.2686C21.3884 16.1523 21.4854 16.0554 21.4854 15.9355C21.4854 15.8157 21.3884 15.7188 21.2686 15.7188H19.5449C19.4251 15.7188 19.3281 15.8157 19.3281 15.9355C19.3281 16.0554 19.4252 16.1523 19.5449 16.1523Z" fill="#3F3679"/>
<path d="M18.7655 20.8599C18.8444 20.7698 18.8355 20.6329 18.7454 20.5539C18.6554 20.475 18.5185 20.4839 18.4394 20.574C18.2546 20.7847 17.9889 20.9057 17.7104 20.9057C17.4319 20.9057 17.1663 20.7849 16.9814 20.574C16.9023 20.4838 16.7655 20.4748 16.6754 20.5539C16.5854 20.6328 16.5764 20.7698 16.6553 20.8599C16.9226 21.1645 17.307 21.3393 17.7104 21.3393C18.1138 21.3393 18.4983 21.1645 18.7655 20.8599Z" fill="#3F3679"/>
</g>
<defs>
<clipPath id="clip0_1279_88">
<rect width="37" height="37" fill="white" transform="translate(6 5.5)"/>
</clipPath>
</defs>
</svg>
